<svg xmlns="http://www.w3.org/2000/svg" width="18" height="18" fill="none"><g fill="#000" clip-path="url(#a)"><path d="M16.298 7.241H11.1a.261.261 0 0 0 0 .523h5.197a.559.559 0 0 1 0 1.116H6.31V7.764h3.73a.261.261 0 0 0 0-.523H6.31v-.224a.26.26 0 0 0-.262-.262H4.363c-.003 0-.013 0-.02-.009a.03.03 0 0 1-.007-.022A10.58 10.58 0 0 1 7.583.516a.261.261 0 0 0-.278-.433c-1.91.796-3.48 2.285-4.42 4.193a.262.262 0 0 0 .47.231A8.25 8.25 0 0 1 6.141 1.3a11.17 11.17 0 0 0-2.324 5.347.55.55 0 0 0 .545.631h1.424v2.088H4.363a.55.55 0 0 0-.545.63 11.17 11.17 0 0 0 2.325 5.35 8.2 8.2 0 0 1-2.258-2.285 8.5 8.5 0 0 1-1.399-4.242v-.01a9 9 0 0 1-.012-.322v-.003a9 9 0 0 1 0-.337l.002-.073.007-.188.005-.084.006-.095c.055-.794.217-1.57.485-2.315a.261.261 0 1 0-.492-.177 9 9 0 0 0-.49 2.176h-.205a.932.932 0 0 0 0 1.862h.204A9.03 9.03 0 0 0 3.45 13.35a8.6 8.6 0 0 0 3.856 3.211.261.261 0 0 0 .278-.433 10.58 10.58 0 0 1-3.247-6.207.03.03 0 0 1 .006-.023c.008-.01.018-.01.02-.01h1.686a.26.26 0 0 0 .262-.26v-.225h9.988c.596 0 1.08-.485 1.08-1.081s-.484-1.081-1.08-1.081M1.792 8.73a.408.408 0 0 1 0-.816h.166a9 9 0 0 0-.006.599v.049l.006.145v.023zM7.706 17.462l-4.07-2.858a.26.26 0 0 0-.29-.007l-.933.593a.261.261 0 1 0 .28.441l.785-.499 3.25 2.282H.738l.574-.905.486-.309a.261.261 0 0 0-.28-.441l-.536.34a.3.3 0 0 0-.08.08L.04 17.537a.261.261 0 0 0 .22.401h7.295a.261.261 0 0 0 .15-.475"/><path d="m17.987 17.595-.781-2.401a.3.3 0 0 0-.026-.057l-1.025-1.656a.261.261 0 1 0-.445.275l1.008 1.63.66 2.028H8.565v-1.32a.3.3 0 0 0-.012-.08l-.7-2.173 1.44-1.473 3.398-1.126 2.497 1.623a.261.261 0 0 0 .285-.438l-2.602-1.692a.26.26 0 0 0-.225-.029l-3.579 1.186a.3.3 0 0 0-.104.065L7.368 13.59a.26.26 0 0 0-.061.263l.735 2.284v1.54c0 .144.117.261.262.261h9.434a.262.262 0 0 0 .249-.342M8.594 11.202l-.822-1.2a.26.26 0 0 0-.379-.056l-1.508 1.199a.26.26 0 0 0-.072.32l.755 1.541a.26.26 0 0 0 .417.072l1.576-1.542a.26.26 0 0 0 .033-.334m-1.716 1.25-.503-1.029 1.124-.893.54.786zM13.08 4.074l-.4-1.295a.26.26 0 0 0-.354-.163l-2.249.984a.26.26 0 0 0-.143.157l-.569 1.705a.26.26 0 0 0 .248.345h2.112c.08 0 .155-.037.204-.1l1.106-1.394a.26.26 0 0 0 .045-.24m-1.482 1.21H9.976l.417-1.251 1.874-.82.273.883z"/></g><defs><clipPath id="a"><path fill="#fff" d="M0 0h18v18H0z"/></clipPath></defs></svg>