<svg xmlns="http://www.w3.org/2000/svg" width="18" height="18" fill="none"><g clip-path="url(#a)"><path fill="#000" d="m16.112 16.166-.786-8.854a.264.264 0 0 0-.526.047l.761 8.567H4.908a.264.264 0 1 0 0 .527h10.677a1.157 1.157 0 0 1-1.15 1.02H3.566a1.157 1.157 0 0 1-1.15-1.02h1.259a.264.264 0 1 0 0-.527H2.438l.94-10.567A1.15 1.15 0 0 1 4.53 4.304h1.218V6.01a.264.264 0 1 0 .528 0V4.304h5.448v1.712a.264.264 0 1 0 .528 0V4.304h1.218c.603 0 1.099.454 1.152 1.055l.068.754a.264.264 0 0 0 .525-.046l-.067-.755a1.676 1.676 0 0 0-1.678-1.535h-1.218v-.525A3.255 3.255 0 0 0 9 0a3.255 3.255 0 0 0-3.252 3.252v.525H4.53c-.879 0-1.6.66-1.678 1.535l-.964 10.854A1.686 1.686 0 0 0 3.566 18h10.868a1.69 1.69 0 0 0 1.678-1.834M6.276 3.252A2.727 2.727 0 0 1 9 .527a2.73 2.73 0 0 1 2.724 2.725v.525H6.276z"/></g><defs><clipPath id="a"><path fill="#fff" d="M0 0h18v18H0z"/></clipPath></defs></svg>