<svg xmlns="http://www.w3.org/2000/svg" width="20" height="20" fill="none"><g fill="#000" clip-path="url(#a)"><path d="M19.99 15.462a.293.293 0 0 0-.358-.208c-.266.07-.456.187-.624.29-.245.15-.438.27-.867.27-.426 0-.62-.12-.864-.27-.272-.167-.58-.357-1.172-.357-.591 0-.9.19-1.17.357-.246.15-.44.27-.865.27-.426 0-.62-.12-.864-.27-.272-.167-.58-.357-1.172-.357s-.9.19-1.171.357c-.245.15-.438.27-.863.27s-.618-.12-.863-.27c-.271-.167-.58-.357-1.171-.357s-.9.19-1.172.357c-.244.15-.438.27-.864.27s-.62-.12-.864-.27c-.272-.167-.58-.357-1.171-.357s-.9.19-1.172.357c-.245.15-.438.27-.867.27-.426 0-.62-.12-.864-.27a2.2 2.2 0 0 0-.624-.29.293.293 0 1 0-.15.566c.183.048.314.13.467.223.271.167.58.357 1.174.357.592 0 .9-.19 1.171-.357.245-.15.439-.27.865-.27.425 0 .619.12.864.27.271.167.58.357 1.171.357s.9-.19 1.171-.357c.245-.15.439-.27.865-.27s.62.12.864.27c.271.167.578.356 1.167.357h.006c.589-.001.896-.19 1.167-.357.245-.15.438-.27.864-.27s.62.12.864.27c.272.167.58.357 1.172.357s.9-.19 1.171-.357c.245-.15.438-.27.864-.27s.62.12.865.27c.271.167.58.357 1.174.357.592 0 .9-.19 1.171-.357.153-.094.284-.175.467-.223a.293.293 0 0 0 .208-.358M18.142 17.38c-.427 0-.62-.12-.865-.27-.271-.167-.58-.357-1.171-.357s-.9.19-1.172.357c-.244.15-.438.27-.864.27s-.62-.12-.864-.27c-.272-.167-.58-.357-1.171-.357s-.9.19-1.172.357c-.244.15-.437.27-.862.27-.426 0-.619-.12-.863-.27-.272-.167-.58-.357-1.172-.357s-.9.19-1.171.357c-.245.15-.438.27-.864.27s-.62-.12-.865-.27c-.271-.167-.58-.357-1.171-.357s-.9.19-1.171.357c-.245.15-.439.27-.865.27a.293.293 0 0 0 0 .586c.592 0 .9-.19 1.172-.357.245-.15.438-.27.864-.27s.62.12.864.27c.272.167.58.357 1.172.357.591 0 .9-.19 1.17-.357.246-.15.44-.27.865-.27.426 0 .62.12.864.27.271.167.579.356 1.168.357h.005c.59-.001.896-.19 1.167-.357.245-.15.439-.27.865-.27s.619.12.864.27c.272.167.58.357 1.171.357s.9-.19 1.172-.357c.244-.15.438-.27.864-.27s.62.12.864.27c.272.167.58.357 1.172.357a.293.293 0 0 0 0-.586M6.264 10.783a3.74 3.74 0 0 0 3.738 3.738 3.74 3.74 0 0 0 3.737-3.738c0-.775-.235-1.519-.68-2.15a.293.293 0 0 0-.478.337 3.156 3.156 0 0 1-2.579 4.964 3.155 3.155 0 0 1-3.152-3.151 3.156 3.156 0 0 1 4.87-2.643.293.293 0 1 0 .32-.49 3.72 3.72 0 0 0-2.038-.605 3.74 3.74 0 0 0-3.738 3.738M1.546 11.076H4.99a.293.293 0 1 0 0-.586H1.546a.293.293 0 0 0 0 .586M14.719 10.783c0 .162.13.293.293.293h3.445a.293.293 0 1 0 0-.586h-3.445a.293.293 0 0 0-.293.293M10.002 6.065a.293.293 0 0 0 .293-.293V2.327a.293.293 0 0 0-.586 0v3.445c0 .162.131.293.293.293M12.36 6.697a.29.29 0 0 0 .4-.107l1.097-1.899a.293.293 0 1 0-.508-.292l-1.096 1.898c-.08.14-.033.32.107.4M7.243 6.59a.293.293 0 1 0 .507-.293L6.654 4.398a.293.293 0 1 0-.507.293zM14.194 13.542l1.298.75a.29.29 0 0 0 .4-.108.293.293 0 0 0-.107-.4l-1.298-.75a.293.293 0 1 0-.293.508M3.617 7.435l1.899 1.096a.29.29 0 0 0 .4-.107.293.293 0 0 0-.107-.4L3.91 6.928a.293.293 0 1 0-.293.507M14.341 8.57q.076 0 .146-.039l1.899-1.096a.293.293 0 0 0-.293-.508l-1.899 1.097a.293.293 0 0 0 .147.546M5.516 13.034l-1.298.75a.293.293 0 0 0 .293.507l1.297-.75a.293.293 0 0 0-.292-.507"/></g><defs><clipPath id="a"><path fill="#fff" d="M0 0h20v20H0z"/></clipPath></defs></svg>