<svg xmlns="http://www.w3.org/2000/svg" width="30" height="30" fill="none"><circle cx="15" cy="15" r="14.5" stroke="#B0B4A8"/><g clip-path="url(#a)"><path fill="#353B2A" d="M20.983 13.493a.35.35 0 0 0-.284-.232l-3.72-.526-1.664-3.277a.35.35 0 0 0-.315-.19.35.35 0 0 0-.315.19l-1.664 3.277-3.72.526a.35.35 0 0 0-.284.232.34.34 0 0 0 .09.35l2.69 2.551-.634 3.602a.34.34 0 0 0 .14.334.36.36 0 0 0 .37.026l3.327-1.7 3.327 1.7a.36.36 0 0 0 .37-.026.34.34 0 0 0 .14-.335l-.635-3.601 2.692-2.55a.34.34 0 0 0 .089-.35"/></g><defs><clipPath id="a"><path fill="#fff" d="M9 9h12v11.665H9z"/></clipPath></defs></svg>