<svg xmlns="http://www.w3.org/2000/svg" width="17" height="17" fill="none"><g fill="#000" clip-path="url(#a)"><path d="M13.29 2.395c-.438 0-.867.099-1.258.287A3.71 3.71 0 0 0 8.466 0 3.72 3.72 0 0 0 4.91 2.654a2.91 2.91 0 1 0-1.2 5.564h.015l.535 6.955c.01.129.12.23.249.23h1.11a1.05 1.05 0 0 0 1.019.8c.339 0 1.06-.343 1.545-.595-.093.294-.312.67-.823.919a.25.25 0 0 0-.124.312c.05.135.212.2.342.137a2.04 2.04 0 0 0 .923-.847c.169.304.451.618.922.847a.25.25 0 0 0 .343-.137.25.25 0 0 0-.125-.312c-.511-.248-.73-.625-.823-.919.484.252 1.207.594 1.546.594.492 0 .905-.34 1.018-.798h1.11c.13 0 .24-.102.25-.23l.36-4.674a.25.25 0 1 0-.498-.039l-.117 1.516h-2.095l.484-2.903a.25.25 0 0 0-.492-.082l-.498 2.985H8.75V8.5a.25.25 0 1 0-.499 0v3.477H7.114l-.497-2.985a.25.25 0 1 0-.493.082l.484 2.903H4.513l-.292-3.805a2.93 2.93 0 0 0 1.823-1.128.25.25 0 1 0-.4-.298 2.4 2.4 0 0 1-1.935.972 2.415 2.415 0 0 1-2.412-2.412 2.415 2.415 0 0 1 3.65-2.07c.145.087.339.001.372-.165a3.212 3.212 0 0 1 6.3.034c.033.17.234.258.38.165a2.415 2.415 0 0 1 3.704 2.037 2.415 2.415 0 0 1-2.412 2.411 2.4 2.4 0 0 1-1.876-.896.25.25 0 1 0-.388.314 2.9 2.9 0 0 0 1.752 1.036l-.09 1.159a.25.25 0 0 0 .498.038l.089-1.152h.014a2.914 2.914 0 0 0 2.912-2.91 2.914 2.914 0 0 0-2.912-2.912M6.638 15.703a.55.55 0 0 1 0-1.098c.203 0 .81.276 1.337.55-.527.272-1.134.548-1.337.548m3.726 0c-.203 0-.811-.276-1.337-.549.526-.273 1.134-.549 1.337-.549a.55.55 0 0 1 0 1.098m2.085-3.227-.187 2.429h-.88a1.05 1.05 0 0 0-1.018-.799c-.427 0-1.46.543-1.863.763-.403-.22-1.437-.763-1.863-.763-.492 0-.906.34-1.018.799h-.88l-.187-2.429z"/><path d="M10.627 6.424a.25.25 0 0 0-.347-.065 3.2 3.2 0 0 1-1.813.561c-.495 0-.97-.11-1.411-.326a.25.25 0 1 0-.22.448c.51.25 1.059.377 1.631.377.752 0 1.477-.224 2.095-.648a.25.25 0 0 0 .065-.347"/></g><defs><clipPath id="a"><path fill="#fff" d="M0 0h17v17H0z"/></clipPath></defs></svg>