<svg xmlns="http://www.w3.org/2000/svg" width="20" height="20" fill="none"><g fill="#6A7B56" clip-path="url(#a)"><path d="M13.258 10.103 20 14.365V5.66zM0 5.66v8.705l6.743-4.263zM18.75 3.125H1.25c-.624 0-1.12.465-1.213 1.064L10 10.752l9.962-6.563c-.094-.599-.589-1.064-1.212-1.064M12.112 10.858l-1.77 1.165a.63.63 0 0 1-.687 0l-1.768-1.167L.039 15.82c.096.594.589 1.055 1.21 1.055h17.5c.621 0 1.114-.461 1.21-1.055z"/></g><defs><clipPath id="a"><path fill="#fff" d="M0 0h20v20H0z"/></clipPath></defs></svg>