<svg xmlns:xlink="http://www.w3.org/1999/xlink" xmlns="http://www.w3.org/2000/svg" width="12" height="12" viewBox="0 0 12 12" fill="none">
<path d="M5.89873 0.369141C3.74252 0.369141 1.98828 2.12338 1.98828 4.27959C1.98828 6.98971 5.90257 11.6191 5.90257 11.6191C5.90257 11.6191 9.80917 6.85643 9.80917 4.27959C9.80917 2.12338 8.055 0.369141 5.89873 0.369141ZM7.07859 5.42457C6.75326 5.74983 6.32603 5.9125 5.89873 5.9125C5.4715 5.9125 5.04413 5.74983 4.71893 5.42457C4.06834 4.77404 4.06834 3.71551 4.71893 3.06491C5.03397 2.74974 5.45303 2.57616 5.89873 2.57616C6.34443 2.57616 6.76342 2.74981 7.07859 3.06491C7.72919 3.71551 7.72919 4.77404 7.07859 5.42457Z" fill="#F0F1EC"/>
</svg>