<svg xmlns="http://www.w3.org/2000/svg" width="660" height="55" fill="none"><path fill="#fff" d="M20.507 43.433c2.072 0 3.552-.296 5.18-.74v9.695c-1.628.74-4.292 1.258-8.214 1.258-6.439 0-11.841-2.146-11.841-13.988V24.34H.228v-9.62h5.403v-9.03h11.693v9.03h8.214v9.62h-8.214v15.32c0 1.702.444 3.774 3.182 3.774m39.076-28.715h11.693v38.484H59.583v-3.849c-.519 1.332-3.997 4.589-9.917 4.589-8.807 0-18.946-6.29-18.946-20.056 0-13.247 10.139-19.834 18.946-19.834 5.92 0 9.398 3.404 9.917 4.218zm-8.215 28.937c4.81 0 8.732-3.33 8.732-9.769 0-6.217-3.922-9.547-8.732-9.547-5.033 0-9.325 3.404-9.325 9.547 0 6.365 4.292 9.769 9.325 9.769m54.173 9.547-7.993-11.25-7.919 11.25H76.234l14.58-19.76-13.1-18.724h13.247l6.587 10.287 6.661-10.287h13.247l-13.173 18.724 14.653 19.76zM136.624.879v9.843h-11.693V.879zm0 13.84v38.483h-11.693V14.718zm25.828 12.136c-1.036-2.664-2.59-3.552-4.292-3.552-1.555 0-3.109.888-3.109 2.368 0 1.406.888 2.22 2.591 2.813l4.884 1.702c5.477 1.998 11.027 3.996 11.027 11.693 0 7.77-7.771 12.21-15.763 12.21-7.179 0-13.914-4.218-15.542-10.952l9.177-2.886c.962 2.146 2.664 4.588 6.365 4.588 2.516 0 4.144-1.628 4.144-3.108 0-.74-.592-1.703-2.442-2.443l-4.515-1.628c-7.696-2.812-11.323-6.734-11.323-12.21 0-7.18 6.661-11.398 13.988-11.398 7.474 0 12.433 4.07 14.653 10.213zm35.819 16.578c2.073 0 3.553-.296 5.181-.74v9.695c-1.628.74-4.293 1.258-8.215 1.258-6.439 0-11.841-2.146-11.841-13.988V24.34h-5.403v-9.62h5.403v-9.03h11.693v9.03h8.215v9.62h-8.215v15.32c0 1.702.444 3.774 3.182 3.774m30.491-29.38c8.733 0 20.278 6.586 20.278 20.055 0 13.543-11.545 19.834-20.278 19.834s-20.278-6.29-20.278-19.834c0-13.47 11.545-20.056 20.278-20.056m0 10.286c-4.44 0-8.955 3.404-8.955 9.769 0 6.143 4.515 9.547 8.955 9.547s9.029-3.404 9.029-9.547c0-6.365-4.588-9.769-9.029-9.769m78.077-10.213c8.215 0 15.468 5.329 15.468 18.354v20.722h-11.693V32.85c0-4.885-2.072-8.585-7.475-8.585-4.514 0-7.549 3.996-8.437 7.549v21.388h-11.693V32.85c0-4.885-3.034-8.585-7.475-8.585-4.81 0-7.696 3.256-8.436 7.549v21.388h-11.693V14.718h11.693v7.03c.148-1.775 3.922-7.622 11.471-7.622 5.55 0 10.879 2.96 14.061 8.363.888-2.072 5.329-8.363 14.209-8.363m50.251.592h11.693v38.484H357.09v-3.849c-.518 1.332-3.996 4.589-9.917 4.589-8.807 0-18.946-6.29-18.946-20.056 0-13.247 10.139-19.834 18.946-19.834 5.921 0 9.399 3.404 9.917 4.218zm-8.215 28.937c4.811 0 8.733-3.33 8.733-9.769 0-6.217-3.922-9.547-8.733-9.547-5.032 0-9.325 3.404-9.325 9.547 0 6.365 4.293 9.769 9.325 9.769m52.175-29.529c1.036 0 2.072 0 3.034.222v11.175c-.888-.222-1.924-.222-2.664-.222-7.105 0-12.803 5.107-13.395 12.211v15.69h-11.693V14.718h11.693v9.4c1.776-5.773 6.216-9.992 13.025-9.992m33.747 0c1.036 0 2.072 0 3.035.222v11.175c-.889-.222-1.925-.222-2.665-.222-7.104 0-12.803 5.107-13.395 12.211v15.69h-11.693V14.718h11.693v9.4c1.776-5.773 6.217-9.992 13.025-9.992m36.708.592h11.693v38.484h-11.693v-3.849c-.518 1.332-3.997 4.589-9.917 4.589-8.807 0-18.946-6.29-18.946-20.056 0-13.247 10.139-19.834 18.946-19.834 5.92 0 9.399 3.404 9.917 4.218zm-8.215 28.937c4.81 0 8.733-3.33 8.733-9.769 0-6.217-3.923-9.547-8.733-9.547-5.033 0-9.325 3.404-9.325 9.547 0 6.365 4.292 9.769 9.325 9.769m54.099 9.547-12.507-14.95-2.443 2.59v12.36h-11.693V.879h11.693v25.68l10.879-11.84h13.988L512.06 30.777l18.65 22.424zm37.669-39.15c8.733 0 20.944 6.587 18.502 23.978h-26.864c1.332 3.997 4.81 6.069 9.472 6.069 4.737 0 6.217-1.036 8.881-2.146l6.439 6.216c-3.404 3.33-7.993 5.773-15.764 5.773-9.546 0-20.944-6.587-20.944-19.834 0-13.47 11.545-20.056 20.278-20.056m0 9.991c-3.33 0-6.734 1.924-8.214 5.773h16.355c-1.184-3.849-4.81-5.773-8.141-5.773m44.108-9.99c7.031 0 12.952 2.96 16.578 9.176l-8.881 4.218c-1.924-1.628-3.478-3.108-7.549-3.108-4.44 0-8.954 3.404-8.954 9.695 0 6.217 4.514 9.473 8.954 9.473 4.071 0 5.625-1.332 7.549-2.96l9.029 4.218c-3.774 6.216-9.547 9.029-16.726 9.029-8.584 0-20.129-6.143-20.129-19.76 0-13.395 11.545-19.982 20.129-19.982m46.329.073c7.178 0 14.505 4.81 14.505 17.022v22.054h-11.693v-21.24c0-5.847-1.998-7.697-5.699-7.697-5.254 0-8.288 5.107-9.028 7.327v21.61h-11.693V.879h11.693v20.5c.74-1.85 4.662-7.253 11.915-7.253"/></svg>