<svg width="613" height="655" viewBox="0 0 613 655" fill="none" xmlns="http://www.w3.org/2000/svg">
<g clip-path="url(#clip0_135_88)">
<path d="M444.984 0.473938L445.134 0.933938L445.584 0.923938L445.864 2.23394L447.244 2.65394L446.774 4.82394L447.504 10.2239L448.074 11.5739L449.814 11.4539L449.414 12.5239L449.974 15.3339L451.144 17.8539L451.664 17.7539L451.984 18.2939L452.614 18.1639L453.634 18.6239L454.404 19.8939L456.194 21.1739L457.144 23.0839L457.214 23.3239L457.844 24.4339L459.054 24.7839L459.574 24.5939L462.944 28.5339L464.104 29.1539L465.244 29.3039L466.564 30.8439L468.004 31.6839L468.464 32.2639L472.274 33.8039L473.534 33.3539L474.234 34.2439L474.884 34.5139L475.834 34.3939L478.424 35.1739L479.564 35.1139L481.014 35.8039L479.924 37.0639L479.754 38.4139L480.414 39.1039L480.594 41.4639L479.664 43.8739L477.124 45.5339L473.284 46.2139L469.264 49.7239L468.434 49.7639L467.804 50.2739L467.054 51.5739L466.244 51.6939L464.754 52.4639L463.604 52.4139L460.794 53.1539L459.784 52.8339L459.154 53.2539H458.264L455.784 54.4239L454.654 55.7239L452.064 55.0439L448.814 56.4339L444.674 55.5639L442.814 54.4939L441.304 52.0839L440.194 51.4939L439.664 50.7039L439.394 50.6139L438.164 51.4939L436.894 51.2339L435.274 51.3039L434.624 50.8739L433.264 48.8439L431.814 48.1639L431.084 47.3439L429.384 47.0939L428.534 46.1039L426.454 45.9339L424.154 45.0339L418.894 44.0839L416.364 44.2339L412.734 43.8839L415.784 34.3239L416.304 34.1139L416.714 33.4239L419.144 24.9639L419.894 23.7039L420.284 22.2039L421.154 21.3939L422.044 18.8739L422.234 17.1139L422.464 16.6739L423.424 11.9539L424.694 7.38394L424.924 7.32394L424.904 6.69394L425.764 6.07394L427.414 6.30394L428.084 6.09394L429.684 6.70394L429.694 7.04394L430.614 7.23394L431.724 6.18394L431.754 5.27394L432.774 5.02394L432.914 4.67394L433.374 4.77394L434.124 4.30394L435.434 4.91394L436.284 4.48394L437.384 4.74394L438.054 4.53394L438.874 3.86394L438.954 4.09394L439.264 4.01394L440.984 2.08394L441.494 2.02394L441.894 1.05394L442.134 1.26394L442.554 0.783938H442.904L443.424 1.29394L443.584 1.00394L444.504 0.973938L444.984 0.473938Z" fill="white"/>
<path d="M412.716 43.8439L416.346 44.1939L418.876 44.0439L424.136 44.9939L426.436 45.8939L428.516 46.0639L429.366 47.0539L431.066 47.3039L431.796 48.1239L433.246 48.8039L434.606 50.8339L435.256 51.2639L436.876 51.1939L438.146 51.4539L439.376 50.5739L439.646 50.6639L440.176 51.4539L441.286 52.0439L442.796 54.4539L444.656 55.5239L448.796 56.3939L452.046 55.0039L454.636 55.6839L454.186 57.1739L454.176 58.8239L453.606 61.3839L453.656 61.9039L454.236 62.1939L454.026 62.8839L453.586 63.2539L452.556 63.0639L451.286 63.5939L451.086 64.4839L450.606 64.9139L449.976 65.3839L448.586 65.7039L448.316 66.2039L448.346 67.2939L447.786 67.7839L446.716 68.0339L446.156 69.1039L443.636 70.6139L441.916 71.0739L441.606 71.7139L442.326 72.5439L442.016 73.1039L442.206 73.8339L442.706 73.9439L443.416 73.5239L443.936 73.7639L443.806 74.2939V75.4239L444.796 76.8639L444.296 77.3139L443.216 77.2939L443.066 79.0439L442.236 80.0439L441.316 80.5439L441.066 81.1239L441.816 82.1639L439.526 82.8239L438.086 84.6939L437.526 84.5139L437.186 83.7339L437.476 83.0339L437.386 82.2039L436.786 81.7939L434.476 81.3939L433.126 81.6639L432.266 81.3939L432.026 80.7039L432.866 79.0939L432.376 78.4839L431.026 78.3539L430.536 77.6539L429.186 77.5239L427.816 78.5639L427.896 79.7539L427.426 80.2639L426.896 80.5939L425.506 80.8039L425.136 81.1339L425.556 82.2239L426.316 82.1139L426.776 82.3739L427.426 84.7639L425.316 84.7039L423.456 84.1339L421.836 84.1139L414.866 81.9739L408.226 82.5239L404.436 81.5839L400.916 83.1639L400.486 82.8839L398.906 82.8239L398.256 82.4839L397.526 81.3839L395.696 81.5439L395.176 80.5739L396.406 77.4239L396.556 76.9939L402.316 67.5739L407.406 57.1739L410.716 49.2639L411.356 49.4439L410.986 50.4939L411.096 50.9039L411.966 51.2139L412.096 51.5639L412.456 50.8139L412.796 50.7139L412.766 49.7239L411.496 49.3139L411.246 48.9939L410.936 49.0739L412.716 43.8439Z" fill="white"/>
<path d="M500.976 31.1239L501.446 31.4439L501.006 31.9339L501.276 32.1039L501.186 32.5139L502.056 33.5439L503.936 34.1439L505.586 33.8639L505.896 35.1739L505.386 38.1239L505.756 39.7539L505.766 42.1539L506.066 42.5839L505.926 48.1539L506.466 48.4539L506.546 49.3039L506.936 49.4739L508.626 49.2639L508.746 49.5339L508.156 50.0339L508.476 50.4939L510.496 50.2439L512.036 51.2339L513.676 51.0239L514.106 51.5039L513.676 52.1639L514.126 53.0339L513.986 54.4139L513.086 55.9639L513.436 56.5639L514.386 57.0539L514.446 57.5939L513.856 57.8739L512.436 57.8639L512.186 58.1239L512.606 60.0539L512.466 60.6939L511.596 61.4939L511.746 61.8139L513.686 61.1339L514.326 61.8739L514.386 62.8639L514.696 63.2439L516.596 63.9939L517.286 63.9439L518.176 60.9739L518.956 60.6539L519.066 59.6339L520.346 60.0339L521.486 58.7039L523.986 57.2739L524.566 56.0839L524.526 54.8039L525.016 54.4839L529.846 54.5639L530.656 55.0239L531.996 56.8139L533.226 56.7739L535.086 57.8639L535.626 58.5639L537.176 59.1039L537.306 59.5939L536.646 61.3339L538.096 62.0939L538.206 62.7439L537.826 62.9139L535.746 62.0039L533.476 63.0939L533.626 64.5239L532.976 67.0539L531.626 67.1439L531.846 68.1039L531.586 68.6239L530.736 68.8239L530.246 69.6539L527.866 70.8339L527.516 71.6039L527.646 72.0639L527.266 72.4439L527.426 73.3139L528.106 74.2139L529.236 75.3939L530.996 76.5639L531.236 81.1739L532.836 82.5439L532.876 83.1839L531.436 86.3239L530.426 86.9739L526.676 88.3739L526.326 89.0439L526.176 91.1939L527.916 92.5339L530.566 96.1939L531.576 98.5039L531.666 100.674L528.276 100.064L526.806 99.5339L524.046 97.5139L520.796 96.8039L520.226 96.4839L518.476 94.3739L517.586 94.1039L517.296 93.6739L516.266 93.2139L515.756 92.3639L515.256 92.3439L514.746 92.4839L514.166 94.0939L513.196 94.6739L511.156 98.3739L509.646 99.5939L508.216 100.134L507.906 100.864L506.556 102.314L505.146 103.224L504.896 104.574L504.506 104.784L503.696 106.094L500.526 107.494L499.226 108.374L495.226 108.724L493.676 106.764L495.016 104.724L495.106 103.984L494.126 103.394L493.346 103.364L492.626 103.464L491.266 104.404L490.246 102.674L490.416 99.5339L491.336 98.0139L493.316 96.8039L492.866 96.4939L490.356 96.6139L489.886 96.2039L489.296 96.1439L488.766 94.0939L488.566 93.8839L487.536 93.8639L486.496 93.1239L485.546 93.1339L482.796 95.1339L482.256 95.0139L480.866 93.8939L479.546 93.7239L478.176 93.1239L477.056 91.9939L477.096 88.7739L476.976 88.1439L476.166 87.1639L476.276 86.4739L475.756 86.0939L474.366 86.0139L473.296 85.1539L471.806 85.0639L471.396 84.6339L470.026 84.3339L469.146 82.6739L469.326 81.8139L469.056 80.5839L468.156 80.8739L467.546 80.7739L467.696 79.3639L467.506 78.7339L466.966 78.5539L466.046 79.0539L464.206 79.0639L464.186 78.2739L463.546 77.8639L463.666 77.4339L464.646 77.2939L464.006 76.3339L463.546 76.2839L462.846 76.9739L462.166 77.1639L461.926 76.7639L462.496 76.1139L462.056 75.3739L458.876 75.1039L458.456 75.7639L458.056 75.7939L457.916 75.4539L458.166 75.0039L457.766 74.9739L456.596 75.8439L456.216 75.7339L456.266 74.9239L455.836 74.6039L454.006 74.2839L452.426 74.8939L451.626 75.6839L450.766 75.4139L450.416 75.6939L449.166 75.7539L447.376 76.4439L446.726 75.5139L445.356 76.0439L443.766 74.3339L443.896 73.8039L443.376 73.5639L442.666 73.9839L442.166 73.8739L441.976 73.1439L442.286 72.5839L441.566 71.7539L441.876 71.1139L443.596 70.6539L446.116 69.1439L446.676 68.0739L447.746 67.8239L448.306 67.3339L448.276 66.2439L448.546 65.7439L449.936 65.4239L450.566 64.9539L451.046 64.5239L451.246 63.6339L452.516 63.1039L453.546 63.2939L453.986 62.9239L454.196 62.2339L453.616 61.9439L453.566 61.4239L454.136 58.8639L454.146 57.2139L454.596 55.7239L455.726 54.4239L458.206 53.2539H459.096L459.726 52.8339L460.736 53.1539L463.546 52.4139L464.696 52.4639L466.186 51.6939L466.996 51.5739L467.746 50.2739L468.376 49.7639L469.206 49.7239L473.226 46.2139L477.066 45.5339L479.606 43.8739L480.536 41.4639L480.356 39.1039L479.696 38.4139L479.866 37.0639L480.956 35.8039L481.936 36.1339L482.776 35.9239L484.656 36.4339L485.216 35.9839L485.786 35.9339L486.186 35.4839L487.136 35.2739L487.406 35.0139L488.556 34.5339L489.866 34.6839L489.996 34.4239L491.876 33.8939L492.386 34.1239L492.966 33.9939L496.176 32.6439L496.436 32.2539L496.826 32.4239L497.536 32.1139L497.796 32.4739L498.916 32.2839L500.336 31.2339L500.976 31.1239Z" fill="white"/>
<path d="M537.607 22.864L538.117 23.454L537.567 24.134L537.927 24.534L537.297 26.354L537.877 27.194L537.737 29.854L539.147 30.844L539.297 31.254L542.107 34.184L541.027 33.604L540.797 33.014L539.897 32.374L539.327 31.494L538.897 31.644L539.097 32.864L539.427 33.264L539.797 33.164L540.057 33.424L539.907 33.754L539.587 33.494L539.047 34.084L539.087 34.774L539.867 35.814L539.997 36.524L540.817 37.214L543.347 38.484L545.687 38.524L545.847 38.024L545.657 37.714L544.397 36.814L544.197 36.214L543.397 35.714L542.147 34.264L545.797 37.494L549.607 39.074L552.617 39.484L554.407 39.124L555.887 38.414L558.177 36.384L558.227 36.734L558.747 36.954L561.307 37.544L566.057 39.294L565.997 41.054L567.097 41.774L567.747 42.764L569.497 43.494L569.597 44.044L570.787 45.314L572.727 46.694L575.207 46.234L575.337 48.904L578.287 50.534L578.487 52.114L579.607 52.334L581.047 53.294L581.587 53.074L581.517 53.614L584.167 55.034L582.897 55.944L582.757 57.114L579.857 60.894L580.377 60.824L581.247 61.414L582.247 62.954V63.424L583.087 64.214L583.187 64.794L583.607 64.964L583.807 65.594L586.127 66.584L582.467 71.254L582.997 72.124L584.387 73.414L585.397 75.014L585.107 78.2439L587.547 84.284L585.597 95.0639L586.687 99.504L584.477 101.204L584.147 102.794L585.157 103.354L585.317 103.794L587.347 103.604L588.207 105.934L589.417 106.664L589.547 107.114L589.287 108.434L589.597 108.524L589.587 108.864L589.227 109.294L589.807 110.514L588.577 112.264L588.417 114.264L588.127 114.974L587.637 115.324L586.947 117.324L587.037 120.794L586.717 121.864L588.147 124.294L589.287 125.244L590.287 127.784L591.867 129.654L592.627 130.264L593.647 130.614L594.277 131.364L594.637 132.594L594.067 133.514L594.237 134.324L593.717 135.604L593.317 135.974L592.777 135.864L591.517 136.394L597.657 146.214L601.877 148.184L612.167 156.104L612.237 156.394L610.397 158.014L609.597 159.214L608.237 160.024L607.527 160.804L606.407 160.644L604.587 161.284L604.197 161.814L603.667 163.924L602.657 164.714L603.187 165.474L602.757 168.114L602.937 170.154L600.727 171.874L601.207 172.234L603.937 171.494L605.227 172.044L605.637 173.274L606.247 173.604L606.227 174.394L605.077 174.754L604.357 175.544L602.477 175.924L601.827 175.474L599.767 175.654L598.437 175.254L597.657 175.484L596.097 175.404L593.817 175.094L593.007 174.704L590.137 175.224L586.137 174.174L585.047 174.244L580.807 172.824L578.967 172.784L578.057 172.094H577.197L576.967 172.594L576.297 172.264L575.377 172.314L574.617 171.564L573.617 171.204L570.297 172.484L567.667 172.974L566.957 172.954L563.637 171.814L562.667 172.364L556.567 172.214L553.417 172.864L551.387 174.304L548.977 174.084L546.507 174.394L543.037 174.194L540.707 174.384L539.547 173.954L538.797 175.094L538.457 177.964L540.227 180.924L540.417 182.324L541.757 184.554L541.957 185.704L541.767 186.674L542.617 187.654L542.557 188.324L536.157 189.834L536.177 190.094L526.177 192.254L524.907 183.744L524.827 181.264L525.327 177.064L526.887 174.024L526.547 172.894L525.197 172.474L518.577 171.434L514.987 171.074L512.197 171.564L510.767 171.424L510.147 171.054L510.077 170.364L510.757 168.904L510.097 168.064L508.737 167.664L507.537 166.514L506.787 166.224L504.947 166.234L503.957 165.764L503.117 161.884L498.697 152.884L497.437 151.364L496.117 150.784L495.957 150.044L498.047 146.754L500.277 144.314L503.617 137.934L505.567 134.844L508.557 131.864L510.477 130.724L515.267 130.214L519.187 130.264L522.797 130.834L525.537 130.714L527.797 130.224L532.077 128.474L533.787 128.184L536.197 127.324L537.027 126.084L537.347 124.234L536.797 122.694L533.787 119.114L532.247 116.534L529.567 114.094L527.117 112.564L526.377 111.074L526.387 110.144L527.317 108.054L529.817 105.324L530.907 103.614L531.667 100.674L531.577 98.504L530.567 96.194L527.917 92.534L526.177 91.194L526.327 89.044L526.677 88.374L530.427 86.974L531.437 86.324L532.877 83.184L532.837 82.544L531.237 81.174L530.997 76.5639L529.237 75.394L528.107 74.214L527.427 73.3139L527.267 72.444L527.647 72.0639L527.517 71.604L527.867 70.834L530.247 69.654L530.737 68.824L531.587 68.624L531.847 68.104L531.627 67.144L532.977 67.054L533.627 64.524L533.477 63.094L535.747 62.004L537.827 62.914L538.207 62.744L538.097 62.094L536.647 61.334L537.307 59.594L537.177 59.104L535.627 58.564L535.087 57.864L533.227 56.774L531.997 56.814L530.657 55.024L529.847 54.564L525.017 54.484L524.527 54.804L524.567 56.084L523.987 57.274L521.487 58.704L520.347 60.034L519.067 59.634L518.957 60.654L518.177 60.974L517.287 63.944L516.597 63.994L514.697 63.244L514.387 62.864L514.327 61.874L513.687 61.134L511.747 61.814L511.597 61.494L512.467 60.694L512.607 60.054L512.187 58.124L512.437 57.864L513.857 57.874L514.447 57.594L514.387 57.054L513.437 56.564L513.087 55.964L513.987 54.414L514.127 53.034L513.677 52.164L514.107 51.504L513.677 51.024L512.037 51.234L510.497 50.244L508.477 50.494L508.157 50.034L508.747 49.534L508.627 49.264L506.937 49.474L506.547 49.304L506.467 48.454L505.927 48.154L506.067 42.584L505.767 42.154L505.757 39.754L505.387 38.124L505.897 35.174L505.587 33.864L506.877 32.974L507.687 30.534L509.277 29.904L510.427 30.004L510.867 30.804L513.747 32.764L515.817 33.204L517.547 34.054L519.027 33.724L519.927 34.354L523.347 34.674L524.617 33.784L526.357 33.414L527.117 32.934L527.547 33.014L527.887 32.734L528.847 32.944L530.217 31.594L531.087 30.074L532.177 30.694L533.677 29.634L535.717 25.804L535.767 24.984L535.817 24.684L536.357 23.934L536.417 23.104L537.607 22.864Z" fill="white"/>
<path d="M443.836 74.3139L445.436 76.0239L446.796 75.4939L447.446 76.4239L449.246 75.7339L450.486 75.6739L450.836 75.3939L451.696 75.6639L452.496 74.8739L454.076 74.2639L455.906 74.5739L456.336 74.9039L456.296 75.7139L456.666 75.8239L457.836 74.9539L458.236 74.9939L457.996 75.4439L458.126 75.7839L458.536 75.7439L458.956 75.0939L462.136 75.3639L462.576 76.1039L462.006 76.7539L462.246 77.1539L462.926 76.9639L463.626 76.2739L464.086 76.3339L464.736 77.2839L463.756 77.4239L463.636 77.8639L464.276 78.2739L464.296 79.0639L466.126 79.0539L467.056 78.5539L467.596 78.7439L467.786 79.3739L467.636 80.7839L468.246 80.8839L469.136 80.5939L469.416 81.8239L469.236 82.6739L470.116 84.3339L471.486 84.6339L471.896 85.0639L473.386 85.1439L474.446 86.0139L475.836 86.0939L476.356 86.4739L476.246 87.1639L477.046 88.1439L477.166 88.7739L477.136 91.9939L478.246 93.1239L479.616 93.7239L480.936 93.8939L482.326 95.0139L482.866 95.1339L485.616 93.1339L486.556 93.1239L487.606 93.8639L488.636 93.8839L488.836 94.0939L489.356 96.1439L489.946 96.2039L490.416 96.6139L492.916 96.5039L493.366 96.8039L491.386 98.0239L490.466 99.5439L490.286 102.684L491.306 104.414L492.676 103.464L493.386 103.374L494.166 103.394L495.146 103.994L495.056 104.734L493.706 106.774L495.256 108.724L499.256 108.384L500.556 107.504L503.716 106.104L504.536 104.794L504.916 104.584L505.166 103.224L506.576 102.314L507.916 100.864L508.226 100.124L509.656 99.5939L511.166 98.3739L513.206 94.6739L514.186 94.0939L514.766 92.4839L515.276 92.3439L515.786 92.3639L516.286 93.2139L517.326 93.6739L517.616 94.1039L518.506 94.3739L520.256 96.4839L520.826 96.8039L524.076 97.5139L526.836 99.5339L528.306 100.064L531.696 100.674L530.936 103.614L529.846 105.334L527.356 108.054L526.426 110.144L526.416 111.084L527.146 112.574L529.596 114.094L532.276 116.534L533.816 119.114L536.826 122.694L537.376 124.234L537.056 126.084L536.226 127.324L533.826 128.184L532.116 128.474L527.826 130.224L525.576 130.714L522.836 130.844L519.226 130.264L515.306 130.214L510.516 130.734L508.596 131.874L505.606 134.854L503.656 137.944L500.316 144.324L498.086 146.764L495.996 150.054L496.156 150.794L494.796 151.344L493.686 151.414L490.916 151.364L489.506 151.004L488.406 151.224L487.496 150.904L487.186 150.344L487.066 147.174L483.586 143.664L482.046 142.684L481.106 140.644L480.486 139.954L479.926 139.584L477.386 139.374L472.796 140.064L471.086 139.364L469.586 138.204L469.226 137.314L469.336 136.244L469.816 135.494L469.946 134.674L466.416 130.684L464.446 124.384L463.076 121.254L460.746 119.184L460.036 117.804L459.916 116.914L460.166 116.134L464.066 110.484L464.366 109.464L464.116 107.994L462.496 106.274L460.336 104.524L456.686 104.024L455.826 103.484L455.416 102.624L455.396 101.614L457.146 97.0339L456.916 94.7639L455.636 92.7239L454.746 92.2039L453.926 89.1039L451.696 88.4739L450.546 88.5139L449.996 87.8539L449.346 86.2839L448.866 85.8939L447.866 85.6839L446.626 86.2839L446.086 86.1039L445.706 83.9339L445.906 80.9339L445.696 78.8239L445.286 77.3739L444.836 76.8939L443.846 75.4539L443.836 74.3139Z" fill="white"/>
<path d="M444.835 76.8939L445.285 77.3739L445.695 78.8239L445.905 80.9339L445.705 83.9339L446.085 86.1039L446.625 86.2839L447.865 85.6839L448.865 85.8939L449.345 86.2839L449.995 87.8539L450.545 88.5139L451.695 88.4739L453.925 89.1039L454.745 92.2039L455.635 92.7239L456.915 94.7639L457.145 97.0339L455.395 101.614L455.415 102.624L455.825 103.484L456.685 104.024L460.335 104.524L462.495 106.274L464.115 107.994L464.365 109.464L464.065 110.484L460.165 116.134L459.915 116.914L460.035 117.804L460.745 119.184L463.075 121.254L464.445 124.384L466.415 130.684L469.945 134.674L469.815 135.494L469.335 136.244L469.225 137.314L469.585 138.204L471.085 139.364L472.795 140.064L477.385 139.374L479.925 139.584L480.485 139.954L481.105 140.644L482.045 142.684L483.585 143.664L487.065 147.174L487.185 150.344L487.495 150.904L488.405 151.224L489.505 151.004L490.915 151.364L493.685 151.414L494.795 151.344L496.155 150.794L497.465 151.374L498.735 152.894L503.155 161.884L503.985 165.764L504.975 166.234L506.815 166.224L507.565 166.524L508.765 167.664L510.125 168.074L510.785 168.914L510.105 170.364L510.185 171.054L510.805 171.434L512.235 171.574L515.026 171.074L518.615 171.434L525.235 172.474L526.586 172.894L526.925 174.024L525.375 177.064L524.865 181.254L524.956 183.734L526.225 192.244L510.985 195.644V205.934L511.655 206.274L511.135 206.984L510.675 206.664L510.425 207.304L509.205 207.684L509.145 208.214L508.785 208.564L508.295 208.494L508.085 207.834L507.775 207.734L507.445 208.364L507.585 208.664L507.195 208.924L507.265 209.964L506.395 210.754L506.525 211.024L506.805 210.794L507.005 211.394L507.495 211.214L507.415 212.044L506.485 212.694L506.615 212.994L506.195 213.254L506.505 213.894L506.895 213.834L507.115 215.544L507.395 215.734L506.725 217.164L506.895 218.394L507.355 218.134L508.075 218.174L508.485 218.514L508.745 217.714L508.355 217.234L509.245 216.874L509.115 216.364L509.565 215.914L509.855 216.314L510.365 216.394L510.725 217.004L510.785 218.394L510.425 219.864L510.915 219.704L510.985 219.164L511.745 219.564L512.055 219.284L511.765 218.824L511.745 217.944L511.485 217.754L511.975 217.434L512.045 218.774L512.315 218.984L512.836 218.414L512.776 219.304L513.245 219.474L513.326 220.434L513.766 220.404L513.745 221.114L514.435 221.784L514.505 221.404L514.995 221.514L514.915 221.004L515.255 220.864L515.155 221.904L515.405 222.284L515.646 221.984L515.805 224.844L515.396 225.294L515.685 225.324L515.706 225.664L515.065 225.964L515.245 226.384L515.016 226.324L514.975 226.804L514.385 226.594L514.375 227.104L513.956 227.244L514.095 227.744L513.695 228.334L513.266 228.324L512.845 229.604L512.526 229.644L512.195 229.494L511.535 230.424L511.385 232.184L510.995 232.534L511.235 233.874L511.765 233.654L512.375 233.994L512.845 235.414L512.336 235.684L511.905 236.774L504.165 240.064L498.405 241.604L492.675 241.934L486.045 244.414L475.165 255.204L462.665 261.424L455.745 267.274L454.425 263.454L453.905 263.174L452.905 261.794L452.545 259.944L452.045 258.984L452.285 255.674L452.185 250.154L452.615 247.894L452.585 240.684L450.695 238.094L450.505 237.214L449.385 235.814L447.365 232.294L446.655 228.904L446.575 227.574L447.715 221.994L448.575 215.324L450.165 211.604L451.085 208.244L451.265 205.614L451.005 204.254L450.535 203.174L449.395 201.894L448.455 201.294L445.495 200.384L442.735 198.694L441.745 196.864L441.145 196.384L435.845 194.934L433.125 195.574L430.395 195.184L429.915 194.694L430.365 193.314L439.035 184.134L440.045 182.014L439.605 181.434L434.405 177.884L433.465 177.834L430.965 179.614L429.465 179.984L429.735 179.234L429.385 177.904L428.535 177.614L428.195 176.874L428.455 176.244L429.315 175.864L429.115 174.314L430.105 173.624L430.135 172.074L430.985 171.254L432.355 171.184L433.105 170.474L433.675 169.734L433.875 168.424L434.155 168.124L435.045 167.684L437.365 167.244L439.285 167.704L439.915 167.264L440.115 166.164L439.125 165.324L440.005 163.314L439.545 162.494L440.225 161.474L440.345 160.414L441.185 159.184L440.225 156.974L438.835 154.984L438.435 153.524L436.195 153.314L435.855 152.754L434.265 151.644L433.135 151.444L431.865 152.514L430.875 152.444L430.375 149.854L429.985 149.064L429.205 148.664L428.375 147.584L427.605 147.744L426.955 147.424L426.295 146.044L424.595 145.054L422.255 145.424L421.815 145.244L421.485 144.614L421.685 143.344L421.345 142.844L421.425 142.474L422.225 141.964L420.865 140.144L420.615 138.884L419.875 138.594L418.105 139.374L417.455 139.384L416.885 138.904L416.975 137.204L418.675 136.844L419.325 136.364L419.395 135.704L419.045 135.264L417.375 134.544L417.045 132.894L414.905 131.864L413.145 130.154L411.635 129.654L411.195 128.454L407.465 127.184L407.105 126.514L407.215 125.754L407.645 124.954L408.355 124.424L408.485 123.704L407.515 121.814L408.285 120.044L407.875 119.354L408.375 117.564L408.945 117.084L411.255 116.554L412.285 116.534L413.455 117.254L414.005 117.134L414.555 116.494L415.085 116.774L415.515 117.684L415.945 117.874L416.865 117.744L417.175 118.034L417.165 118.844L417.495 119.284L417.625 121.474L418.175 122.244L419.695 122.404L420.115 122.964L420.845 123.094L421.615 122.714L423.125 120.974L424.565 120.514L429.305 121.904L430.185 121.584L430.895 120.234L430.955 118.954L430.365 117.354L430.235 113.964L430.645 109.034L431.365 106.274L431.915 100.624L431.825 98.8939L431.385 98.2039L430.385 97.5639L430.105 96.8939L430.045 96.0239L430.415 94.9939L429.795 94.7139L429.015 94.9639L428.775 94.4439L428.795 93.4839L430.845 91.5439L430.505 89.8339L428.045 87.7939L427.555 87.0639L427.415 84.7739L426.775 82.3739L426.315 82.1139L425.555 82.2339L425.135 81.1439L425.495 80.8139L426.895 80.6039L427.425 80.2739L427.905 79.7639L427.825 78.5739L429.195 77.5339L430.535 77.6539L431.035 78.3539L432.375 78.4839L432.865 79.0939L432.035 80.7139L432.265 81.4039L433.125 81.6639L434.475 81.4039L436.785 81.7939L437.385 82.2039L437.535 83.0639L437.245 83.7639L437.585 84.5439L438.145 84.7239L439.585 82.8539L441.875 82.1839L441.125 81.1539L441.365 80.5739L442.285 80.0739L443.115 79.0639L443.265 77.3139L444.345 77.3339L444.835 76.8939Z" fill="white"/>
<path d="M395.175 80.5739L395.695 81.5439L397.525 81.3839L398.255 82.4839L398.905 82.8239L400.485 82.8839L400.915 83.1639L404.435 81.5839L408.225 82.5239L414.865 81.9739L421.835 84.1139L423.455 84.1339L425.315 84.7039L427.425 84.7639L427.565 87.0539L428.055 87.7939L430.515 89.8339L430.855 91.5439L428.805 93.4839L428.785 94.4439L429.025 94.9639L429.805 94.7039L430.425 94.9839L430.045 96.0139L430.115 96.8839L430.395 97.5539L431.385 98.1939L431.835 98.8839L431.925 100.604L431.375 106.254L430.655 109.024L430.245 113.944L430.375 117.334L430.975 118.934L430.905 120.214L430.195 121.564L429.315 121.884L424.575 120.504L423.135 120.964L421.635 122.704L420.855 123.084L420.125 122.954L419.695 122.394L418.175 122.234L417.625 121.464L417.485 119.274L417.155 118.834L417.165 118.024L416.855 117.734L415.935 117.874L415.505 117.684L415.085 116.774L414.545 116.504L413.995 117.144L413.455 117.264L412.275 116.554L411.255 116.564L408.935 117.104L408.365 117.574L407.865 119.374L408.275 120.064L407.505 121.834L408.485 123.724L406.265 124.944L405.475 124.894L403.905 125.914L402.885 127.764L402.355 128.094L400.735 125.834L399.225 124.774L396.245 125.004L395.415 125.314L393.595 124.484L392.235 125.164L390.115 124.174L390.565 123.014L390.145 120.204L390.275 119.564L391.225 118.344L391.445 117.144L390.185 115.384L389.715 114.144L389.665 113.104L392.055 109.464L392.405 107.784L391.425 107.694L390.855 108.084L388.115 108.244L387.745 107.604L387.015 107.274L386.235 106.014L384.865 105.414H384.265L384.225 105.814L383.675 105.784L384.015 104.664L382.835 102.664L382.805 100.674L382.475 99.4739L381.595 97.9739L379.905 97.8439L379.395 96.9239L381.695 95.0239L382.105 95.1239L383.075 94.7239L384.115 93.8739L384.085 93.6239L384.925 93.3039L385.035 92.8739L385.595 92.6839L385.885 92.1439L387.465 90.7739L390.345 87.3039L392.325 85.0939L395.175 80.5739Z" fill="white"/>
<path d="M369.147 101.844L369.297 102.464H369.877L370.047 102.414L370.497 102.334L370.927 101.994L370.947 102.594L369.967 103.694L370.447 104.734L369.017 105.104L369.297 105.504L368.797 106.564L369.017 106.784L368.837 107.734L369.407 108.314L368.967 109.514L369.327 110.584L370.007 111.004L370.287 112.224L369.887 112.414L369.397 112.174L369.127 112.694L368.387 112.954L368.907 114.064L367.157 114.294L367.087 114.824L366.087 115.014L364.127 116.614L363.697 118.364L362.787 120.024L361.937 120.074L361.427 119.804L360.797 117.564L362.097 116.854L364.187 116.214L363.997 116.074L362.307 115.414L361.007 115.324L360.307 115.794L359.747 115.104L358.057 115.834L357.887 114.904L356.757 114.434L356.327 113.784L355.547 114.064L355.127 113.734L354.397 114.044L353.737 113.374L353.137 113.514L352.387 113.244L351.267 113.704L350.407 112.824L350.207 112.004L352.617 110.564L352.917 110.144L353.157 110.614L353.767 110.604L354.067 110.394L354.177 110.354L355.527 109.664L357.227 108.634L357.427 108.014L357.827 108.114L358.367 107.514L358.987 107.374L359.397 106.704L359.787 107.194L360.127 106.914L360.747 107.064L360.797 107.054L361.187 107.234V106.994L361.257 106.884L361.607 107.304L361.617 106.804L361.987 107.174L363.167 106.484L364.377 106.244L367.377 103.784L367.527 103.534L368.407 102.924L369.147 101.844Z" fill="white"/>
<path d="M379.405 96.9039L379.915 97.8239L381.605 97.9539L382.485 99.4539L382.815 100.654L382.845 102.644L384.025 104.644L383.685 105.764L384.235 105.794L384.275 105.394H384.875L386.245 105.994L387.025 107.254L387.755 107.584L388.125 108.224L390.865 108.064L391.435 107.674L392.415 107.764L392.065 109.444L389.675 113.084L389.725 114.124L390.195 115.364L391.455 117.124L391.235 118.324L390.285 119.544L390.155 120.184L390.575 122.994L390.125 124.154L392.245 125.144L393.605 124.464L395.425 125.294L396.255 124.984L399.235 124.754L400.745 125.814L402.365 128.074L402.895 127.744L403.915 125.894L405.485 124.874L406.275 124.924L408.495 123.704L408.365 124.424L407.655 124.954L407.225 125.754L407.115 126.514L407.485 127.174L411.205 128.444L411.645 129.644L413.155 130.154L414.915 131.864L417.055 132.894L417.385 134.544L419.055 135.264L419.405 135.704L419.335 136.364L418.685 136.854L416.985 137.204L416.895 138.914L417.465 139.394L418.105 139.384L419.875 138.604L420.615 138.904L420.865 140.164L422.225 141.984L421.435 142.494L421.345 142.864L421.685 143.364L421.485 144.634L421.825 145.264L420.845 146.144L420.335 147.124L418.935 147.974L415.175 148.354L412.395 149.424L408.345 149.514L407.625 149.304L405.515 149.514L403.975 148.804L401.845 148.404L399.915 148.744L399.335 149.334L398.815 149.454L398.585 149.844L399.075 150.344L398.905 150.834L397.155 150.644L396.085 150.084L394.185 150.014L392.965 149.454L392.555 149.534L392.245 150.154L390.675 150.354L389.425 151.464L387.605 152.124H386.755L385.915 151.194L385.035 150.944L385.195 151.464L384.755 152.674L384.505 156.724L382.725 161.544L380.585 163.744L380.035 162.954L378.575 162.794L377.875 161.764L376.745 161.374L375.445 160.224L373.025 159.944L371.315 157.544L368.395 157.694L367.275 158.314L366.775 157.924L366.405 158.174L366.445 158.994L364.705 160.084L363.445 160.194L362.635 159.644L362.325 160.114H361.955L360.875 158.334L359.855 155.774L359.335 154.934L358.275 154.524L356.885 151.304L356.345 150.644L355.765 150.254L354.495 150.094L353.435 149.174L349.935 148.094L349.745 146.964L348.095 144.604L347.485 142.874L346.655 142.844L347.225 142.254L347.185 142.064L346.375 142.044L346.435 141.594L347.185 141.174L346.975 140.964L346.225 140.784L345.395 141.464L344.395 141.484L345.435 140.594L344.595 140.124L344.775 138.804L345.125 138.414L344.185 137.554L344.935 137.204L344.745 136.754L344.095 136.404L344.675 136.014L344.525 135.434L345.105 134.874L344.555 134.194L344.745 133.924L345.355 133.944L345.375 133.634L344.615 132.764L344.935 130.654L344.745 130.404L344.055 130.784L343.725 130.594L344.135 129.974L343.105 129.194L343.035 128.364L342.495 128.244L342.285 128.614L342.055 128.554V128.204L341.555 127.714L341.615 127.364L342.515 127.214L343.175 126.054L343.375 124.934L344.045 124.624L344.965 124.914L346.345 124.804L346.905 123.974L346.005 123.544L347.595 122.874L348.805 121.234L347.735 120.844L347.565 119.874L347.105 120.024L346.805 119.634L347.955 118.844L347.305 118.184L348.115 116.874L347.625 116.524L347.455 115.744L345.975 113.794L347.565 112.914L348.695 112.774L350.235 112.034L350.435 112.854L351.295 113.734L352.415 113.274L353.165 113.544L353.765 113.404L354.425 114.074L355.155 113.764L355.575 114.094L356.355 113.814L356.785 114.464L357.915 114.934L358.085 115.864L359.775 115.134L360.335 115.824L361.035 115.354L362.335 115.444L364.025 116.104L364.215 116.244L362.125 116.884L360.825 117.594L361.455 119.834L361.965 120.104L362.815 120.054L363.725 118.394L364.155 116.644L366.115 115.044L367.115 114.854L367.185 114.324L368.935 114.094L368.415 112.984L369.155 112.724L369.425 112.204L369.915 112.444L370.315 112.254L370.035 111.034L369.355 110.614L368.995 109.544L369.435 108.344L368.865 107.764L369.045 106.814L368.825 106.594L369.325 105.534L369.045 105.134L370.475 104.764L369.995 103.724L370.975 102.624L370.955 102.024H370.925V101.854L371.105 101.794L371.235 101.444L372.265 100.874L374.135 99.1039L374.845 98.8639L375.185 98.4339L375.575 98.4439L375.565 98.1039L377.225 98.0439L377.775 97.5639L378.145 97.5339L378.735 96.9939L379.045 97.3339L379.405 96.9039Z" fill="white"/>
<path d="M345.967 113.764L347.447 115.714L347.617 116.494L348.107 116.844L347.297 118.154L347.947 118.814L346.797 119.604L347.097 119.994L347.557 119.844L347.727 120.814L348.797 121.204L347.587 122.844L345.997 123.514L346.897 123.944L346.337 124.774L344.957 124.884L344.037 124.594L343.367 124.904L343.167 126.024L342.507 127.184L341.607 127.334L341.547 127.684L342.047 128.174V128.524L342.277 128.584L342.487 128.214L343.027 128.334L343.097 129.164L344.127 129.944L343.717 130.564L344.047 130.754L344.737 130.374L344.927 130.624L344.607 132.734L345.367 133.604L345.347 133.914L344.737 133.894L344.547 134.164L345.097 134.844L344.517 135.404L344.667 135.984L344.087 136.374L344.737 136.724L344.927 137.174L344.177 137.524L345.117 138.384L344.767 138.774L344.587 140.094L345.427 140.564L344.387 141.454L345.387 141.434L346.217 140.754L346.967 140.934L347.177 141.144L346.427 141.564L346.367 142.014L347.177 142.034L347.217 142.224L346.647 142.814L345.867 143.054L344.957 144.084L344.737 145.214L345.197 146.304L344.867 146.714V147.434L343.477 148.514L343.727 148.984L343.477 149.724L344.547 151.364L344.757 152.474L344.497 153.754L344.267 153.964L343.827 153.764L342.487 155.684L341.517 156.384L340.957 157.214L339.817 157.734L339.297 158.354L336.927 158.394L336.307 158.914L336.337 160.454L336.107 160.804L334.447 160.794L333.327 161.274L332.527 162.574L329.597 163.514L329.307 164.984L329.437 165.904L330.617 168.814L332.227 171.034L333.747 172.374L335.057 172.614L337.357 173.884L338.897 175.184L339.047 175.834L338.997 176.634L338.517 175.954L337.877 175.854L337.727 177.824L336.307 178.674L334.647 180.144L333.237 182.674L332.997 184.184L332.077 185.354L331.917 186.034L330.187 188.204L330.887 190.544L331.507 190.684L332.737 192.374L331.627 192.794L331.117 192.694L329.857 191.784L327.107 192.954L325.127 192.294L324.397 191.094L323.277 190.434L320.087 190.914L319.477 191.244L318.547 190.764L318.037 190.874L317.267 191.884L316.977 191.964L316.617 191.354L316.087 192.174L315.657 192.094L314.327 190.924L313.307 191.324L312.807 190.944L312.837 190.104L310.557 189.574L310.267 188.864L308.197 187.684L307.647 185.214L307.017 184.054L305.047 183.364L300.087 182.894L297.427 183.334L295.357 183.144L291.707 181.824L294.697 178.324L295.117 177.964L295.177 177.844L295.327 177.214L295.077 177.234L295.707 176.394L295.967 174.294L298.277 171.504L298.597 170.354L298.647 169.334L298.107 168.064L298.927 165.914L298.867 165.624L298.687 165.074L297.537 164.604L297.167 163.064L297.357 162.464L298.767 160.714L299.417 158.034L298.237 156.784L297.877 155.674L297.347 155.024L303.647 149.654L306.557 146.194L306.737 146.444L307.107 145.954L306.667 146.064L311.977 141.674L316.157 137.054L316.557 136.424L317.437 135.494H317.887L318.207 134.854L317.917 134.944L317.877 135.334L317.357 135.384L318.937 133.494L319.527 133.184L319.557 132.854L320.347 131.484L322.247 129.344L322.367 129.044L322.497 128.754L322.637 128.374L321.757 128.784L322.187 128.334L322.927 128.124L322.277 127.134L322.447 126.704L323.927 125.014L325.117 124.374L324.987 123.964L325.467 123.334L326.827 122.374L327.187 122.474L327.407 122.834L327.207 123.064L327.637 123.414L329.297 123.104L331.177 121.984L332.847 120.404L333.467 120.124L334.717 117.984L338.137 117.094L339.327 116.234L341.277 115.834L345.967 113.764Z" fill="white"/>
<path d="M346.644 142.814L347.474 142.844L348.084 144.574L349.734 146.934L349.924 148.064L353.424 149.144L354.484 150.064L355.754 150.224L356.334 150.614L356.874 151.274L358.264 154.494L359.324 154.904L359.844 155.744L360.864 158.304L361.944 160.084H362.314L362.624 159.614L363.434 160.164L364.694 160.054L366.434 158.964L366.394 158.144L366.764 157.894L367.264 158.284L368.384 157.664L371.304 157.514L373.014 159.914L375.434 160.194L376.734 161.344L377.864 161.734L378.564 162.764L380.024 162.924L380.574 163.714L380.634 166.204L380.254 167.614L381.024 171.134L380.624 172.734L381.064 176.584L382.164 178.424L383.454 178.974L383.894 180.714L383.024 181.674L382.914 182.344L383.364 182.874L383.214 183.654L385.134 186.004L384.824 186.454L383.984 186.554L383.794 187.264L384.174 188.854L383.534 189.444L381.734 189.154L379.264 189.724L377.744 188.894L376.734 188.834L375.874 188.994L374.744 189.674L374.124 190.534L374.114 193.364L374.464 194.054L376.024 194.984L375.774 196.554L376.454 196.964L376.864 196.654L378.814 196.284L379.554 196.424L379.774 197.274L379.644 198.704L378.424 202.164L378.274 203.424L378.354 204.764L378.784 206.004L376.534 206.674L375.554 207.324L373.564 210.074L371.044 210.634L367.544 210.824L365.684 211.724L362.594 214.964L361.574 215.594L360.124 215.984L357.894 216.014L355.744 217.064L352.614 220.004L349.914 221.464L349.754 221.754L350.104 222.324L349.824 223.504L346.644 226.304L344.074 227.804L343.564 227.664L343.704 226.244L342.494 225.244L339.314 226.744L337.974 227.114L334.034 227.784L332.214 227.314L331.394 227.524L330.134 228.834L323.964 228.684L322.844 228.934L321.524 230.184L320.184 230.344L319.194 226.764L318.474 226.024L316.964 225.634L316.564 224.664L315.904 224.514L315.104 224.584L313.614 226.344L312.544 227.084L308.424 228.914L307.524 230.424L306.574 230.884L303.104 230.354L301.124 231.224L299.234 231.264L298.044 231.984L295.964 231.764L295.074 230.964L292.574 231.234L291.894 231.704L290.864 231.854L289.554 231.144L288.284 230.854L288.114 230.594L288.384 229.564L287.994 229.284L286.604 231.274L285.514 231.774L283.584 230.964L282.694 231.264L280.624 231.194L280.784 230.924L279.924 228.684L277.074 225.804L276.824 225.254L276.934 224.644L277.544 223.344L277.184 222.494L277.154 221.244L276.904 221.064L277.224 219.584L276.254 219.004L276.574 218.214L276.374 217.554L276.744 216.674L276.624 216.354L277.294 215.164L277.004 214.834L277.074 213.154L277.964 211.204L278.104 209.444L277.964 208.014L277.544 206.984L277.224 206.644L276.294 206.494L276.584 205.354L277.864 204.034L278.854 202.104L279.064 202.214L279.194 201.224L278.604 201.134L280.194 199.804L282.144 197.004L282.634 195.474L282.474 192.644L284.134 191.314L285.984 188.464L287.064 187.514L288.484 185.454L291.724 181.804L295.374 183.124L297.444 183.314L300.104 182.874L305.064 183.344L307.034 184.034L307.664 185.194L308.214 187.664L310.284 188.844L310.574 189.554L312.854 190.084L312.824 190.924L313.324 191.304L314.344 190.904L315.674 192.074L316.104 192.154L316.634 191.334L316.994 191.944L317.284 191.864L318.054 190.854L318.564 190.744L319.494 191.224L320.104 190.894L323.294 190.414L324.414 191.074L325.144 192.274L327.124 192.934L329.874 191.764L331.134 192.674L331.644 192.774L332.754 192.354L331.524 190.664L330.904 190.524L330.204 188.184L331.964 186.024L332.124 185.344L333.044 184.174L333.284 182.664L334.694 180.134L336.354 178.664L337.774 177.814L337.924 175.844L338.564 175.944L339.044 176.624L339.094 175.824L338.944 175.174L337.404 173.874L335.104 172.604L333.794 172.364L332.274 171.024L330.664 168.804L329.484 165.894L329.354 164.974L329.644 163.504L332.574 162.564L333.374 161.264L334.494 160.784L336.154 160.794L336.384 160.444L336.354 158.904L336.974 158.384L339.344 158.344L339.864 157.724L341.004 157.204L341.564 156.374L342.534 155.674L343.874 153.754L344.314 153.954L344.544 153.744L344.804 152.464L344.594 151.354L343.524 149.714L343.774 148.974L343.524 148.504L344.914 147.424V146.704L345.244 146.294L344.784 145.204L345.004 144.074L345.914 143.044L346.644 142.814Z" fill="white"/>
<path d="M421.815 145.244L422.255 145.424L424.595 145.054L426.295 146.044L426.955 147.424L427.605 147.744L428.375 147.584L429.205 148.664L429.985 149.064L430.375 149.854L430.875 152.444L431.865 152.514L433.135 151.444L434.265 151.644L435.855 152.754L436.195 153.314L438.435 153.524L438.835 154.984L440.225 156.974L441.185 159.184L440.345 160.414L440.225 161.474L439.545 162.494L440.005 163.314L439.125 165.324L440.115 166.164L439.915 167.264L439.285 167.704L437.365 167.244L435.045 167.684L434.155 168.124L433.875 168.424L433.675 169.734L433.105 170.474L432.355 171.184L430.985 171.254L430.135 172.074L430.105 173.624L429.115 174.314L429.315 175.864L428.455 176.244L428.195 176.874L428.535 177.614L429.385 177.904L429.735 179.234L429.465 179.984L429.385 181.354L429.695 182.084L429.685 182.924L429.285 183.574L427.445 184.974L427.295 185.544L425.395 185.464L423.985 187.334L420.385 188.924L420.285 190.804L419.865 191.794L418.455 191.804L417.715 192.084L416.145 191.794L414.685 192.714L413.745 194.014L407.655 196.404L401.925 199.964L399.585 200.754L397.675 200.254L396.505 200.804L394.685 201.064L393.585 202.444L393.445 203.174L394.045 204.824L393.505 205.334L392.705 207.684L391.925 207.504L391.045 207.864L390.575 207.134L388.695 207.364L387.625 207.904L381.445 206.064L378.805 206.024L378.375 204.784L378.295 203.444L378.445 202.184L379.665 198.724L379.795 197.294L379.565 196.444L378.835 196.304L376.885 196.664L376.475 196.974L375.795 196.564L376.045 195.004L374.485 194.064L374.145 193.374V190.544L374.765 189.684L375.895 189.004L376.765 188.844L377.765 188.904L379.285 189.734L381.745 189.164L383.555 189.454L384.195 188.854L383.805 187.264L383.995 186.554L384.835 186.454L385.145 186.004L383.225 183.654L383.375 182.884L382.925 182.344L383.035 181.674L383.895 180.714L383.455 178.974L382.165 178.424L381.055 176.584L380.615 172.744L381.015 171.144L380.245 167.624L380.625 166.204L380.565 163.714L382.705 161.514L384.485 156.694L384.735 152.644L385.175 151.434L385.015 150.914L385.895 151.164L386.745 152.094H387.585L389.415 151.434L390.655 150.334L392.235 150.134L392.545 149.514L392.955 149.434L394.175 149.994L396.075 150.064L397.145 150.614L398.905 150.814L399.075 150.314L398.575 149.824L398.815 149.434L399.325 149.314L399.915 148.724L401.835 148.384L403.965 148.784L405.505 149.494L407.615 149.274L408.335 149.484L412.385 149.394L415.165 148.334L418.935 147.954L420.325 147.104L420.835 146.124L421.815 145.244Z" fill="white"/>
<path d="M429.466 179.984L430.966 179.614L433.466 177.824L434.406 177.874L439.606 181.424L440.046 182.004L439.026 184.124L430.356 193.304L429.906 194.684L430.386 195.174L433.116 195.564L435.836 194.924L441.136 196.374L441.736 196.854L442.726 198.694L445.486 200.374L448.436 201.284L449.386 201.884L450.526 203.154L450.996 204.234L451.256 205.594L451.076 208.224L450.156 211.584L448.566 215.304L447.706 221.974L446.566 227.564L446.646 228.894L447.356 232.284L449.376 235.804L450.496 237.204L450.686 238.094L452.576 240.684L452.606 247.894L452.186 250.154L452.286 255.674L452.046 258.984L452.546 259.944L452.906 261.794L453.896 263.174L454.426 263.454L455.746 267.274L454.986 267.514L451.106 270.454L450.646 271.244L449.386 272.034L447.806 274.684L448.066 276.384L447.536 277.664L439.846 288.604L439.196 288.874L439.476 289.324L439.046 290.274L438.776 290.364L438.296 289.804L437.236 289.834L436.336 289.284L435.536 289.154L434.096 287.634L433.116 288.494L431.796 288.564L431.986 287.264L432.736 286.144L432.776 285.614L431.916 284.984L429.856 284.374L427.436 284.664L426.816 285.184L423.866 285.434L421.596 286.194L420.806 286.164L419.856 286.634L415.956 285.774L413.846 285.974V286.184L412.836 286.514L411.236 286.294L408.036 286.414L407.576 286.694L407.416 287.184L407.086 286.754L407.226 285.544L406.836 282.754L407.356 278.894L407.166 275.304L407.966 271.574L407.776 265.134L406.206 261.414L400.416 252.274L398.786 250.524L396.926 249.514L395.916 249.574L395.086 249.874L393.946 250.924L392.086 253.504L391.026 253.804L389.076 254.934H387.186L383.586 253.274L382.026 253.034L381.456 253.234L379.726 255.114L378.026 259.024L377.386 262.264L376.496 262.914L370.676 262.654L368.766 262.304L367.656 261.184L367.286 258.804L366.946 258.104L366.356 257.384L363.396 255.464L361.716 256.414L360.236 257.714L359.116 259.894L358.996 260.744L360.126 266.234L360.066 266.874L359.356 267.724L358.746 268.074L356.616 267.984L353.836 267.154L352.376 267.364L350.756 268.424L348.196 271.094L346.356 271.554L345.786 271.964L344.326 271.694L341.736 270.584L337.436 267.514L336.386 267.284L335.556 267.474L334.346 268.504L333.136 271.504L332.306 272.634L331.556 273.084L330.366 273.134L324.166 270.084L323.136 269.814L321.476 269.744L320.166 270.094L318.816 271.304L318.886 273.444L319.556 274.024L321.126 273.414L322.156 273.474L322.376 273.794L322.176 275.154L320.746 276.654L319.606 278.434L319.226 279.914L319.096 285.124L319.866 286.944L321.116 287.864L321.436 288.674L320.956 289.554L312.586 292.034L311.536 292.584L308.926 292.644L306.526 292.284L306.006 292.574L305.096 293.194L303.816 295.824L302.366 301.944L302.206 301.284L300.976 299.694L300.386 298.194L298.976 297.424L297.336 297.484L296.276 297.024L294.716 297.434L293.946 298.954L292.536 300.114L289.606 300.664L287.226 301.924L284.826 302.554L284.246 302.274L282.796 302.494L282.436 302.304L281.476 300.574L280.246 299.504L278.826 299.374L277.876 299.664L276.716 301.044L275.156 305.424L274.706 305.854L273.286 306.454L271.746 306.024L270.336 306.484L266.326 309.444L265.196 309.594L264.666 309.294L264.226 308.524L263.306 308.254L261.496 308.624L257.346 308.124L256.076 308.394L255.356 308.244L253.566 306.844L254.146 305.364L254.846 305.014L254.976 304.244L257.316 301.564L257.726 300.744L259.046 299.584L260.706 298.744L262.096 297.404L263.366 294.634L264.366 293.164L265.696 291.924L266.506 290.094L267.316 289.254L267.596 288.674L267.456 287.904L267.806 287.664L267.756 287.234L268.146 287.004L268.006 286.524L268.316 286.374L268.336 285.754L268.846 285.404L269.296 284.284L270.516 282.784L270.916 281.674L276.646 276.024L276.896 275.294L278.266 273.434L278.206 272.924L279.246 271.384L279.306 270.694L281.846 265.324L282.666 264.234L282.796 264.134L282.866 263.524L283.826 260.184L283.836 258.634L285.156 251.944L285.286 251.714L285.456 251.674L285.156 251.104L285.536 250.314L285.366 249.644L284.916 248.994L284.776 249.224L284.436 249.184L284.236 249.234L283.706 248.784L283.676 248.494L283.156 248.104L282.496 245.704L282.106 245.324L281.596 243.884L280.126 243.444L279.886 242.444L278.486 240.854L276.896 240.094L275.296 240.254L274.466 239.944L274.906 237.254L275.966 235.924L275.896 235.394L277.646 231.814L277.606 230.954L277.336 230.644L276.986 230.814L276.836 230.374L277.566 228.424L277.086 227.564V225.794L279.936 228.674L280.796 230.914L280.636 231.184L282.706 231.254L283.596 230.954L285.526 231.764L286.616 231.264L288.006 229.274L288.396 229.554L288.126 230.584L288.296 230.844L289.566 231.134L290.876 231.844L291.906 231.694L292.586 231.224L295.086 230.954L295.976 231.754L298.056 231.974L299.246 231.254L301.136 231.214L303.116 230.344L306.586 230.874L307.536 230.414L308.436 228.904L312.556 227.074L313.626 226.334L315.116 224.574L315.916 224.504L316.576 224.654L316.976 225.624L318.486 226.014L319.206 226.754L320.196 230.334L321.536 230.174L322.856 228.924L323.976 228.674L330.146 228.824L331.406 227.514L332.226 227.304L334.046 227.774L337.986 227.104L339.326 226.734L342.506 225.234L343.716 226.234L343.576 227.654L344.086 227.794L346.656 226.294L349.836 223.494L350.116 222.314L349.766 221.744L349.926 221.454L352.626 219.994L355.756 217.054L357.906 216.004L360.136 215.974L361.586 215.584L362.606 214.954L365.696 211.714L367.556 210.814L371.056 210.624L373.576 210.064L375.566 207.314L376.546 206.664L378.796 205.994L381.436 206.034L387.626 207.884L388.696 207.334L390.576 207.114L391.046 207.844L391.926 207.484L392.706 207.664L393.516 205.304L394.056 204.794L393.456 203.144L393.606 202.414L394.696 201.034L396.516 200.774L397.686 200.224L399.606 200.714L401.946 199.924L407.676 196.364L413.766 193.974L414.696 192.674L416.156 191.744L417.726 192.044L418.466 191.764L419.876 191.754L420.296 190.764L420.396 188.894L423.996 187.294L425.406 185.434L427.306 185.514L427.456 184.944L429.296 183.534L429.696 182.884L429.706 182.044L429.386 181.304L429.466 179.984Z" fill="white"/>
<path d="M202.236 344.954L199.176 346.254L198.946 346.344L197.866 346.744L191.056 350.304L185.336 351.714L184.436 351.704L172.566 354.204L163.026 355.424L161.436 355.894L159.416 355.984L158.886 356.474L158.666 356.974L157.826 357.364L157.576 358.074L156.926 358.774L155.946 362.174L155.226 362.744L154.366 364.614L153.576 365.294L151.976 365.914L149.926 367.214L148.746 370.134L147.536 375.144L145.586 380.594L144.806 381.974L144.686 382.834L140.736 389.584L140.426 391.884L140.216 392.454L140.386 392.954L139.916 394.034L139.926 394.244L138.296 398.244L137.316 401.964L136.106 405.024L134.466 407.964L132.826 409.744L130.526 411.594L121.326 417.094L119.126 418.984L115.206 420.514L111.326 420.934L110.466 422.704L108.966 424.614L105.816 427.164L102.946 427.764L99.9256 431.824L99.2056 433.434L99.8056 434.864L99.7356 437.304L99.3356 439.344L96.7156 445.214L94.9256 447.814L94.0456 448.534L92.9956 452.874L92.1856 454.824L92.2156 456.274L91.7556 457.924L90.8756 459.684L88.3556 463.184L88.1356 465.044L86.7856 468.334L86.8856 470.124L86.1256 472.144L86.4656 473.944L86.1256 475.454L86.4556 476.494L86.2956 477.274L86.7756 477.584L87.1456 478.614L86.9456 481.704L86.5956 483.034L86.7956 484.504L84.7356 490.314L84.5356 491.474L84.7356 493.094L82.3556 495.214L80.8256 495.994L80.5856 497.394L80.2656 497.864L83.3456 498.344L88.5156 500.434L89.7056 501.224L91.9556 504.474L93.1456 505.144L94.3556 505.414L99.2056 504.624L107.226 502.584L115.396 502.144L125.416 504.454L128.326 505.634L130.076 506.044L136.776 504.224L139.706 502.864L145.066 500.964L151.716 500.364L162.946 502.564L171.176 505.394L174.526 505.404L183.456 503.504L189.756 503.494L191.766 503.994L194.116 503.484L194.106 438.984L177.356 439.054L176.826 435.244L176.136 433.124L175.766 430.534L175.076 428.004L174.236 426.724L174.016 424.884L172.656 421.114L172.316 419.564L172.416 417.884L173.186 414.944L175.066 411.124L178.366 407.164L182.136 403.484L184.446 400.564L187.036 393.904L189.036 390.204L190.756 382.894L192.306 378.904L197.326 371.474L200.236 368.884L202.196 367.694L210.136 367.724L209.536 364.464L210.816 364.124L214.056 364.174L210.836 360.354L209.056 357.484L207.786 353.694L205.126 350.934L202.796 344.764L202.616 344.894L202.236 344.954Z" fill="white"/>
<path d="M250.876 309.744L246.496 312.774L240.436 316.304L232.046 320.764L230.726 321.204L229.426 322.104L229.406 322.564L227.936 324.474L227.196 324.844L225.926 326.284L224.216 327.524L222.646 329.574L220.646 331.184L218.906 333.354L218.936 333.774L217.486 335.124L216.796 336.584L215.446 337.784L214.686 339.494L212.346 341.024L212.156 341.474L212.526 341.954L211.946 341.784L211.916 341.464L211.606 341.354L208.376 342.734L208.156 342.784L206.746 343.194L202.796 344.764L205.126 350.934L207.786 353.694L209.056 357.484L210.836 360.354L214.056 364.174L210.816 364.124L209.536 364.464L210.136 367.724L202.196 367.694L200.236 368.884L197.326 371.474L192.306 378.904L190.756 382.894L189.036 390.204L187.036 393.904L184.446 400.564L182.136 403.484L178.366 407.164L175.066 411.124L173.186 414.944L172.416 417.884L172.316 419.564L172.656 421.114L174.016 424.884L174.236 426.724L175.076 428.004L175.766 430.534L176.136 433.124L176.826 435.244L177.356 439.054L194.106 438.984L320.616 438.914L320.866 323.334L328.766 319.744L334.036 314.614L339.486 310.294L340.506 310.264L343.256 308.134L347.616 305.554L347.896 304.854L348.806 303.854L352.166 301.884L354.386 299.924L358.276 298.104L359.046 297.904L359.526 298.064L360.516 296.544L360.456 295.524L361.486 294.704L365.466 295.204L368.616 294.484L369.416 294.554L369.996 294.044L371.526 293.594L375.156 289.964L378.576 288.344L380.176 288.354L383.416 289.614L384.676 289.164L385.606 289.574L387.486 289.444L388.416 289.984L389.736 290.084L390.586 290.724L392.736 290.984L393.506 290.764L394.876 289.084L395.866 288.674L398.276 288.474L398.756 288.044L402.216 288.424L402.706 287.804L404.726 286.654L405.516 286.474L407.116 286.734L407.256 285.524L406.866 282.734L407.386 278.864L407.196 275.284L407.996 271.554L407.796 265.104L406.226 261.394L400.436 252.254L398.806 250.504L396.936 249.494L395.926 249.554L395.096 249.864L393.946 250.904L392.086 253.484L391.026 253.794L389.076 254.924H387.186L383.586 253.264L382.016 253.024L381.456 253.234L379.716 255.114L378.016 259.024L377.376 262.264L376.476 262.914L370.656 262.654L368.756 262.304L367.646 261.184L367.286 258.804L366.936 258.104L366.356 257.384L363.386 255.464L361.706 256.424L360.216 257.714L359.096 259.904L358.976 260.744L360.106 266.234L360.036 266.884L359.326 267.734L358.716 268.074L356.586 267.994L353.816 267.164L352.356 267.374L350.726 268.434L348.176 271.104L346.336 271.564L345.766 271.974L344.306 271.694L341.716 270.584L337.416 267.514L336.356 267.284L335.526 267.464L334.316 268.504L333.106 271.504L332.276 272.634L331.536 273.084L330.336 273.124L324.136 270.074L323.106 269.794L321.446 269.724L320.126 270.074L318.786 271.284L318.856 273.424L319.526 274.004L321.096 273.394L322.126 273.454L322.346 273.774L322.156 275.134L320.726 276.634L319.576 278.414L319.196 279.894L319.076 285.104L319.846 286.924L321.096 287.844L321.416 288.654L320.936 289.544L312.566 292.024L311.506 292.574L308.906 292.634L306.506 292.274L305.976 292.564L305.076 293.194L303.786 295.824L302.336 301.944L302.176 301.284L300.946 299.694L300.366 298.204L298.956 297.434L297.306 297.484L296.246 297.034L294.686 297.444L293.916 298.964L292.506 300.124L289.576 300.664L287.196 301.924L284.796 302.564L284.216 302.284L282.756 302.504L282.396 302.314L281.436 300.584L280.206 299.524L278.786 299.384L277.836 299.674L276.676 301.054L275.116 305.434L274.666 305.864L273.246 306.454L271.706 306.034L270.296 306.484L266.286 309.444L265.156 309.594L264.626 309.294L264.196 308.524L263.266 308.254L261.456 308.624L257.316 308.114L256.046 308.384L255.326 308.234L253.536 306.834L253.236 306.884L250.876 309.744Z" fill="white"/>
<path d="M80.2652 497.864L83.3552 498.344L88.5152 500.434L89.7152 501.224L91.9652 504.474L93.1552 505.144L94.3652 505.414L99.2152 504.624L107.235 502.584L115.405 502.134L125.425 504.444L128.325 505.624L130.075 506.044L136.775 504.214L139.705 502.864L145.065 500.954L151.715 500.354L162.955 502.564L171.175 505.384L174.525 505.394L183.455 503.484H189.755L191.775 503.974L194.115 503.464L194.265 544.694L165.395 547.454L161.955 549.864L157.905 554.624L154.545 559.964L153.035 563.604L151.025 572.144L150.745 574.394L156.215 631.474L81.7852 630.954L7.38516 631.494L6.60516 631.644L4.19516 640.644L2.79516 643.244L2.45516 645.674L1.78516 647.984L1.77516 651.344L2.33516 653.994L2.55516 654.094L2.32516 654.204L1.16516 651.924L0.655156 651.934L0.285156 651.164L1.31516 649.534L0.635156 648.034L1.83516 644.864L1.80516 641.684L2.59516 638.334L2.34516 637.424L3.22516 633.094L3.05516 631.614L4.96516 622.204L4.83516 620.204L5.26516 618.094L4.95516 615.744L6.14516 614.074L6.13516 613.694L5.58516 613.544L5.82516 611.334L8.04516 608.414L8.30516 607.544L8.16516 606.674L9.12516 604.774L11.5952 597.684L12.8552 597.104L13.0352 596.684L12.7952 596.064L13.0552 595.434L15.0152 593.904L15.6552 592.844L16.3652 592.254L17.4552 592.324L18.0852 593.344L19.1652 593.244L21.4652 592.444L23.4552 591.094L23.4352 590.074L24.1152 589.544L24.7952 588.314L25.0852 585.514L25.5752 584.624L25.5452 583.854L26.0252 582.964L27.5952 581.944L28.6052 580.704L28.7852 578.794L29.2552 577.814L29.2152 574.724L29.4852 573.394L31.3352 570.204L31.2552 569.614L30.7152 569.464L31.3052 567.324L31.8852 567.684L34.1352 566.784L35.7052 565.264L36.6952 563.634L36.8952 562.034L36.6552 561.004L36.1152 560.174L35.3752 559.684L34.6752 559.814L34.2752 560.244L34.6952 559.014L35.0752 558.184L36.0452 557.544L37.5552 555.634L37.9352 554.834L37.8752 553.854L39.9852 550.644L39.7352 549.904L41.9152 547.924L42.9952 546.424L44.1052 543.954L43.2052 542.494L44.5152 541.754L45.2352 540.564L45.8252 540.214L46.9952 537.624L47.5952 537.414L48.0352 536.874L48.5752 535.704L49.7852 534.224L50.5752 532.504L51.8852 531.424L52.3352 530.164L53.1052 529.644L52.9752 529.274L51.8952 530.084L52.2852 528.194L53.2652 526.664L52.8752 525.574L53.7052 523.224L53.1052 523.534L52.4052 524.244L51.7852 524.394L51.8952 525.374L51.3552 526.394L51.2352 526.084L51.2152 525.854L51.0752 525.464L50.4952 525.864L49.6852 527.574L48.7552 528.174L48.5352 528.204L48.4552 527.844L47.9152 528.234L46.2652 530.574L45.1552 534.634L43.9052 535.714L43.8152 535.814L42.9952 537.054L42.9152 537.604L42.2852 537.424L42.0352 536.694L42.8452 535.434L43.8052 534.554L43.9152 533.504L45.1652 532.244L45.0952 531.704L45.8952 529.724L48.3052 526.834L49.5952 525.844L49.6852 525.434L51.8152 523.974L55.1252 522.274L57.7352 520.414L58.3452 519.534L58.0652 519.104L58.4752 518.334L59.9452 517.314L60.4852 516.244L61.1352 515.844L64.3951 512.264L67.6352 509.734L70.9652 505.064L73.9052 501.984L75.5352 501.054L79.4152 499.504L80.0051 498.974L80.2652 497.864Z" fill="white"/>
</g>
<defs>
<clipPath id="clip0_135_88">
<rect width="612.514" height="654.535" fill="white"/>
</clipPath>
</defs>
</svg>
