<svg xmlns="http://www.w3.org/2000/svg" width="839" height="897" fill="none"><g clip-path="url(#a)"><mask id="b" fill="#fff"><path d="m609.111 16.437.205.63.617-.014.383 1.794 1.89.576-.643 2.972 1 7.396.78 1.85 2.384-.165-.548 1.466.767 3.849 1.602 3.451.713-.137.438.74.863-.178 1.397.63 1.055 1.74 2.451 1.753 1.302 2.616.095.329.863 1.52 1.658.48.712-.26 4.616 5.396 1.589.85 1.561.205 1.808 2.109 1.973 1.15.63.795 5.218 2.11 1.726-.617.959 1.219.89.37 1.302-.165 3.547 1.069 1.562-.082 1.986.945-1.493 1.726-.233 1.849.904.945.246 3.232-1.273 3.301-3.48 2.274-5.259.931-5.507 4.808-1.136.055-.863.698-1.028 1.781-1.109.165-2.041 1.054-1.575-.068-3.849 1.013-1.383-.438-.863.575h-1.219l-3.397 1.603-1.548 1.78-3.548-.93-4.451 1.903-5.671-1.192-2.547-1.465-2.069-3.301-1.52-.808-.726-1.082-.37-.124-1.685 1.206-1.739-.356-2.219.095-.89-.589-1.863-2.78-1.986-.932-1-1.123-2.329-.342-1.164-1.356-2.849-.233-3.15-1.233-7.205-1.301-3.465.205-4.972-.479 4.177-13.095.712-.287.562-.945 3.328-11.588 1.028-1.726.534-2.054 1.192-1.11 1.219-3.452.26-2.41.315-.603 1.315-6.465 1.739-6.26.315-.082-.027-.863 1.178-.849 2.26.315.918-.288 2.191.836.014.466 1.26.26 1.52-1.438.042-1.247 1.397-.342.191-.48.63.137 1.028-.643 1.794.835 1.164-.589 1.507.356.918-.287 1.123-.918.109.315.425-.11 2.356-2.643.699-.082.547-1.329.329.288.575-.658h.48l.712.699.219-.397 1.26-.041z"/></mask><path stroke="#fff" stroke-width="2" d="m609.111 16.437.205.63.617-.014.383 1.794 1.89.576-.643 2.972 1 7.396.78 1.85 2.384-.165-.548 1.466.767 3.849 1.602 3.451.713-.137.438.74.863-.178 1.397.63 1.055 1.74 2.451 1.753 1.302 2.616.095.329.863 1.52 1.658.48.712-.26 4.616 5.396 1.589.85 1.561.205 1.808 2.109 1.973 1.15.63.795 5.218 2.11 1.726-.617.959 1.219.89.37 1.302-.165 3.547 1.069 1.562-.082 1.986.945-1.493 1.726-.233 1.849.904.945.246 3.232-1.273 3.301-3.48 2.274-5.259.931-5.507 4.808-1.136.055-.863.698-1.028 1.781-1.109.165-2.041 1.054-1.575-.068-3.849 1.013-1.383-.438-.863.575h-1.219l-3.397 1.603-1.548 1.78-3.548-.93-4.451 1.903-5.671-1.192-2.547-1.465-2.069-3.301-1.52-.808-.726-1.082-.37-.124-1.685 1.206-1.739-.356-2.219.095-.89-.589-1.863-2.78-1.986-.932-1-1.123-2.329-.342-1.164-1.356-2.849-.233-3.15-1.233-7.205-1.301-3.465.205-4.972-.479 4.177-13.095.712-.287.562-.945 3.328-11.588 1.028-1.726.534-2.054 1.192-1.11 1.219-3.452.26-2.41.315-.603 1.315-6.465 1.739-6.26.315-.082-.027-.863 1.178-.849 2.26.315.918-.288 2.191.836.014.466 1.26.26 1.52-1.438.042-1.247 1.397-.342.191-.48.63.137 1.028-.643 1.794.835 1.164-.589 1.507.356.918-.287 1.123-.918.109.315.425-.11 2.356-2.643.699-.082.547-1.329.329.288.575-.658h.48l.712.699.219-.397 1.26-.041z" mask="url(#b)"/><mask id="c" fill="#fff"><path d="m564.912 75.842 4.972.479 3.465-.206 7.205 1.302 3.15 1.233 2.849.232 1.164 1.356 2.329.343 1 1.123 1.986.931 1.863 2.78.89.59 2.219-.096 1.74.356 1.684-1.205.37.123.726 1.082 1.521.808 2.068 3.301 2.548 1.466 5.67 1.192 4.452-1.904 3.547.931-.616 2.041-.014 2.26-.78 3.507.068.712.794.397-.287.945-.603.507-1.411-.26-1.739.726-.274 1.219-.658.589-.863.643-1.903.439-.37.685.041 1.493-.767.671-1.466.342-.767 1.466-3.452 2.068-2.355.63-.425.877.986 1.137-.425.767.261 1 .685.15.972-.575.712.329-.178.726v1.548l1.356 1.972-.685.616-1.479-.027-.205 2.397-1.137 1.37-1.26.685-.343.794 1.028 1.425-3.137.904-1.973 2.561-.767-.247-.465-1.068.397-.959-.123-1.137-.822-.561-3.164-.548-1.849.37-1.178-.37-.329-.945 1.151-2.206-.672-.835-1.849-.178-.671-.959-1.849-.178-1.877 1.425.11 1.63-.644.698-.726.452-1.904.288-.506.452.575 1.493 1.041-.151.63.356.89 3.274-2.89-.082-2.548-.781-2.219-.027-9.546-2.932-9.095.754-5.192-1.288-4.821 2.164-.589-.383-2.164-.082-.891-.466-.999-1.507-2.507.219-.712-1.328 1.684-4.315.206-.589 7.89-12.903 6.971-14.245 4.534-10.834.877.246-.507 1.438.151.562 1.191.424.178.48.493-1.028.466-.136-.041-1.356-1.739-.562-.343-.438-.424.11z"/></mask><path stroke="#fff" stroke-width="2" d="m564.912 75.842 4.972.479 3.465-.206 7.205 1.302 3.15 1.233 2.849.232 1.164 1.356 2.329.343 1 1.123 1.986.931 1.863 2.78.89.59 2.219-.096 1.74.356 1.684-1.205.37.123.726 1.082 1.521.808 2.068 3.301 2.548 1.466 5.67 1.192 4.452-1.904 3.547.931-.616 2.041-.014 2.26-.78 3.507.068.712.794.397-.287.945-.603.507-1.411-.26-1.739.726-.274 1.219-.658.589-.863.643-1.903.439-.37.685.041 1.493-.767.671-1.466.342-.767 1.466-3.452 2.068-2.355.63-.425.877.986 1.137-.425.767.261 1 .685.15.972-.575.712.329-.178.726v1.548l1.356 1.972-.685.616-1.479-.027-.205 2.397-1.137 1.37-1.26.685-.343.794 1.028 1.425-3.137.904-1.973 2.561-.767-.247-.465-1.068.397-.959-.123-1.137-.822-.561-3.164-.548-1.849.37-1.178-.37-.329-.945 1.151-2.206-.672-.835-1.849-.178-.671-.959-1.849-.178-1.877 1.425.11 1.63-.644.698-.726.452-1.904.288-.506.452.575 1.493 1.041-.151.63.356.89 3.274-2.89-.082-2.548-.781-2.219-.027-9.546-2.932-9.095.754-5.192-1.288-4.821 2.164-.589-.383-2.164-.082-.891-.466-.999-1.507-2.507.219-.712-1.328 1.684-4.315.206-.589 7.89-12.903 6.971-14.245 4.534-10.834.877.246-.507 1.438.151.562 1.191.424.178.48.493-1.028.466-.136-.041-1.356-1.739-.562-.343-.438-.424.11z" mask="url(#c)"/><mask id="d" fill="#fff"><path d="m685.808 58.419.644.438-.603.672.37.232-.123.562 1.192 1.41 2.575.823 2.26-.384.424 1.795-.698 4.04.507 2.233.013 3.287.411.59-.192 7.629.74.41.11 1.165.534.233 2.315-.288.164.37-.808.685.438.63 2.767-.343 2.109 1.356 2.247-.287.589.657-.589.904.616 1.192-.192 1.89-1.232 2.123.479.822 1.301.671.082.74-.808.383-1.945-.013-.342.356.575 2.643-.192.877-1.191 1.096.205.438 2.657-.931.877 1.013.082 1.356.425.521 2.602 1.027.945-.068 1.219-4.068 1.069-.439.15-1.397 1.754.548 1.561-1.822 3.424-1.959.795-1.63-.055-1.753.671-.438 6.616.11 1.109.63 1.836 2.451 1.685-.054 2.547 1.493.74.958 2.123.74.178.671-.904 2.384 1.986 1.041.151.89-.521.233-2.849-1.247-3.109 1.493.205 1.959-.89 3.465-1.849.124.301 1.315-.356.712-1.164.274-.671 1.137-3.26 1.616-.479 1.055.178.63-.521.52.219 1.192.932 1.233 1.547 1.616 2.411 1.603.329 6.314 2.191 1.877.055.876-1.972 4.301-1.384.891-5.136 1.917-.479.918-.206 2.945 2.383 1.835 3.63 5.013 1.384 3.165.123 2.972-4.643-.836-2.014-.726-3.78-2.766-4.452-.973-.781-.438-2.397-2.89-1.219-.37-.397-.589-1.411-.63-.698-1.165-.685-.027-.699.192-.794 2.205-1.329.794-2.794 5.068-2.068 1.672-1.959.739-.425 1-1.849 1.986-1.931 1.247-.342 1.849-.535.287-1.109 1.795-4.342 1.917-1.781 1.206-5.479.479-2.123-2.684 1.836-2.795.123-1.013-1.342-.808-1.069-.042-.986.137-1.863 1.288-1.397-2.37.233-4.301 1.26-2.082 2.712-1.657-.616-.425-3.438.165-.644-.562-.808-.082-.726-2.808-.274-.288-1.411-.027-1.424-1.014-1.301.014-3.767 2.74-.74-.165-1.904-1.534-1.808-.233-1.876-.822-1.534-1.547.055-4.411-.165-.863-1.109-1.342.15-.945-.712-.521-1.904-.109-1.465-1.178-2.041-.124-.562-.589-1.876-.411-1.206-2.273.247-1.178-.37-1.685-1.233.397-.835-.137.205-1.931-.26-.863-.74-.247-1.26.685-2.52.014-.027-1.082-.877-.562.164-.589 1.343-.191-.877-1.315-.63-.069-.959.945-.931.26-.329-.547.781-.891-.603-1.013-4.356-.37-.575.904-.548.041-.192-.466.343-.616-.548-.041-1.603 1.191-.52-.15.068-1.11-.589-.438-2.506-.438-2.164.835-1.096 1.082-1.178-.37-.479.384-1.713.082-2.451.945-.891-1.274-1.876.726-2.178-2.342.178-.726-.712-.329-.973.576-.685-.151-.26-1 .425-.767-.986-1.137.424-.876 2.356-.63 3.452-2.069.767-1.465 1.465-.343.767-.671-.041-1.493.37-.685 1.904-.438.863-.644.657-.589.274-1.219 1.74-.726 1.411.26.602-.507.288-.945-.794-.397-.069-.712.781-3.507.014-2.26.616-2.04 1.548-1.781 3.397-1.603h1.219l.863-.575 1.383.438 3.849-1.013 1.575.068 2.041-1.055 1.109-.164 1.028-1.78.863-.7 1.136-.054 5.507-4.808 5.259-.931 3.479-2.274 1.274-3.3-.246-3.233-.904-.946.233-1.849 1.493-1.726 1.342.452 1.15-.287 2.576.698.767-.616.78-.069.548-.616 1.301-.288.37-.356 1.575-.657 1.795.205.178-.356 2.575-.726.698.315.795-.178 4.397-1.849.356-.534.534.233.972-.425.357.493 1.534-.26 1.945-1.438z"/></mask><path stroke="#fff" stroke-width="2" d="m685.808 58.419.644.438-.603.672.37.232-.123.562 1.192 1.41 2.575.823 2.26-.384.424 1.795-.698 4.04.507 2.233.013 3.287.411.59-.192 7.629.74.41.11 1.165.534.233 2.315-.288.164.37-.808.685.438.63 2.767-.343 2.109 1.356 2.247-.287.589.657-.589.904.616 1.192-.192 1.89-1.232 2.123.479.822 1.301.671.082.74-.808.383-1.945-.013-.342.356.575 2.643-.192.877-1.191 1.096.205.438 2.657-.931.877 1.013.082 1.356.425.521 2.602 1.027.945-.068 1.219-4.068 1.069-.439.15-1.397 1.754.548 1.561-1.822 3.424-1.959.795-1.63-.055-1.753.671-.438 6.616.11 1.109.63 1.836 2.451 1.685-.054 2.547 1.493.74.958 2.123.74.178.671-.904 2.384 1.986 1.041.151.89-.521.233-2.849-1.247-3.109 1.493.205 1.959-.89 3.465-1.849.124.301 1.315-.356.712-1.164.274-.671 1.137-3.26 1.616-.479 1.055.178.63-.521.52.219 1.192.932 1.233 1.547 1.616 2.411 1.603.329 6.314 2.191 1.877.055.876-1.972 4.301-1.384.891-5.136 1.917-.479.918-.206 2.945 2.383 1.835 3.63 5.013 1.384 3.165.123 2.972-4.643-.836-2.014-.726-3.78-2.766-4.452-.973-.781-.438-2.397-2.89-1.219-.37-.397-.589-1.411-.63-.698-1.165-.685-.027-.699.192-.794 2.205-1.329.794-2.794 5.068-2.068 1.672-1.959.739-.425 1-1.849 1.986-1.931 1.247-.342 1.849-.535.287-1.109 1.795-4.342 1.917-1.781 1.206-5.479.479-2.123-2.684 1.836-2.795.123-1.013-1.342-.808-1.069-.042-.986.137-1.863 1.288-1.397-2.37.233-4.301 1.26-2.082 2.712-1.657-.616-.425-3.438.165-.644-.562-.808-.082-.726-2.808-.274-.288-1.411-.027-1.424-1.014-1.301.014-3.767 2.74-.74-.165-1.904-1.534-1.808-.233-1.876-.822-1.534-1.547.055-4.411-.165-.863-1.109-1.342.15-.945-.712-.521-1.904-.109-1.465-1.178-2.041-.124-.562-.589-1.876-.411-1.206-2.273.247-1.178-.37-1.685-1.233.397-.835-.137.205-1.931-.26-.863-.74-.247-1.26.685-2.52.014-.027-1.082-.877-.562.164-.589 1.343-.191-.877-1.315-.63-.069-.959.945-.931.26-.329-.547.781-.891-.603-1.013-4.356-.37-.575.904-.548.041-.192-.466.343-.616-.548-.041-1.603 1.191-.52-.15.068-1.11-.589-.438-2.506-.438-2.164.835-1.096 1.082-1.178-.37-.479.384-1.713.082-2.451.945-.891-1.274-1.876.726-2.178-2.342.178-.726-.712-.329-.973.576-.685-.151-.26-1 .425-.767-.986-1.137.424-.876 2.356-.63 3.452-2.069.767-1.465 1.465-.343.767-.671-.041-1.493.37-.685 1.904-.438.863-.644.657-.589.274-1.219 1.74-.726 1.411.26.602-.507.288-.945-.794-.397-.069-.712.781-3.507.014-2.26.616-2.04 1.548-1.781 3.397-1.603h1.219l.863-.575 1.383.438 3.849-1.013 1.575.068 2.041-1.055 1.109-.164 1.028-1.78.863-.7 1.136-.054 5.507-4.808 5.259-.931 3.479-2.274 1.274-3.3-.246-3.233-.904-.946.233-1.849 1.493-1.726 1.342.452 1.15-.287 2.576.698.767-.616.78-.069.548-.616 1.301-.288.37-.356 1.575-.657 1.795.205.178-.356 2.575-.726.698.315.795-.178 4.397-1.849.356-.534.534.233.972-.425.357.493 1.534-.26 1.945-1.438z" mask="url(#d)"/><mask id="e" fill="#fff"><path d="m735.975 47.104.699.809-.754.93.493.549-.863 2.493.795 1.15-.192 3.644 1.931 1.356.206.561 3.849 4.014-1.48-.795-.315-.808-1.232-.877-.781-1.205-.589.206.274 1.67.452.548.507-.137.356.356-.206.453-.438-.357-.74.809.055.945 1.069 1.424.178.973 1.123.945 3.465 1.74 3.205.054.219-.685-.26-.424-1.726-1.233-.274-.822-1.095-.685-1.712-1.986 4.999 4.424 5.219 2.164 4.123.562 2.451-.493 2.028-.973 3.136-2.78.069.48.712.3 3.506.809 6.507 2.397-.082 2.41 1.506.987.891 1.356 2.397 1 .137.753 1.629 1.74 2.658 1.89 3.397-.63.178 3.657 4.04 2.232.274 2.164 1.534.302 1.973 1.315.74-.302-.096.74 3.629 1.945-1.739 1.246-.192 1.603-3.972 5.178.712-.096 1.192.808 1.37 2.109v.644l1.15 1.082.137.794.575.233.274.863 3.178 1.356-5.013 6.397.726 1.191 1.904 1.767 1.383 2.192-.397 4.424 3.342 8.273-2.671 14.766 1.493 6.081-3.027 2.329-.452 2.178 1.383.767.22.602 2.78-.26 1.178 3.191 1.658 1 .178.617-.357 1.808.425.123-.014.466-.493.589.795 1.671-1.685 2.397-.219 2.739-.397.973-.672.479-.945 2.739.124 4.753-.439 1.466 1.959 3.328 1.561 1.302 1.37 3.479 2.164 2.561 1.041.836 1.398.479.862 1.027.494 1.685-.781 1.26.233 1.11-.713 1.753-.548.507-.739-.151-1.726.726 8.41 13.451 5.78 2.698 14.095 10.848.096.397-2.521 2.219-1.095 1.644-1.863 1.109-.973 1.069-1.534-.22-2.493.877-.534.726-.726 2.89-1.383 1.082.726 1.041-.589 3.616.246 2.794-3.027 2.356.658.493 3.739-1.013 1.767.753.562 1.685.835.452-.027 1.082-1.576.493-.986 1.082-2.575.521-.89-.617-2.822.247-1.822-.548-1.068.315-2.137-.11-3.123-.424-1.109-.534-3.931.712-5.479-1.438-1.493.096-5.808-1.945-2.52-.055-1.247-.945h-1.178l-.315.685-.917-.452-1.26.068-1.041-1.027-1.37-.493-4.548 1.753-3.602.671-.973-.027-4.547-1.562-1.329.754-8.355-.206-4.315.89-2.78 1.973-3.301-.302-3.383.425-4.753-.274-3.192.26-1.589-.589-1.027 1.562-.466 3.931 2.425 4.054.26 1.918 1.835 3.054.274 1.575-.26 1.329 1.164 1.342-.082.918-8.766 2.068.027.357-13.697 2.958-1.74-11.656-.109-3.397.685-5.753 2.136-4.164-.465-1.548-1.849-.575-9.068-1.424-4.917-.493-3.822.671-1.959-.192-.849-.507-.096-.945.932-2-.904-1.15-1.863-.548-1.644-1.575-1.027-.398-2.52.014-1.356-.644-1.151-5.314-6.054-12.328-1.726-2.081-1.808-.795-.219-1.013 2.863-4.507 3.054-3.342 4.575-8.739 2.671-4.232 4.095-4.082 2.63-1.561 6.561-.699 5.37.069 4.944.78 3.753-.164 3.096-.671 5.862-2.397 2.343-.397 3.301-1.178 1.137-1.699.438-2.534-.754-2.109-4.122-4.904-2.11-3.534-3.671-3.342-3.356-2.095-1.013-2.041.014-1.274 1.273-2.863 3.425-3.739 1.493-2.342 1.041-4.027-.123-2.973-1.384-3.164-3.63-5.013-2.383-1.835.205-2.945.48-.918 5.136-1.917 1.384-.891 1.972-4.301-.055-.876-2.191-1.877-.329-6.314-2.411-1.603-1.547-1.616-.932-1.233-.219-1.191.52-.521-.178-.63.48-1.054 3.26-1.617.671-1.137 1.164-.274.356-.712-.301-1.315 1.849-.123.89-3.465-.205-1.959 3.109-1.493 2.849 1.246.521-.232-.151-.891-1.986-1.04.904-2.384-.178-.671-2.123-.74-.74-.959-2.547-1.493-1.685.055-1.836-2.452-1.109-.63-6.616-.11-.671.439.055 1.753-.795 1.63-3.424 1.959-1.562 1.822-1.753-.548-.15 1.397-1.069.438-1.219 4.068-.945.069-2.602-1.028-.425-.52-.082-1.356-.877-1.014-2.657.932-.206-.439 1.192-1.095.192-.877-.576-2.644.343-.356 1.945.014.808-.384-.082-.74-1.301-.67-.48-.822 1.233-2.123.192-1.89-.617-1.192.589-.904-.589-.657-2.246.287-2.109-1.356-2.767.343-.439-.63.809-.685-.165-.37-2.315.287-.534-.232-.109-1.165-.74-.41.192-7.63-.411-.589-.014-3.287-.507-2.233.699-4.04-.425-1.795 1.767-1.219 1.11-3.342 2.178-.863 1.575.137.602 1.096 3.945 2.685 2.836.602 2.369 1.164 2.027-.451 1.233.862 4.685.439 1.739-1.22 2.383-.506 1.041-.658.589.11.466-.384 1.315.288 1.877-1.849 1.191-2.082 1.493.85 2.055-1.453 2.794-5.246.069-1.123.068-.41.74-1.028.082-1.137z"/></mask><path stroke="#fff" stroke-width="2" d="m735.975 47.104.699.809-.754.93.493.549-.863 2.493.795 1.15-.192 3.644 1.931 1.356.206.561 3.849 4.014-1.48-.795-.315-.808-1.232-.877-.781-1.205-.589.206.274 1.67.452.548.507-.137.356.356-.206.453-.438-.357-.74.809.055.945 1.069 1.424.178.973 1.123.945 3.465 1.74 3.205.054.219-.685-.26-.424-1.726-1.233-.274-.822-1.095-.685-1.712-1.986 4.999 4.424 5.219 2.164 4.123.562 2.451-.493 2.028-.973 3.136-2.78.069.48.712.3 3.506.809 6.507 2.397-.082 2.41 1.506.987.891 1.356 2.397 1 .137.753 1.629 1.74 2.658 1.89 3.397-.63.178 3.657 4.04 2.232.274 2.164 1.534.302 1.973 1.315.74-.302-.096.74 3.629 1.945-1.739 1.246-.192 1.603-3.972 5.178.712-.096 1.192.808 1.37 2.109v.644l1.15 1.082.137.794.575.233.274.863 3.178 1.356-5.013 6.397.726 1.191 1.904 1.767 1.383 2.192-.397 4.424 3.342 8.273-2.671 14.766 1.493 6.081-3.027 2.329-.452 2.178 1.383.767.22.602 2.78-.26 1.178 3.191 1.658 1 .178.617-.357 1.808.425.123-.014.466-.493.589.795 1.671-1.685 2.397-.219 2.739-.397.973-.672.479-.945 2.739.124 4.753-.439 1.466 1.959 3.328 1.561 1.302 1.37 3.479 2.164 2.561 1.041.836 1.398.479.862 1.027.494 1.685-.781 1.26.233 1.11-.713 1.753-.548.507-.739-.151-1.726.726 8.41 13.451 5.78 2.698 14.095 10.848.096.397-2.521 2.219-1.095 1.644-1.863 1.109-.973 1.069-1.534-.22-2.493.877-.534.726-.726 2.89-1.383 1.082.726 1.041-.589 3.616.246 2.794-3.027 2.356.658.493 3.739-1.013 1.767.753.562 1.685.835.452-.027 1.082-1.576.493-.986 1.082-2.575.521-.89-.617-2.822.247-1.822-.548-1.068.315-2.137-.11-3.123-.424-1.109-.534-3.931.712-5.479-1.438-1.493.096-5.808-1.945-2.52-.055-1.247-.945h-1.178l-.315.685-.917-.452-1.26.068-1.041-1.027-1.37-.493-4.548 1.753-3.602.671-.973-.027-4.547-1.562-1.329.754-8.355-.206-4.315.89-2.78 1.973-3.301-.302-3.383.425-4.753-.274-3.192.26-1.589-.589-1.027 1.562-.466 3.931 2.425 4.054.26 1.918 1.835 3.054.274 1.575-.26 1.329 1.164 1.342-.082.918-8.766 2.068.027.357-13.697 2.958-1.74-11.656-.109-3.397.685-5.753 2.136-4.164-.465-1.548-1.849-.575-9.068-1.424-4.917-.493-3.822.671-1.959-.192-.849-.507-.096-.945.932-2-.904-1.15-1.863-.548-1.644-1.575-1.027-.398-2.52.014-1.356-.644-1.151-5.314-6.054-12.328-1.726-2.081-1.808-.795-.219-1.013 2.863-4.507 3.054-3.342 4.575-8.739 2.671-4.232 4.095-4.082 2.63-1.561 6.561-.699 5.37.069 4.944.78 3.753-.164 3.096-.671 5.862-2.397 2.343-.397 3.301-1.178 1.137-1.699.438-2.534-.754-2.109-4.122-4.904-2.11-3.534-3.671-3.342-3.356-2.095-1.013-2.041.014-1.274 1.273-2.863 3.425-3.739 1.493-2.342 1.041-4.027-.123-2.973-1.384-3.164-3.63-5.013-2.383-1.835.205-2.945.48-.918 5.136-1.917 1.384-.891 1.972-4.301-.055-.876-2.191-1.877-.329-6.314-2.411-1.603-1.547-1.616-.932-1.233-.219-1.191.52-.521-.178-.63.48-1.054 3.26-1.617.671-1.137 1.164-.274.356-.712-.301-1.315 1.849-.123.89-3.465-.205-1.959 3.109-1.493 2.849 1.246.521-.232-.151-.891-1.986-1.04.904-2.384-.178-.671-2.123-.74-.74-.959-2.547-1.493-1.685.055-1.836-2.452-1.109-.63-6.616-.11-.671.439.055 1.753-.795 1.63-3.424 1.959-1.562 1.822-1.753-.548-.15 1.397-1.069.438-1.219 4.068-.945.069-2.602-1.028-.425-.52-.082-1.356-.877-1.014-2.657.932-.206-.439 1.192-1.095.192-.877-.576-2.644.343-.356 1.945.014.808-.384-.082-.74-1.301-.67-.48-.822 1.233-2.123.192-1.89-.617-1.192.589-.904-.589-.657-2.246.287-2.109-1.356-2.767.343-.439-.63.809-.685-.165-.37-2.315.287-.534-.232-.109-1.165-.74-.41.192-7.63-.411-.589-.014-3.287-.507-2.233.699-4.04-.425-1.795 1.767-1.219 1.11-3.342 2.178-.863 1.575.137.602 1.096 3.945 2.685 2.836.602 2.369 1.164 2.027-.451 1.233.862 4.685.439 1.739-1.22 2.383-.506 1.041-.658.589.11.466-.384 1.315.288 1.877-1.849 1.191-2.082 1.493.85 2.055-1.453 2.794-5.246.069-1.123.068-.41.74-1.028.082-1.137z" mask="url(#e)"/><mask id="f" fill="#fff"><path d="m607.543 117.578 2.192 2.342 1.862-.726.891 1.274 2.465-.945 1.699-.083.479-.383 1.178.37 1.096-1.082 2.164-.836 2.506.425.589.452-.054 1.109.506.151 1.603-1.192.548.055-.329.616.178.466.562-.055.575-.89 4.356.37.602 1.013-.78.891.328.547.932-.26.959-.945.63.082.89 1.302-1.342.191-.165.603.877.562.027 1.082 2.507-.014 1.274-.685.739.26.261.863-.206 1.932.836.137 1.219-.398.383 1.685-.246 1.164 1.205 2.274 1.876.411.562.589 2.041.109 1.452 1.192 1.904.11.712.52-.151.945 1.096 1.343.164.863-.041 4.41 1.521 1.548 1.876.822 1.808.232 1.904 1.535.74.164 3.766-2.74 1.288-.013 1.438 1.013 1.411.028.274.287.712 2.808.808.082.644.562 3.424-.151.617.411-2.712 1.671-1.26 2.082-.247 4.301 1.397 2.37 1.877-1.301.972-.124 1.068.028 1.343.822-.124 1.013-1.849 2.794 2.123 2.671 5.479-.465 1.781-1.206 4.328-1.917 1.123-1.795.521-.287.342-1.863 1.932-1.247 1.835-1.986.425-1.013 1.958-.726 2.069-1.671 2.794-5.068 1.342-.795.794-2.205.699-.192.699.028.684 1.164 1.425.63.397.589 1.219.37 2.397 2.89.781.438 4.451.973 3.781 2.767 2.013.726 4.644.835-1.041 4.027-1.493 2.356-3.411 3.726-1.274 2.862-.013 1.288 1 2.041 3.355 2.082 3.671 3.342 2.109 3.534 4.123 4.903.754 2.109-.439 2.534-1.137 1.699-3.287 1.178-2.342.397-5.876 2.397-3.082.671-3.753.178-4.945-.794-5.369-.069-6.561.713-2.63 1.561-4.095 4.082-2.671 4.232-4.575 8.739-3.054 3.342-2.863 4.506.219 1.014-1.863.753-1.52.096-3.794-.068-1.931-.493-1.507.301-1.247-.438-.424-.767-.164-4.342-4.767-4.808-2.109-1.342-1.288-2.795-.849-.945-.767-.506-3.479-.288-6.287.945-2.342-.959-2.055-1.589-.493-1.219.151-1.465.657-1.028.178-1.123-4.835-5.465-2.698-8.629-1.877-4.287-3.191-2.836-.973-1.89-.164-1.219.342-1.068 5.342-7.739.411-1.397-.342-2.014-2.219-2.356-2.959-2.397-4.999-.684-1.178-.74-.562-1.178-.027-1.383 2.397-6.274-.315-3.109-1.753-2.794-1.219-.712-1.124-4.246-3.054-.863-1.575.054-.754-.904-.89-2.15-.657-.534-1.37-.288-1.699.822-.739-.247-.521-2.972.274-4.109-.287-2.89-.562-1.986-.616-.658-1.356-1.972z"/></mask><path stroke="#fff" stroke-width="2" d="m607.543 117.578 2.192 2.342 1.862-.726.891 1.274 2.465-.945 1.699-.083.479-.383 1.178.37 1.096-1.082 2.164-.836 2.506.425.589.452-.054 1.109.506.151 1.603-1.192.548.055-.329.616.178.466.562-.055.575-.89 4.356.37.602 1.013-.78.891.328.547.932-.26.959-.945.63.082.89 1.302-1.342.191-.165.603.877.562.027 1.082 2.507-.014 1.274-.685.739.26.261.863-.206 1.932.836.137 1.219-.398.383 1.685-.246 1.164 1.205 2.274 1.876.411.562.589 2.041.109 1.452 1.192 1.904.11.712.52-.151.945 1.096 1.343.164.863-.041 4.41 1.521 1.548 1.876.822 1.808.232 1.904 1.535.74.164 3.766-2.74 1.288-.013 1.438 1.013 1.411.028.274.287.712 2.808.808.082.644.562 3.424-.151.617.411-2.712 1.671-1.26 2.082-.247 4.301 1.397 2.37 1.877-1.301.972-.124 1.068.028 1.343.822-.124 1.013-1.849 2.794 2.123 2.671 5.479-.465 1.781-1.206 4.328-1.917 1.123-1.795.521-.287.342-1.863 1.932-1.247 1.835-1.986.425-1.013 1.958-.726 2.069-1.671 2.794-5.068 1.342-.795.794-2.205.699-.192.699.028.684 1.164 1.425.63.397.589 1.219.37 2.397 2.89.781.438 4.451.973 3.781 2.767 2.013.726 4.644.835-1.041 4.027-1.493 2.356-3.411 3.726-1.274 2.862-.013 1.288 1 2.041 3.355 2.082 3.671 3.342 2.109 3.534 4.123 4.903.754 2.109-.439 2.534-1.137 1.699-3.287 1.178-2.342.397-5.876 2.397-3.082.671-3.753.178-4.945-.794-5.369-.069-6.561.713-2.63 1.561-4.095 4.082-2.671 4.232-4.575 8.739-3.054 3.342-2.863 4.506.219 1.014-1.863.753-1.52.096-3.794-.068-1.931-.493-1.507.301-1.247-.438-.424-.767-.164-4.342-4.767-4.808-2.109-1.342-1.288-2.795-.849-.945-.767-.506-3.479-.288-6.287.945-2.342-.959-2.055-1.589-.493-1.219.151-1.465.657-1.028.178-1.123-4.835-5.465-2.698-8.629-1.877-4.287-3.191-2.836-.973-1.89-.164-1.219.342-1.068 5.342-7.739.411-1.397-.342-2.014-2.219-2.356-2.959-2.397-4.999-.684-1.178-.74-.562-1.178-.027-1.383 2.397-6.274-.315-3.109-1.753-2.794-1.219-.712-1.124-4.246-3.054-.863-1.575.054-.754-.904-.89-2.15-.657-.534-1.37-.288-1.699.822-.739-.247-.521-2.972.274-4.109-.287-2.89-.562-1.986-.616-.658-1.356-1.972z" mask="url(#f)"/><mask id="g" fill="#fff"><path d="m608.906 121.11.616.658.562 1.986.288 2.89-.274 4.109.52 2.972.74.247 1.698-.822 1.37.288.657.534.891 2.15.753.904 1.575-.054 3.055.862 1.123 4.247 1.219.712 1.753 2.794.315 3.109-2.397 6.274.028 1.383.561 1.178 1.178.74 5 .685 2.958 2.397 2.219 2.355.343 2.014-.411 1.397-5.342 7.739-.343 1.068.165 1.219.972 1.891 3.192 2.835 1.876 4.287 2.699 8.629 4.835 5.466-.178 1.123-.658 1.027-.151 1.466.494 1.219 2.054 1.589 2.342.958 6.287-.945 3.479.288.767.507.85.945 1.287 2.794 2.11 1.342 4.766 4.808.165 4.342.424.767 1.247.439 1.506-.302 1.932.493 3.794.069 1.52-.096 1.863-.753 1.794.794 1.74 2.082 6.054 12.314 1.137 5.314 1.356.644 2.52-.014 1.027.411 1.644 1.562 1.863.561.904 1.151-.932 1.986.11.945.849.521 1.959.191 3.822-.685 4.917.494 9.067 1.424 1.849.575.466 1.548-2.123 4.164-.698 5.739.123 3.397 1.739 11.656-20.874 4.658v14.094l.918.466-.713.972-.63-.438-.342.876-1.671.521-.082.726-.494.479-.671-.096-.287-.904-.425-.137-.452.863.192.411-.534.356.095 1.425-1.191 1.082.178.37.383-.315.274.822.672-.247-.11 1.137-1.274.89.178.411-.575.356.425.877.534-.082.301 2.342.384.26-.918 1.959.233 1.685.63-.356.986.054.562.466.356-1.096-.535-.657 1.22-.493-.179-.699.617-.616.397.548.699.109.493.836.082 1.904-.493 2.013.671-.219.096-.74 1.041.548.424-.383-.397-.63-.027-1.206-.356-.26.671-.438.096 1.835.37.288.712-.781-.082 1.219.643.233.11 1.315.603-.041-.028.972.945.918.096-.52.671.15-.109-.698.466-.192-.137 1.424.342.521.329-.411.219 3.917-.562.617.398.041.027.466-.877.41.247.576-.315-.082-.055.657-.808-.288-.014.699-.575.192.192.685-.548.808-.589-.014-.575 1.753-.439.055-.452-.205-.904 1.273-.205 2.411-.534.48.328 1.835.726-.301.836.465.644 1.945-.699.37-.589 1.493-10.602 4.507-7.889 2.109-7.849.452-9.081 3.397-14.902 14.779-17.122 8.52-9.478 8.013-1.808-5.233-.713-.383-1.369-1.89-.493-2.534-.685-1.315.328-4.534-.137-7.561.589-3.096-.041-9.875-2.588-3.548-.261-1.205-1.534-1.918-2.767-4.821-.972-4.644-.11-1.821 1.562-7.643 1.178-9.136 2.178-5.096 1.26-4.602.246-3.602-.356-1.863-.644-1.479-1.561-1.754-1.288-.822-4.054-1.246-3.78-2.315-1.356-2.506-.822-.658-7.26-1.986-3.725.877-3.74-.535-.657-.671.616-1.89 11.876-12.574 1.383-2.904-.603-.794-7.122-4.863-1.288-.068-3.424 2.438-2.055.507.37-1.028-.479-1.821-1.164-.398-.466-1.013.356-.863 1.178-.521-.274-2.123 1.356-.945.041-2.123 1.164-1.123 1.877-.096 1.027-.972.781-1.014.274-1.794.383-.411 1.219-.603 3.178-.603 2.63.631.863-.603.274-1.507-1.356-1.15 1.205-2.754-.63-1.123.932-1.397.164-1.452 1.151-1.684-1.315-3.028-1.904-2.725-.548-2-3.068-.288-.466-.767-2.178-1.52-1.548-.274-1.739 1.465-1.356-.095-.685-3.548-.534-1.082-1.069-.548-1.137-1.479-1.054.219-.891-.438-.904-1.891-2.328-1.356-3.205.507-.603-.246-.452-.863.274-1.74-.466-.685.11-.507 1.096-.698-1.863-2.493-.343-1.726-1.013-.397-2.425 1.068-.89.014-.781-.657.124-2.329 2.328-.493.891-.658.095-.904-.479-.602-2.287-.986-.452-2.26-2.932-1.411-2.41-2.342-2.069-.685-.602-1.644-5.109-1.74-.493-.917.15-1.041.589-1.096.973-.726.178-.986-1.329-2.589 1.055-2.424-.562-.945.685-2.452.781-.658 3.164-.726 1.411-.027 1.602.986.754-.164.753-.877.726.384.589 1.246.589.26 1.26-.178.425.397-.014 1.11.452.603.178 2.999.753 1.055 2.082.219.576.767 1 .178 1.054-.52 2.068-2.384 1.973-.63 6.492 1.904 1.206-.438.972-1.849.082-1.753-.808-2.192-.178-4.643.562-6.753.986-3.78.753-7.739-.123-2.37-.603-.945-1.369-.877-.384-.917-.082-1.192.507-1.411-.85-.383-1.068.342-.329-.712.028-1.315 2.808-2.657-.466-2.343-3.37-2.794-.671-1-.191-3.136-.877-3.288-.63-.356-1.041.164-.575-1.493.493-.452 1.917-.287.726-.452.658-.699-.11-1.63 1.877-1.424 1.835.164.685.959 1.835.178.672.836-1.137 2.219.315.945 1.178.356 1.849-.356 3.164.534.822.561.205 1.178-.397.959.466 1.069.767.246 1.972-2.561 3.137-.918-1.028-1.411.329-.794 1.26-.685 1.137-1.384.206-2.397 1.479.028z"/></mask><path stroke="#fff" stroke-width="2" d="m608.906 121.11.616.658.562 1.986.288 2.89-.274 4.109.52 2.972.74.247 1.698-.822 1.37.288.657.534.891 2.15.753.904 1.575-.054 3.055.862 1.123 4.247 1.219.712 1.753 2.794.315 3.109-2.397 6.274.028 1.383.561 1.178 1.178.74 5 .685 2.958 2.397 2.219 2.355.343 2.014-.411 1.397-5.342 7.739-.343 1.068.165 1.219.972 1.891 3.192 2.835 1.876 4.287 2.699 8.629 4.835 5.466-.178 1.123-.658 1.027-.151 1.466.494 1.219 2.054 1.589 2.342.958 6.287-.945 3.479.288.767.507.85.945 1.287 2.794 2.11 1.342 4.766 4.808.165 4.342.424.767 1.247.439 1.506-.302 1.932.493 3.794.069 1.52-.096 1.863-.753 1.794.794 1.74 2.082 6.054 12.314 1.137 5.314 1.356.644 2.52-.014 1.027.411 1.644 1.562 1.863.561.904 1.151-.932 1.986.11.945.849.521 1.959.191 3.822-.685 4.917.494 9.067 1.424 1.849.575.466 1.548-2.123 4.164-.698 5.739.123 3.397 1.739 11.656-20.874 4.658v14.094l.918.466-.713.972-.63-.438-.342.876-1.671.521-.082.726-.494.479-.671-.096-.287-.904-.425-.137-.452.863.192.411-.534.356.095 1.425-1.191 1.082.178.37.383-.315.274.822.672-.247-.11 1.137-1.274.89.178.411-.575.356.425.877.534-.082.301 2.342.384.26-.918 1.959.233 1.685.63-.356.986.054.562.466.356-1.096-.535-.657 1.22-.493-.179-.699.617-.616.397.548.699.109.493.836.082 1.904-.493 2.013.671-.219.096-.74 1.041.548.424-.383-.397-.63-.027-1.206-.356-.26.671-.438.096 1.835.37.288.712-.781-.082 1.219.643.233.11 1.315.603-.041-.028.972.945.918.096-.52.671.15-.109-.698.466-.192-.137 1.424.342.521.329-.411.219 3.917-.562.617.398.041.027.466-.877.41.247.576-.315-.082-.055.657-.808-.288-.014.699-.575.192.192.685-.548.808-.589-.014-.575 1.753-.439.055-.452-.205-.904 1.273-.205 2.411-.534.48.328 1.835.726-.301.836.465.644 1.945-.699.37-.589 1.493-10.602 4.507-7.889 2.109-7.849.452-9.081 3.397-14.902 14.779-17.122 8.52-9.478 8.013-1.808-5.233-.713-.383-1.369-1.89-.493-2.534-.685-1.315.328-4.534-.137-7.561.589-3.096-.041-9.875-2.588-3.548-.261-1.205-1.534-1.918-2.767-4.821-.972-4.644-.11-1.821 1.562-7.643 1.178-9.136 2.178-5.096 1.26-4.602.246-3.602-.356-1.863-.644-1.479-1.561-1.754-1.288-.822-4.054-1.246-3.78-2.315-1.356-2.506-.822-.658-7.26-1.986-3.725.877-3.74-.535-.657-.671.616-1.89 11.876-12.574 1.383-2.904-.603-.794-7.122-4.863-1.288-.068-3.424 2.438-2.055.507.37-1.028-.479-1.821-1.164-.398-.466-1.013.356-.863 1.178-.521-.274-2.123 1.356-.945.041-2.123 1.164-1.123 1.877-.096 1.027-.972.781-1.014.274-1.794.383-.411 1.219-.603 3.178-.603 2.63.631.863-.603.274-1.507-1.356-1.15 1.205-2.754-.63-1.123.932-1.397.164-1.452 1.151-1.684-1.315-3.028-1.904-2.725-.548-2-3.068-.288-.466-.767-2.178-1.52-1.548-.274-1.739 1.465-1.356-.095-.685-3.548-.534-1.082-1.069-.548-1.137-1.479-1.054.219-.891-.438-.904-1.891-2.328-1.356-3.205.507-.603-.246-.452-.863.274-1.74-.466-.685.11-.507 1.096-.698-1.863-2.493-.343-1.726-1.013-.397-2.425 1.068-.89.014-.781-.657.124-2.329 2.328-.493.891-.658.095-.904-.479-.602-2.287-.986-.452-2.26-2.932-1.411-2.41-2.342-2.069-.685-.602-1.644-5.109-1.74-.493-.917.15-1.041.589-1.096.973-.726.178-.986-1.329-2.589 1.055-2.424-.562-.945.685-2.452.781-.658 3.164-.726 1.411-.027 1.602.986.754-.164.753-.877.726.384.589 1.246.589.26 1.26-.178.425.397-.014 1.11.452.603.178 2.999.753 1.055 2.082.219.576.767 1 .178 1.054-.52 2.068-2.384 1.973-.63 6.492 1.904 1.206-.438.972-1.849.082-1.753-.808-2.192-.178-4.643.562-6.753.986-3.78.753-7.739-.123-2.37-.603-.945-1.369-.877-.384-.917-.082-1.192.507-1.411-.85-.383-1.068.342-.329-.712.028-1.315 2.808-2.657-.466-2.343-3.37-2.794-.671-1-.191-3.136-.877-3.288-.63-.356-1.041.164-.575-1.493.493-.452 1.917-.287.726-.452.658-.699-.11-1.63 1.877-1.424 1.835.164.685.959 1.835.178.672.836-1.137 2.219.315.945 1.178.356 1.849-.356 3.164.534.822.561.205 1.178-.397.959.466 1.069.767.246 1.972-2.561 3.137-.918-1.028-1.411.329-.794 1.26-.685 1.137-1.384.206-2.397 1.479.028z" mask="url(#g)"/><mask id="h" fill="#fff"><path d="m540.887 126.151.713 1.329 2.506-.22 1 1.507.891.466 2.164.082.589.383 4.821-2.164 5.191 1.288 9.095-.754 9.547 2.932 2.219.027 2.548.781 2.89.082.192 3.137.671 1.013 3.369 2.795.466 2.342-2.808 2.657-.027 1.315.328.712 1.069-.356.849.384-.521 1.41.096 1.192.384.918 1.356.876.616.945.123 2.356-.753 7.739-.986 3.794-.562 6.739.178 4.644.822 2.191-.096 1.754-.972 1.849-1.205.438-6.493-1.89-1.972.63-2.055 2.383-1.068.521-1-.178-.589-.767-2.082-.22-.753-1.054-.192-3-.452-.603.014-1.109-.425-.397-1.26.192-.589-.261-.576-1.246-.739-.37-.754.877-.739.164-1.616-.973-1.398.014-3.177.74-.781.644-.685 2.465.562.945-1.055 2.425 1.342 2.588-3.04 1.671-1.082-.068-2.151 1.397-1.397 2.534-.726.452-2.219-3.096-2.068-1.451-4.082.315-1.137.424-2.493-1.137-1.862.932-2.904-1.356.616-1.589-.575-3.849.178-.877 1.301-1.671.301-1.643-1.725-2.411-.644-1.699-.069-1.424 3.274-4.986.479-2.301-1.342-.123-.781.534-3.753.219-.506-.877-1-.452-1.069-1.725-1.876-.822h-.822l-.055.548-.753-.041.466-1.535-1.617-2.739-.041-2.726-.452-1.643-1.205-2.055-2.315-.178-.699-1.26 3.151-2.603.561.137 1.329-.548 1.424-1.164-.041-.342 1.151-.439.151-.589.767-.26.397-.739 2.164-1.877 3.945-4.753 2.712-3.027z"/></mask><path stroke="#fff" stroke-width="2" d="m540.887 126.151.713 1.329 2.506-.22 1 1.507.891.466 2.164.082.589.383 4.821-2.164 5.191 1.288 9.095-.754 9.547 2.932 2.219.027 2.548.781 2.89.082.192 3.137.671 1.013 3.369 2.795.466 2.342-2.808 2.657-.027 1.315.328.712 1.069-.356.849.384-.521 1.41.096 1.192.384.918 1.356.876.616.945.123 2.356-.753 7.739-.986 3.794-.562 6.739.178 4.644.822 2.191-.096 1.754-.972 1.849-1.205.438-6.493-1.89-1.972.63-2.055 2.383-1.068.521-1-.178-.589-.767-2.082-.22-.753-1.054-.192-3-.452-.603.014-1.109-.425-.397-1.26.192-.589-.261-.576-1.246-.739-.37-.754.877-.739.164-1.616-.973-1.398.014-3.177.74-.781.644-.685 2.465.562.945-1.055 2.425 1.342 2.588-3.04 1.671-1.082-.068-2.151 1.397-1.397 2.534-.726.452-2.219-3.096-2.068-1.451-4.082.315-1.137.424-2.493-1.137-1.862.932-2.904-1.356.616-1.589-.575-3.849.178-.877 1.301-1.671.301-1.643-1.725-2.411-.644-1.699-.069-1.424 3.274-4.986.479-2.301-1.342-.123-.781.534-3.753.219-.506-.877-1-.452-1.069-1.725-1.876-.822h-.822l-.055.548-.753-.041.466-1.535-1.617-2.739-.041-2.726-.452-1.643-1.205-2.055-2.315-.178-.699-1.26 3.151-2.603.561.137 1.329-.548 1.424-1.164-.041-.342 1.151-.439.151-.589.767-.26.397-.739 2.164-1.877 3.945-4.753 2.712-3.027z" mask="url(#h)"/><path stroke="#fff" d="m506.583 156.553.278-.049-.876.982-.218.245.138.297.406.881-1.379.357-.697.181.413.59.217.31-.561 1.19-.15.318.249.248.114.115-.197 1.041-.049.257.183.187.559.569-.493 1.346-.061.165.056.167.493 1.466.058.171.153.095.754.465.239 1.041-.414-.203-.439-.215-.225.434-.278.536-.827.291-.522.183.235.5.422.902-1.719.226-.381.05-.05.38-.048.368-1.015.193-.125.023-.098.081-1.992 1.626-.258-.19-.053-.039-.062-.024-2.314-.904-.072-.028-.076-.005-1.78-.123-.171-.012-.143.095-.579.39-.48-.591-.238-.294-.348.15-1.738.751-.12-.656-.049-.267-.251-.104-1.406-.586-.505-.763-.217-.327-.369.133-.808.29-.358-.281-.232-.183-.272.115-.687.292-.666-.675-.196-.2-.274.064-.677.158-.889-.32-.181-.065-.178.073-1.222.502-.847-.866-.154-.632 2.984-1.783.082-.049.098.193.312-.005.835-.014.153-.002.126-.088.357-.25.089-.032.029-.011.027-.014 1.849-.945.017-.008.015-.009 2.329-1.411.159-.097.057-.177.131-.405.094.024.292.073.201-.224.633-.703.694-.157.206-.046.111-.181.188-.308.09.112.316.398.393-.323.273-.225.606.147.108.026.017-.004.386.179.703.324.555.666.019-.931.281-.164 1.543-.903 1.575-.312.123-.024.097-.08 4.109-3.369.067-.055.045-.075.15-.25 1.117-.774.075-.052.052-.076.379-.554.035.141h1.259l.07-.02zm-8.78 19.133-.502 2.044-1.082 1.973-.749.044-.385-.204-.698-2.478 1.387-.758z"/><mask id="i" fill="#fff"><path d="m519.289 148.519.699 1.26 2.314.178 1.206 2.055.452 1.644.041 2.725 1.616 2.74-.466 1.534.754.041.054-.548h.822l1.877.822 1.068 1.726 1 .452.507.876 3.753-.219.781-.534 1.342.123-.479 2.302-3.274 4.985.068 1.425.644 1.698 1.726 2.411-.301 1.644-1.302 1.671-.178.876.576 3.849-.617 1.589 2.904 1.356 1.863-.931 2.493 1.137 1.137-.425 4.081-.315 2.069 1.452 2.219 3.095.726-.452 1.397-2.534 2.15-1.397 1.082.069 3.041-1.671-.178.986-.973.726-.589 1.096-.15 1.041.506.904 5.096 1.739.603 1.644 2.068.699 2.41 2.342 2.932 1.411.452 2.26 2.287.986.479.603-.095.904-.891.671-2.328.479-.124 2.342.781.658.877-.014 2.424-1.068 1.014.411.342 1.725 1.863 2.493-1.082.699-.123.507.465.685-.274 1.739.466.863-1.342 1.205-.699 1.343-1.917 1.164-5.15.521-3.808 1.465-5.548.123-.986-.287-2.89.287-2.109-.972-2.918-.548-2.643.466-.795.808-.712.164-.315.534.671.685-.233.671-2.397-.26-1.465-.767-2.603-.096-1.671-.767-.561.11-.425.849-2.15.274-1.713 1.52-2.492.904h-1.165l-1.15-1.273-1.206-.343.22.712-.603 1.658-.342 5.547-2.439 6.602-2.931 3.014-.753-1.082-2-.22-.959-1.41-1.547-.535-1.781-1.575-3.315-.383-2.342-3.288-4 .206-1.534.849-.685-.534-.506.342.054 1.123-2.383 1.493-1.726.151-1.109-.753-.425.643h-.507l-1.479-2.438-1.397-3.506-.712-1.151-1.452-.561-1.904-4.411-.74-.904-.794-.534-1.74-.219-1.451-1.26-4.794-1.48-.261-1.547-2.26-3.233-.835-2.37-1.137-.041.781-.808-.055-.26-1.11-.027.083-.617 1.027-.575-.288-.288-1.027-.246-1.137.931-1.37.028 1.425-1.22-1.151-.643.247-1.808.479-.535-1.287-1.178 1.027-.479-.26-.616-.891-.48.795-.534-.206-.794.795-.767-.754-.932.261-.37.835.028.028-.425-1.041-1.191.438-2.891-.26-.342-.945.52-.452-.26.561-.849-1.411-1.068-.095-1.137-.74-.165-.288.507-.315-.082v-.479l-.685-.672.082-.479 1.233-.205.904-1.589.274-1.534.918-.425 1.26.397 1.89-.151.767-1.136-1.232-.589 2.177-.918 1.658-2.246-1.466-.535-.233-1.328-.63.205-.411-.534 1.575-1.082-.89-.904 1.11-1.794-.672-.48-.232-1.068-2.028-2.671 2.178-1.206 1.548-.191 2.109-1.014.274 1.123 1.178 1.206 1.534-.63 1.028.369.821-.191.905.917.999-.424.576.452 1.068-.384.589.891 1.548.643.233 1.274 2.314-1 .768.945.958-.643 1.781.123 2.315.904.26.192-2.863.876-1.78.973.863 3.068.698.37 1.164-.069 1.247-2.273.589-2.397 2.684-2.192 1.37-.26.096-.726 2.397-.315-.712-1.521 1.013-.356.37-.712.671.329.548-.261-.383-1.671-.932-.575-.493-1.466.603-1.643-.781-.795.247-1.301-.302-.301.685-1.452-.383-.548 1.958-.507-.657-1.424 1.342-1.507-.027-.822h-.041v-.233l.246-.082.178-.479 1.411-.781 2.562-2.424.972-.329.466-.589.534.014-.014-.466 2.274-.082.753-.658.507-.041.808-.74.425.466z"/></mask><path stroke="#fff" stroke-width="2" d="m519.289 148.519.699 1.26 2.314.178 1.206 2.055.452 1.644.041 2.725 1.616 2.74-.466 1.534.754.041.054-.548h.822l1.877.822 1.068 1.726 1 .452.507.876 3.753-.219.781-.534 1.342.123-.479 2.302-3.274 4.985.068 1.425.644 1.698 1.726 2.411-.301 1.644-1.302 1.671-.178.876.576 3.849-.617 1.589 2.904 1.356 1.863-.931 2.493 1.137 1.137-.425 4.081-.315 2.069 1.452 2.219 3.095.726-.452 1.397-2.534 2.15-1.397 1.082.069 3.041-1.671-.178.986-.973.726-.589 1.096-.15 1.041.506.904 5.096 1.739.603 1.644 2.068.699 2.41 2.342 2.932 1.411.452 2.26 2.287.986.479.603-.095.904-.891.671-2.328.479-.124 2.342.781.658.877-.014 2.424-1.068 1.014.411.342 1.725 1.863 2.493-1.082.699-.123.507.465.685-.274 1.739.466.863-1.342 1.205-.699 1.343-1.917 1.164-5.15.521-3.808 1.465-5.548.123-.986-.287-2.89.287-2.109-.972-2.918-.548-2.643.466-.795.808-.712.164-.315.534.671.685-.233.671-2.397-.26-1.465-.767-2.603-.096-1.671-.767-.561.11-.425.849-2.15.274-1.713 1.52-2.492.904h-1.165l-1.15-1.273-1.206-.343.22.712-.603 1.658-.342 5.547-2.439 6.602-2.931 3.014-.753-1.082-2-.22-.959-1.41-1.547-.535-1.781-1.575-3.315-.383-2.342-3.288-4 .206-1.534.849-.685-.534-.506.342.054 1.123-2.383 1.493-1.726.151-1.109-.753-.425.643h-.507l-1.479-2.438-1.397-3.506-.712-1.151-1.452-.561-1.904-4.411-.74-.904-.794-.534-1.74-.219-1.451-1.26-4.794-1.48-.261-1.547-2.26-3.233-.835-2.37-1.137-.041.781-.808-.055-.26-1.11-.027.083-.617 1.027-.575-.288-.288-1.027-.246-1.137.931-1.37.028 1.425-1.22-1.151-.643.247-1.808.479-.535-1.287-1.178 1.027-.479-.26-.616-.891-.48.795-.534-.206-.794.795-.767-.754-.932.261-.37.835.028.028-.425-1.041-1.191.438-2.891-.26-.342-.945.52-.452-.26.561-.849-1.411-1.068-.095-1.137-.74-.165-.288.507-.315-.082v-.479l-.685-.672.082-.479 1.233-.205.904-1.589.274-1.534.918-.425 1.26.397 1.89-.151.767-1.136-1.232-.589 2.177-.918 1.658-2.246-1.466-.535-.233-1.328-.63.205-.411-.534 1.575-1.082-.89-.904 1.11-1.794-.672-.48-.232-1.068-2.028-2.671 2.178-1.206 1.548-.191 2.109-1.014.274 1.123 1.178 1.206 1.534-.63 1.028.369.821-.191.905.917.999-.424.576.452 1.068-.384.589.891 1.548.643.233 1.274 2.314-1 .768.945.958-.643 1.781.123 2.315.904.26.192-2.863.876-1.78.973.863 3.068.698.37 1.164-.069 1.247-2.273.589-2.397 2.684-2.192 1.37-.26.096-.726 2.397-.315-.712-1.521 1.013-.356.37-.712.671.329.548-.261-.383-1.671-.932-.575-.493-1.466.603-1.643-.781-.795.247-1.301-.302-.301.685-1.452-.383-.548 1.958-.507-.657-1.424 1.342-1.507-.027-.822h-.041v-.233l.246-.082.178-.479 1.411-.781 2.562-2.424.972-.329.466-.589.534.014-.014-.466 2.274-.082.753-.658.507-.041.808-.74.425.466z" mask="url(#i)"/><mask id="j" fill="#fff"><path d="m473.485 171.613 2.027 2.671.233 1.068.671.48-1.11 1.794.891.904-1.575 1.082.411.534.63-.205.232 1.329 1.466.534-1.657 2.246-2.178.918 1.233.589-.767 1.137-1.891.15-1.26-.397-.918.425-.273 1.534-.904 1.589-1.233.205-.082.48.684.671v.479l.315.082.288-.506.74.164.096 1.137 1.41 1.068-.561.849.452.261.945-.521.26.343-.438 2.89 1.041 1.191-.027.425-.836-.027-.26.369.753.932-.794.767.205.794-.794.535.89.479.26.616-1.027.48 1.287 1.178-.479.534-.246 1.808 1.15.644-1.424 1.219 1.369-.028 1.137-.931 1.027.246.288.288-1.027.575-.082.617 1.109.027.055.26-.781.809-1.068.328-1.247 1.411-.301 1.548.63 1.493-.452.561v.987l-1.904 1.479.343.644-.343 1.013 1.466 2.247.287 1.52-.356 1.753-.315.288-.602-.274-1.836 2.63-1.329.959-.767 1.137-1.561.712-.712.849-3.246.055-.85.712.041 2.109-.315.48-2.273-.014-1.534.658-1.096 1.78-4.013 1.288-.398 2.013.178 1.26 1.617 3.986 2.205 3.041 2.082 1.835 1.794.329 3.15 1.74 2.11 1.78.205.891-.068 1.095-.658-.931-.876-.137-.206 2.698-1.945 1.165-2.273 2.013-1.932 3.466-.328 2.068-1.261 1.602-.219.932-2.369 2.972.958 3.205.85.192 1.684 2.315-1.52.575-.699-.137-1.725-1.246-3.767 1.602-2.712-.904-1-1.643-1.534-.904-4.369.657-.836.452-1.274-.657-.698.15-1.055 1.384-.397.109-.493-.835-.726 1.123-.589-.11-1.822-1.602-1.397.548-.685-.521.041-1.15-3.123-.726-.397-.973-2.835-1.616-.754-3.383-.863-1.589-2.698-.945-6.794-.644-3.643.603-2.835-.261-5-1.808 4.096-4.794.575-.493.082-.164.205-.863-.342.027.863-1.15.356-2.877 3.164-3.821.438-1.575.069-1.397-.74-1.74 1.123-2.945-.082-.397-.246-.753-1.575-.644-.507-2.11.26-.821 1.931-2.397.891-3.671-1.617-1.712-.493-1.521-.726-.89 8.629-7.356 3.986-4.739.247.343.507-.672-.603.151 7.273-6.013 5.726-6.328.547-.863 1.206-1.274h.616l.438-.876-.397.123-.055.534-.712.068 2.164-2.588.809-.425.041-.452 1.082-1.876 2.602-2.932.164-.411.179-.397.191-.52-1.205.561.589-.616 1.014-.288-.891-1.356.233-.589 2.027-2.315 1.63-.876-.178-.562.658-.863 1.862-1.315.494.137.301.493-.274.316.589.479 2.274-.425 2.575-1.534 2.287-2.164.849-.383 1.712-2.932 4.685-1.219 1.63-1.178 2.671-.548z"/></mask><path stroke="#fff" stroke-width="2" d="m473.485 171.613 2.027 2.671.233 1.068.671.48-1.11 1.794.891.904-1.575 1.082.411.534.63-.205.232 1.329 1.466.534-1.657 2.246-2.178.918 1.233.589-.767 1.137-1.891.15-1.26-.397-.918.425-.273 1.534-.904 1.589-1.233.205-.082.48.684.671v.479l.315.082.288-.506.74.164.096 1.137 1.41 1.068-.561.849.452.261.945-.521.26.343-.438 2.89 1.041 1.191-.027.425-.836-.027-.26.369.753.932-.794.767.205.794-.794.535.89.479.26.616-1.027.48 1.287 1.178-.479.534-.246 1.808 1.15.644-1.424 1.219 1.369-.028 1.137-.931 1.027.246.288.288-1.027.575-.082.617 1.109.027.055.26-.781.809-1.068.328-1.247 1.411-.301 1.548.63 1.493-.452.561v.987l-1.904 1.479.343.644-.343 1.013 1.466 2.247.287 1.52-.356 1.753-.315.288-.602-.274-1.836 2.63-1.329.959-.767 1.137-1.561.712-.712.849-3.246.055-.85.712.041 2.109-.315.48-2.273-.014-1.534.658-1.096 1.78-4.013 1.288-.398 2.013.178 1.26 1.617 3.986 2.205 3.041 2.082 1.835 1.794.329 3.15 1.74 2.11 1.78.205.891-.068 1.095-.658-.931-.876-.137-.206 2.698-1.945 1.165-2.273 2.013-1.932 3.466-.328 2.068-1.261 1.602-.219.932-2.369 2.972.958 3.205.85.192 1.684 2.315-1.52.575-.699-.137-1.725-1.246-3.767 1.602-2.712-.904-1-1.643-1.534-.904-4.369.657-.836.452-1.274-.657-.698.15-1.055 1.384-.397.109-.493-.835-.726 1.123-.589-.11-1.822-1.602-1.397.548-.685-.521.041-1.15-3.123-.726-.397-.973-2.835-1.616-.754-3.383-.863-1.589-2.698-.945-6.794-.644-3.643.603-2.835-.261-5-1.808 4.096-4.794.575-.493.082-.164.205-.863-.342.027.863-1.15.356-2.877 3.164-3.821.438-1.575.069-1.397-.74-1.74 1.123-2.945-.082-.397-.246-.753-1.575-.644-.507-2.11.26-.821 1.931-2.397.891-3.671-1.617-1.712-.493-1.521-.726-.89 8.629-7.356 3.986-4.739.247.343.507-.672-.603.151 7.273-6.013 5.726-6.328.547-.863 1.206-1.274h.616l.438-.876-.397.123-.055.534-.712.068 2.164-2.588.809-.425.041-.452 1.082-1.876 2.602-2.932.164-.411.179-.397.191-.52-1.205.561.589-.616 1.014-.288-.891-1.356.233-.589 2.027-2.315 1.63-.876-.178-.562.658-.863 1.862-1.315.494.137.301.493-.274.316.589.479 2.274-.425 2.575-1.534 2.287-2.164.849-.383 1.712-2.932 4.685-1.219 1.63-1.178 2.671-.548z" mask="url(#j)"/><mask id="k" fill="#fff"><path d="m474.415 211.401 1.137.041.835 2.37 2.26 3.232.26 1.548 4.794 1.479 1.452 1.26 1.74.22.794.534.74.904 1.904 4.41 1.452.562.712 1.15 1.397 3.507 1.48 2.438h.506l.425-.644 1.109.754 1.726-.151 2.384-1.493-.055-1.123.507-.343.684.534 1.535-.849 3.999-.205 2.342 3.287 3.315.384 1.781 1.575 1.547.534.959 1.411 2 .219.753 1.082.083 3.411-.521 1.931 1.055 4.821-.548 2.192.603 5.273 1.506 2.52 1.767.754.603 2.383-1.192 1.315-.15.918.616.726-.206 1.068 2.63 3.219-.424.616-1.151.137-.26.973.52 2.178-.876.808-2.466-.398-3.383.781-2.082-1.137-1.383-.082-1.178.219-1.548.932-.849 1.178-.014 3.876.479.945 2.137 1.274-.342 2.15.931.562.562-.425 2.671-.506 1.013.191.302 1.165-.178 1.958-1.671 4.739-.206 1.726.11 1.836.589 1.698-3.082.918-1.343.89-2.725 3.767-3.452.767-4.794.26-2.548 1.233-4.232 4.438-1.397.863-1.986.534-3.055.041-2.945 1.438-4.287 4.027-3.698 2-.219.397.479.781-.384 1.616-4.355 3.835-3.52 2.055-.699-.192.192-1.945-1.658-1.37-4.355 2.055-1.836.507-5.396.917-2.493-.643-1.124.287-1.725 1.795-8.452-.206-1.534.343-1.808 1.712-1.835.219-1.356-4.904-.986-1.013-2.069-.534-.547-1.329-.905-.206-1.095.096-2.041 2.411-1.466 1.014-5.643 2.506-1.233 2.068-1.301.631-4.753-.726-2.712 1.191-2.589.055-1.63.986-2.849-.301-1.219-1.096-3.424.37-.932.644-1.41.205-1.795-.972-1.739-.398-.233-.356.37-1.41-.534-.384-1.904 2.726-1.493.685-2.644-1.11-1.219.411-2.835-.096.219-.37-1.178-3.068-3.904-3.945-.342-.753.15-.835.836-1.781-.493-1.164-.041-1.713-.343-.246.439-2.027-1.329-.795.438-1.082-.274-.904.507-1.205-.164-.438.917-1.63-.397-.452.096-2.301 1.219-2.671.192-2.411-.192-1.959-.575-1.411-.438-.465-1.274-.206.397-1.561 1.753-1.808 1.356-2.644.288.151.178-1.356-.808-.123 2.178-1.822 2.671-3.835.671-2.096-.219-3.876 2.273-1.822 2.534-3.904 1.48-1.301 1.945-2.821 4.438-5 4.999 1.808 2.835.26 3.644-.602 6.794.643 2.698.946.863 1.588.753 3.384 2.836 1.616.397.972 3.123.726-.041 1.151.685.52 1.397-.548 1.821 1.603.589.11.726-1.124.493.836.398-.11 1.054-1.383.699-.151 1.274.658.835-.452 4.37-.658 1.534.904 1 1.644 2.712.904 3.767-1.603 1.725 1.247.699.137 1.52-.575-1.684-2.315-.85-.192-.959-3.205 2.411-2.959.219-.931 1.261-1.603.328-2.068 1.932-3.465 2.273-2.014 1.945-1.164.206-2.698.876.137.658.931.068-1.096-.205-.89-2.109-1.781-3.151-1.739-1.794-.329-2.082-1.835-2.205-3.041-1.617-3.986-.178-1.26.397-2.014 4.014-1.287 1.096-1.781 1.534-.657 2.273.013.315-.479-.041-2.109.85-.713 3.246-.054.712-.85 1.562-.712.767-1.137 1.328-.958 1.836-2.63.602.274.315-.288.356-1.753-.287-1.521-1.466-2.246.343-1.014-.343-.643 1.904-1.48v-.986l.452-.561-.63-1.493.301-1.548 1.247-1.411z"/></mask><path stroke="#fff" stroke-width="2" d="m474.415 211.401 1.137.041.835 2.37 2.26 3.232.26 1.548 4.794 1.479 1.452 1.26 1.74.22.794.534.74.904 1.904 4.41 1.452.562.712 1.15 1.397 3.507 1.48 2.438h.506l.425-.644 1.109.754 1.726-.151 2.384-1.493-.055-1.123.507-.343.684.534 1.535-.849 3.999-.205 2.342 3.287 3.315.384 1.781 1.575 1.547.534.959 1.411 2 .219.753 1.082.083 3.411-.521 1.931 1.055 4.821-.548 2.192.603 5.273 1.506 2.52 1.767.754.603 2.383-1.192 1.315-.15.918.616.726-.206 1.068 2.63 3.219-.424.616-1.151.137-.26.973.52 2.178-.876.808-2.466-.398-3.383.781-2.082-1.137-1.383-.082-1.178.219-1.548.932-.849 1.178-.014 3.876.479.945 2.137 1.274-.342 2.15.931.562.562-.425 2.671-.506 1.013.191.302 1.165-.178 1.958-1.671 4.739-.206 1.726.11 1.836.589 1.698-3.082.918-1.343.89-2.725 3.767-3.452.767-4.794.26-2.548 1.233-4.232 4.438-1.397.863-1.986.534-3.055.041-2.945 1.438-4.287 4.027-3.698 2-.219.397.479.781-.384 1.616-4.355 3.835-3.52 2.055-.699-.192.192-1.945-1.658-1.37-4.355 2.055-1.836.507-5.396.917-2.493-.643-1.124.287-1.725 1.795-8.452-.206-1.534.343-1.808 1.712-1.835.219-1.356-4.904-.986-1.013-2.069-.534-.547-1.329-.905-.206-1.095.096-2.041 2.411-1.466 1.014-5.643 2.506-1.233 2.068-1.301.631-4.753-.726-2.712 1.191-2.589.055-1.63.986-2.849-.301-1.219-1.096-3.424.37-.932.644-1.41.205-1.795-.972-1.739-.398-.233-.356.37-1.41-.534-.384-1.904 2.726-1.493.685-2.644-1.11-1.219.411-2.835-.096.219-.37-1.178-3.068-3.904-3.945-.342-.753.15-.835.836-1.781-.493-1.164-.041-1.713-.343-.246.439-2.027-1.329-.795.438-1.082-.274-.904.507-1.205-.164-.438.917-1.63-.397-.452.096-2.301 1.219-2.671.192-2.411-.192-1.959-.575-1.411-.438-.465-1.274-.206.397-1.561 1.753-1.808 1.356-2.644.288.151.178-1.356-.808-.123 2.178-1.822 2.671-3.835.671-2.096-.219-3.876 2.273-1.822 2.534-3.904 1.48-1.301 1.945-2.821 4.438-5 4.999 1.808 2.835.26 3.644-.602 6.794.643 2.698.946.863 1.588.753 3.384 2.836 1.616.397.972 3.123.726-.041 1.151.685.52 1.397-.548 1.821 1.603.589.11.726-1.124.493.836.398-.11 1.054-1.383.699-.151 1.274.658.835-.452 4.37-.658 1.534.904 1 1.644 2.712.904 3.767-1.603 1.725 1.247.699.137 1.52-.575-1.684-2.315-.85-.192-.959-3.205 2.411-2.959.219-.931 1.261-1.603.328-2.068 1.932-3.465 2.273-2.014 1.945-1.164.206-2.698.876.137.658.931.068-1.096-.205-.89-2.109-1.781-3.151-1.739-1.794-.329-2.082-1.835-2.205-3.041-1.617-3.986-.178-1.26.397-2.014 4.014-1.287 1.096-1.781 1.534-.657 2.273.013.315-.479-.041-2.109.85-.713 3.246-.054.712-.85 1.562-.712.767-1.137 1.328-.958 1.836-2.63.602.274.315-.288.356-1.753-.287-1.521-1.466-2.246.343-1.014-.343-.643 1.904-1.48v-.986l.452-.561-.63-1.493.301-1.548 1.247-1.411z" mask="url(#k)"/><mask id="l" fill="#fff"><path d="m577.373 214.732.603.247 3.205-.507 2.328 1.356.904 1.89.891.438 1.054-.219 1.137 1.48 1.068.547.535 1.083.685 3.547 1.356.096 1.739-1.466 1.548.274 2.178 1.521.466.767 3.068.287.548 2 1.903 2.726 1.315 3.027-1.15 1.685-.165 1.452-.931 1.397.63 1.123-1.205 2.753 1.356 1.151-.274 1.506-.863.603-2.63-.63-3.178.603-1.219.602-.383.411-.274 1.795-.781 1.013-1.027.973-1.877.096-1.164 1.123-.041 2.123-1.356.945.274 2.123-1.178.521-.356.863.465 1.013 1.165.397.479 1.822-.37 1.027-.109 1.877.424 1-.013 1.15-.548.891-2.521 1.917-.205.781-2.603-.11-1.931 2.562-4.931 2.178-.137 2.575-.575 1.356-1.931.014-1.014.383-2.15-.397-2 1.26-1.288 1.781-8.341 3.273-7.849 4.876-3.205 1.083-2.616-.685-1.603.753-2.493.356-1.506 1.89-.192 1 .822 2.26-.74.699-1.096 3.219-1.068-.247-1.206.493-.643-1-2.575.315-1.466.74-8.465-2.52-3.616-.055-.589-1.698-.11-1.836.206-1.726 1.671-4.739.178-1.959-.315-1.164-1-.192-2.671.493-.561.425-.932-.562.343-2.136-2.137-1.288-.466-.945v-3.876l.849-1.178 1.548-.932 1.192-.219 1.37.082 2.082 1.137 3.369-.781 2.479.398.877-.822-.534-2.178.26-.973 1.15-.136.425-.617-2.63-3.219.206-1.054-.617-.74.151-.918 1.178-1.315-.603-2.383-1.767-.753-1.52-2.521-.603-5.259.548-2.192-1.055-4.821.521-1.945-.082-3.411 2.931-3.013 2.438-6.603.342-5.547.603-1.657-.219-.713 1.205.343 1.165 1.274h1.15l2.507-.904 1.698-1.507 2.164-.274.425-.849.562-.11 1.671.767 2.602.096 1.466.754 2.41.273.233-.684-.685-.672.329-.534.699-.164.808-.808 2.63-.466 2.917.548 2.11.972 2.89-.301.986.288 5.547-.124 3.808-1.451 5.164-.521 1.904-1.164.699-1.343z"/></mask><path stroke="#fff" stroke-width="2" d="m577.373 214.732.603.247 3.205-.507 2.328 1.356.904 1.89.891.438 1.054-.219 1.137 1.48 1.068.547.535 1.083.685 3.547 1.356.096 1.739-1.466 1.548.274 2.178 1.521.466.767 3.068.287.548 2 1.903 2.726 1.315 3.027-1.15 1.685-.165 1.452-.931 1.397.63 1.123-1.205 2.753 1.356 1.151-.274 1.506-.863.603-2.63-.63-3.178.603-1.219.602-.383.411-.274 1.795-.781 1.013-1.027.973-1.877.096-1.164 1.123-.041 2.123-1.356.945.274 2.123-1.178.521-.356.863.465 1.013 1.165.397.479 1.822-.37 1.027-.109 1.877.424 1-.013 1.15-.548.891-2.521 1.917-.205.781-2.603-.11-1.931 2.562-4.931 2.178-.137 2.575-.575 1.356-1.931.014-1.014.383-2.15-.397-2 1.26-1.288 1.781-8.341 3.273-7.849 4.876-3.205 1.083-2.616-.685-1.603.753-2.493.356-1.506 1.89-.192 1 .822 2.26-.74.699-1.096 3.219-1.068-.247-1.206.493-.643-1-2.575.315-1.466.74-8.465-2.52-3.616-.055-.589-1.698-.11-1.836.206-1.726 1.671-4.739.178-1.959-.315-1.164-1-.192-2.671.493-.561.425-.932-.562.343-2.136-2.137-1.288-.466-.945v-3.876l.849-1.178 1.548-.932 1.192-.219 1.37.082 2.082 1.137 3.369-.781 2.479.398.877-.822-.534-2.178.26-.973 1.15-.136.425-.617-2.63-3.219.206-1.054-.617-.74.151-.918 1.178-1.315-.603-2.383-1.767-.753-1.52-2.521-.603-5.259.548-2.192-1.055-4.821.521-1.945-.082-3.411 2.931-3.013 2.438-6.603.342-5.547.603-1.657-.219-.713 1.205.343 1.165 1.274h1.15l2.507-.904 1.698-1.507 2.164-.274.425-.849.562-.11 1.671.767 2.602.096 1.466.754 2.41.273.233-.684-.685-.672.329-.534.699-.164.808-.808 2.63-.466 2.917.548 2.11.972 2.89-.301.986.288 5.547-.124 3.808-1.451 5.164-.521 1.904-1.164.699-1.343z" mask="url(#l)"/><mask id="m" fill="#fff"><path d="m587.859 262.316 2.055-.507 3.424-2.452 1.287.068 7.123 4.863.603.794-1.397 2.904-11.876 12.574-.616 1.891.657.671 3.739.534 3.726-.877 7.26 1.986.821.658 1.356 2.52 3.781 2.301 4.041 1.247 1.301.822 1.561 1.739.644 1.48.356 1.862-.246 3.603-1.261 4.602-2.177 5.096-1.178 9.136-1.562 7.656.11 1.822.972 4.644 2.767 4.821 1.534 1.918.26 1.219 2.589 3.547.041 9.876-.575 3.096.137 7.561-.329 4.533.685 1.315.493 2.534 1.356 1.891.726.383 1.808 5.232-1.041.329-5.314 4.027-.63 1.082-1.726 1.082-2.164 3.63.356 2.329-.726 1.753-10.533 14.985-.891.37.384.616-.589 1.301-.37.124-.657-.767-1.452.041-1.233-.754-1.096-.178-1.972-2.082-1.343 1.178-1.808.096.261-1.781 1.027-1.534.055-.726-1.178-.863-2.822-.835-3.314.397-.85.712-4.04.343-3.11 1.041-1.082-.041-1.301.644-5.342-1.178-2.89.273v.288l-1.383.452-2.192-.301-4.383.164-.63.384-.219.671-.452-.589.192-1.658-.535-3.821.713-5.287-.261-4.918 1.096-5.109-.26-8.821-2.151-5.095-7.93-12.519-2.233-2.398-2.548-1.383-1.383.082-1.137.411-1.561 1.438-2.548 3.534-1.452.411-2.671 1.548h-2.589l-4.931-2.274-2.136-.328-.781.273-2.37 2.576-2.328 5.355-.877 4.438-1.219.89-7.972-.356-2.616-.479-1.52-1.534-.507-3.26-.466-.959-.808-.986-4.054-2.63-2.301 1.301-2.028 1.781-1.534 2.986-.164 1.164 1.548 7.52-.082.877-.973 1.164-.835.479-2.918-.123-3.808-1.137-1.999.288-2.219 1.452-3.507 3.657-2.52.63-.781.562-2-.37-3.547-1.521-5.89-4.205-1.438-.315-1.137.26-1.657 1.411-1.658 4.109-1.137 1.548-1.027.617-1.63.068-8.492-4.178-1.411-.369-2.274-.096-1.794.479-1.849 1.657.096 2.932.917.794 2.151-.835 1.411.082.301.438-.274 1.863-1.959 2.055-1.561 2.438-.521 2.027-.178 7.136 1.055 2.493 1.712 1.26.438 1.11-.657 1.205-11.465 3.397-1.438.753-3.575.083-3.287-.494-.712.398-1.247.849-1.753 3.602-1.986 8.383-.219-.904-1.685-2.178-.808-2.054-1.931-1.055-2.247.082-1.452-.63-2.136.562-1.055 2.082-1.931 1.588-4.014.754-3.26 1.726-3.287.863-.794-.384-1.986.301-.493-.26-1.315-2.369-1.685-1.466-1.945-.178-1.301.397-1.589 1.89-2.137 6-.616.589-1.945.822-2.11-.589-1.931.63-5.493 4.054-1.547.206-.726-.411-.603-1.055-1.26-.37-2.479.507-5.685-.685-1.739.37-.986-.206-2.452-1.917.794-2.027.959-.48.178-1.055 3.205-3.67.562-1.124 1.808-1.588 2.274-1.151 1.903-1.835 1.74-3.795 1.37-2.013 1.821-1.699 1.11-2.506 1.109-1.151.384-.794-.192-1.055.48-.329-.069-.589.534-.315-.191-.657.424-.206.027-.849.699-.479.616-1.534 1.671-2.055.548-1.52 7.849-7.739.342-1 1.877-2.548-.082-.699 1.424-2.109.082-.945 3.479-7.355 1.124-1.494.178-.136.095-.836 1.315-4.575.014-2.123 1.808-9.164.178-.315.233-.054-.411-.781.521-1.082-.233-.918-.617-.89-.191.315-.466-.055-.274.069-.726-.617-.041-.397-.712-.534-.904-3.288-.535-.52-.698-1.973-2.014-.602-.328-1.37-1.918-2.178-2.178-1.041-2.191.219-1.137-.424.603-3.685 1.451-1.822-.095-.726 2.397-4.903-.055-1.178-.37-.425-.479.233-.206-.603 1-2.671-.657-1.178v-2.424l3.903 3.945 1.178 3.068-.219.37 2.835.096 1.219-.411 2.644 1.109 1.493-.685 1.904-2.725.534.383-.37 1.411.233.356 1.74.397 1.794.973 1.411-.206.931-.643 3.424-.37 1.219 1.096 2.849.301 1.63-.986 2.589-.055 2.712-1.192 4.753.726 1.301-.63 1.233-2.068 5.643-2.507 1.466-1.013 2.041-2.411 1.096-.096.904.206.548 1.328 2.068.534.986 1.014 1.356 4.904 1.835-.22 1.808-1.712 1.535-.342 8.451.205 1.726-1.794 1.123-.288 2.493.644 5.396-.918 1.836-.506 4.355-2.055 1.658 1.37-.192 1.945.699.191 3.52-2.054 4.355-3.835.384-1.617-.479-.78.219-.398 3.698-1.999 4.287-4.027 2.945-1.439 3.055-.041 1.986-.534 1.397-.863 4.232-4.438 2.548-1.233 4.794-.26 3.452-.767 2.725-3.767 1.343-.89 3.081-.918 3.617.055 8.478 2.534 1.466-.753 2.575-.302.643 1 1.206-.493 1.068.247 1.11-3.233.739-.698-.821-2.26.205-1 1.493-1.891 2.493-.356 1.602-.753 2.63.671 3.205-1.082 7.849-4.876 8.341-3.274 1.274-1.781 2-1.273 2.151.411 1.013-.384 1.931-.014.576-1.356.137-2.561 4.931-2.192 1.931-2.547 2.602.109.206-.781 2.52-1.931.548-.89.014-1.151-.439-1.013z"/></mask><path stroke="#fff" stroke-width="2" d="m587.859 262.316 2.055-.507 3.424-2.452 1.287.068 7.123 4.863.603.794-1.397 2.904-11.876 12.574-.616 1.891.657.671 3.739.534 3.726-.877 7.26 1.986.821.658 1.356 2.52 3.781 2.301 4.041 1.247 1.301.822 1.561 1.739.644 1.48.356 1.862-.246 3.603-1.261 4.602-2.177 5.096-1.178 9.136-1.562 7.656.11 1.822.972 4.644 2.767 4.821 1.534 1.918.26 1.219 2.589 3.547.041 9.876-.575 3.096.137 7.561-.329 4.533.685 1.315.493 2.534 1.356 1.891.726.383 1.808 5.232-1.041.329-5.314 4.027-.63 1.082-1.726 1.082-2.164 3.63.356 2.329-.726 1.753-10.533 14.985-.891.37.384.616-.589 1.301-.37.124-.657-.767-1.452.041-1.233-.754-1.096-.178-1.972-2.082-1.343 1.178-1.808.096.261-1.781 1.027-1.534.055-.726-1.178-.863-2.822-.835-3.314.397-.85.712-4.04.343-3.11 1.041-1.082-.041-1.301.644-5.342-1.178-2.89.273v.288l-1.383.452-2.192-.301-4.383.164-.63.384-.219.671-.452-.589.192-1.658-.535-3.821.713-5.287-.261-4.918 1.096-5.109-.26-8.821-2.151-5.095-7.93-12.519-2.233-2.398-2.548-1.383-1.383.082-1.137.411-1.561 1.438-2.548 3.534-1.452.411-2.671 1.548h-2.589l-4.931-2.274-2.136-.328-.781.273-2.37 2.576-2.328 5.355-.877 4.438-1.219.89-7.972-.356-2.616-.479-1.52-1.534-.507-3.26-.466-.959-.808-.986-4.054-2.63-2.301 1.301-2.028 1.781-1.534 2.986-.164 1.164 1.548 7.52-.082.877-.973 1.164-.835.479-2.918-.123-3.808-1.137-1.999.288-2.219 1.452-3.507 3.657-2.52.63-.781.562-2-.37-3.547-1.521-5.89-4.205-1.438-.315-1.137.26-1.657 1.411-1.658 4.109-1.137 1.548-1.027.617-1.63.068-8.492-4.178-1.411-.369-2.274-.096-1.794.479-1.849 1.657.096 2.932.917.794 2.151-.835 1.411.082.301.438-.274 1.863-1.959 2.055-1.561 2.438-.521 2.027-.178 7.136 1.055 2.493 1.712 1.26.438 1.11-.657 1.205-11.465 3.397-1.438.753-3.575.083-3.287-.494-.712.398-1.247.849-1.753 3.602-1.986 8.383-.219-.904-1.685-2.178-.808-2.054-1.931-1.055-2.247.082-1.452-.63-2.136.562-1.055 2.082-1.931 1.588-4.014.754-3.26 1.726-3.287.863-.794-.384-1.986.301-.493-.26-1.315-2.369-1.685-1.466-1.945-.178-1.301.397-1.589 1.89-2.137 6-.616.589-1.945.822-2.11-.589-1.931.63-5.493 4.054-1.547.206-.726-.411-.603-1.055-1.26-.37-2.479.507-5.685-.685-1.739.37-.986-.206-2.452-1.917.794-2.027.959-.48.178-1.055 3.205-3.67.562-1.124 1.808-1.588 2.274-1.151 1.903-1.835 1.74-3.795 1.37-2.013 1.821-1.699 1.11-2.506 1.109-1.151.384-.794-.192-1.055.48-.329-.069-.589.534-.315-.191-.657.424-.206.027-.849.699-.479.616-1.534 1.671-2.055.548-1.52 7.849-7.739.342-1 1.877-2.548-.082-.699 1.424-2.109.082-.945 3.479-7.355 1.124-1.494.178-.136.095-.836 1.315-4.575.014-2.123 1.808-9.164.178-.315.233-.054-.411-.781.521-1.082-.233-.918-.617-.89-.191.315-.466-.055-.274.069-.726-.617-.041-.397-.712-.534-.904-3.288-.535-.52-.698-1.973-2.014-.602-.328-1.37-1.918-2.178-2.178-1.041-2.191.219-1.137-.424.603-3.685 1.451-1.822-.095-.726 2.397-4.903-.055-1.178-.37-.425-.479.233-.206-.603 1-2.671-.657-1.178v-2.424l3.903 3.945 1.178 3.068-.219.37 2.835.096 1.219-.411 2.644 1.109 1.493-.685 1.904-2.725.534.383-.37 1.411.233.356 1.74.397 1.794.973 1.411-.206.931-.643 3.424-.37 1.219 1.096 2.849.301 1.63-.986 2.589-.055 2.712-1.192 4.753.726 1.301-.63 1.233-2.068 5.643-2.507 1.466-1.013 2.041-2.411 1.096-.096.904.206.548 1.328 2.068.534.986 1.014 1.356 4.904 1.835-.22 1.808-1.712 1.535-.342 8.451.205 1.726-1.794 1.123-.288 2.493.644 5.396-.918 1.836-.506 4.355-2.055 1.658 1.37-.192 1.945.699.191 3.52-2.054 4.355-3.835.384-1.617-.479-.78.219-.398 3.698-1.999 4.287-4.027 2.945-1.439 3.055-.041 1.986-.534 1.397-.863 4.232-4.438 2.548-1.233 4.794-.26 3.452-.767 2.725-3.767 1.343-.89 3.081-.918 3.617.055 8.478 2.534 1.466-.753 2.575-.302.643 1 1.206-.493 1.068.247 1.11-3.233.739-.698-.821-2.26.205-1 1.493-1.891 2.493-.356 1.602-.753 2.63.671 3.205-1.082 7.849-4.876 8.341-3.274 1.274-1.781 2-1.273 2.151.411 1.013-.384 1.931-.014.576-1.356.137-2.561 4.931-2.192 1.931-2.547 2.602.109.206-.781 2.52-1.931.548-.89.014-1.151-.439-1.013z" mask="url(#m)"/><mask id="n" fill="#fff"><path d="m276.616 488.278-4.191 1.781-.315.123-1.48.548-9.327 4.876-7.835 1.932-1.233-.014-16.259 3.424-13.067 1.671-2.178.644-2.767.123-.725.672-.302.684-1.15.535-.343.972-.89.959-1.342 4.657-.987.781-1.178 2.561-1.082.931-2.191.85-2.808 1.78-1.616 4-1.658 6.862-2.671 7.465-1.068 1.89-.165 1.178-5.41 9.246-.425 3.15-.287.781.233.685-.644 1.479.014.288-2.233 5.478-1.342 5.096-1.658 4.191-2.246 4.027-2.246 2.438-3.151 2.534-12.601 7.534-3.014 2.588-5.369 2.096-5.315.575-1.178 2.425-2.054 2.616-4.315 3.493-3.931.821-4.136 5.561-.987 2.206.822 1.958-.096 3.342-.548 2.795-3.588 8.04-2.452 3.561-1.205.986-1.439 5.945-1.109 2.671.041 1.986-.63 2.26-1.205 2.411-3.452 4.794-.301 2.547-1.85 4.507.137 2.451-1.041 2.767.466 2.466-.466 2.068.452 1.425-.219 1.068.658.425.506 1.41-.273 4.233-.48 1.821.274 2.014-2.822 7.958-.273 1.589.273 2.219-3.259 2.904-2.096 1.068-.329 1.918-.438.643 4.219.658 7.081 2.862 1.63 1.083 3.082 4.451 1.63.918 1.657.37 6.643-1.082 10.986-2.795 11.19-.602 13.725 3.164 3.986 1.616 2.397.562 9.177-2.493 4.013-1.863 7.342-2.603 9.109-.821 15.382 3.013 11.272 3.876 4.589.014 12.232-2.602 8.629-.014 2.753.685 3.219-.699-.014-88.346-22.943.095-.726-5.218-.945-2.904-.507-3.547-.945-3.466-1.15-1.753-.302-2.52-1.862-5.164-.466-2.123.137-2.301 1.055-4.027 2.575-5.233 4.52-5.424 5.164-5.04 3.164-4 3.547-9.122 2.74-5.068 2.356-10.013 2.123-5.465 6.876-10.177 3.986-3.547 2.684-1.63 10.876.041-.822-4.465 1.753-.466 4.438.068-4.41-5.232-2.438-3.931-1.74-5.191-3.643-3.781-3.192-8.451-.246.178z"/></mask><path stroke="#fff" stroke-width="2" d="m276.616 488.278-4.191 1.781-.315.123-1.48.548-9.327 4.876-7.835 1.932-1.233-.014-16.259 3.424-13.067 1.671-2.178.644-2.767.123-.725.672-.302.684-1.15.535-.343.972-.89.959-1.342 4.657-.987.781-1.178 2.561-1.082.931-2.191.85-2.808 1.78-1.616 4-1.658 6.862-2.671 7.465-1.068 1.89-.165 1.178-5.41 9.246-.425 3.15-.287.781.233.685-.644 1.479.014.288-2.233 5.478-1.342 5.096-1.658 4.191-2.246 4.027-2.246 2.438-3.151 2.534-12.601 7.534-3.014 2.588-5.369 2.096-5.315.575-1.178 2.425-2.054 2.616-4.315 3.493-3.931.821-4.136 5.561-.987 2.206.822 1.958-.096 3.342-.548 2.795-3.588 8.04-2.452 3.561-1.205.986-1.439 5.945-1.109 2.671.041 1.986-.63 2.26-1.205 2.411-3.452 4.794-.301 2.547-1.85 4.507.137 2.451-1.041 2.767.466 2.466-.466 2.068.452 1.425-.219 1.068.658.425.506 1.41-.273 4.233-.48 1.821.274 2.014-2.822 7.958-.273 1.589.273 2.219-3.259 2.904-2.096 1.068-.329 1.918-.438.643 4.219.658 7.081 2.862 1.63 1.083 3.082 4.451 1.63.918 1.657.37 6.643-1.082 10.986-2.795 11.19-.602 13.725 3.164 3.986 1.616 2.397.562 9.177-2.493 4.013-1.863 7.342-2.603 9.109-.821 15.382 3.013 11.272 3.876 4.589.014 12.232-2.602 8.629-.014 2.753.685 3.219-.699-.014-88.346-22.943.095-.726-5.218-.945-2.904-.507-3.547-.945-3.466-1.15-1.753-.302-2.52-1.862-5.164-.466-2.123.137-2.301 1.055-4.027 2.575-5.233 4.52-5.424 5.164-5.04 3.164-4 3.547-9.122 2.74-5.068 2.356-10.013 2.123-5.465 6.876-10.177 3.986-3.547 2.684-1.63 10.876.041-.822-4.465 1.753-.466 4.438.068-4.41-5.232-2.438-3.931-1.74-5.191-3.643-3.781-3.192-8.451-.246.178z" mask="url(#n)"/><mask id="o" fill="#fff"><path d="m343.242 440.047-5.999 4.15-8.301 4.835-11.492 6.109-1.808.603-1.78 1.233-.028.63-2.013 2.616-1.014.507-1.74 1.972-2.342 1.699-2.15 2.808-2.74 2.205-2.383 2.972.041.575-1.986 1.85-.945 1.999-1.849 1.644-1.041 2.342-3.205 2.096-.261.616.507.658-.794-.233-.041-.438-.425-.151-4.424 1.89-.301.069-1.932.561-5.41 2.151 3.191 8.451 3.644 3.78 1.739 5.192 2.438 3.931 4.411 5.232-4.438-.068-1.753.465.822 4.466-10.876-.041-2.685 1.629-3.986 3.548-6.876 10.177-2.123 5.465-2.356 10.013-2.739 5.068-3.548 9.122-3.164 4-5.163 5.04-4.521 5.425-2.575 5.232-1.054 4.027-.137 2.301.465 2.123 1.863 5.164.302 2.52 1.15 1.753.945 3.466.507 3.547.945 2.904.726 5.219 22.943-.096 173.283-.096.343-158.312 10.821-4.918 7.218-7.026 7.465-5.918 1.397-.041 3.767-2.917 5.972-3.534.383-.959 1.247-1.37 4.602-2.698 3.041-2.685 5.328-2.493 1.055-.273.657.219 1.356-2.082-.082-1.397 1.411-1.124 5.452.685 4.314-.986 1.096.096.794-.699 2.096-.616 4.972-4.972 4.685-2.219 2.191.014 4.438 1.726 1.726-.617 1.274.562 2.575-.178 1.274.739 1.808.137 1.164.877 2.945.356 1.055-.301 1.876-2.301 1.356-.562 3.301-.274.658-.589 4.739.521.671-.85 2.767-1.575 1.082-.246 2.191.356.192-1.658-.534-3.821.712-5.301-.26-4.904 1.096-5.109-.274-8.834-2.151-5.082-7.93-12.519-2.233-2.397-2.561-1.384-1.384.082-1.137.425-1.575 1.425-2.547 3.533-1.452.425-2.671 1.548h-2.589l-4.931-2.274-2.151-.329-.767.288-2.383 2.575-2.328 5.356-.877 4.438-1.233.89-7.972-.356-2.602-.48-1.52-1.534-.494-3.26-.479-.958-.794-.987-4.068-2.63-2.302 1.315-2.041 1.767-1.534 3-.164 1.151 1.548 7.519-.096.891-.973 1.164-.835.466-2.918-.11-3.794-1.137-2 .288-2.232 1.452-3.493 3.657-2.52.63-.781.562-2-.384-3.547-1.52-5.89-4.205-1.452-.315-1.137.246-1.657 1.425-1.658 4.109-1.137 1.548-1.013.616-1.644.055-8.492-4.178-1.411-.383-2.274-.096-1.808.479-1.835 1.658.096 2.931.917.794 2.151-.835 1.411.082.301.438-.26 1.863-1.959 2.055-1.575 2.438-.521 2.027-.164 7.136 1.055 2.493 1.712 1.26.438 1.11-.657 1.219-11.465 3.397-1.452.753-3.561.082-3.287-.493-.726.397-1.233.863-1.767 3.603-1.986 8.382-.219-.904-1.685-2.178-.794-2.041-1.932-1.054-2.26.068-1.452-.616-2.136.561-1.055 2.082-1.931 1.589-4.014.74-3.26 1.726-3.287.876-.794-.383-2 .301-.493-.26-1.315-2.37-1.685-1.452-1.945-.191-1.301.397-1.589 1.89-2.137 6-.616.589-1.945.808-2.11-.576-1.931.617-5.493 4.054-1.547.206-.726-.411-.589-1.055-1.274-.37-2.479.507-5.671-.699-1.739.37-.987-.205-2.451-1.918-.411.069z"/></mask><path stroke="#fff" stroke-width="2" d="m343.242 440.047-5.999 4.15-8.301 4.835-11.492 6.109-1.808.603-1.78 1.233-.028.63-2.013 2.616-1.014.507-1.74 1.972-2.342 1.699-2.15 2.808-2.74 2.205-2.383 2.972.041.575-1.986 1.85-.945 1.999-1.849 1.644-1.041 2.342-3.205 2.096-.261.616.507.658-.794-.233-.041-.438-.425-.151-4.424 1.89-.301.069-1.932.561-5.41 2.151 3.191 8.451 3.644 3.78 1.739 5.192 2.438 3.931 4.411 5.232-4.438-.068-1.753.465.822 4.466-10.876-.041-2.685 1.629-3.986 3.548-6.876 10.177-2.123 5.465-2.356 10.013-2.739 5.068-3.548 9.122-3.164 4-5.163 5.04-4.521 5.425-2.575 5.232-1.054 4.027-.137 2.301.465 2.123 1.863 5.164.302 2.52 1.15 1.753.945 3.466.507 3.547.945 2.904.726 5.219 22.943-.096 173.283-.096.343-158.312 10.821-4.918 7.218-7.026 7.465-5.918 1.397-.041 3.767-2.917 5.972-3.534.383-.959 1.247-1.37 4.602-2.698 3.041-2.685 5.328-2.493 1.055-.273.657.219 1.356-2.082-.082-1.397 1.411-1.124 5.452.685 4.314-.986 1.096.096.794-.699 2.096-.616 4.972-4.972 4.685-2.219 2.191.014 4.438 1.726 1.726-.617 1.274.562 2.575-.178 1.274.739 1.808.137 1.164.877 2.945.356 1.055-.301 1.876-2.301 1.356-.562 3.301-.274.658-.589 4.739.521.671-.85 2.767-1.575 1.082-.246 2.191.356.192-1.658-.534-3.821.712-5.301-.26-4.904 1.096-5.109-.274-8.834-2.151-5.082-7.93-12.519-2.233-2.397-2.561-1.384-1.384.082-1.137.425-1.575 1.425-2.547 3.533-1.452.425-2.671 1.548h-2.589l-4.931-2.274-2.151-.329-.767.288-2.383 2.575-2.328 5.356-.877 4.438-1.233.89-7.972-.356-2.602-.48-1.52-1.534-.494-3.26-.479-.958-.794-.987-4.068-2.63-2.302 1.315-2.041 1.767-1.534 3-.164 1.151 1.548 7.519-.096.891-.973 1.164-.835.466-2.918-.11-3.794-1.137-2 .288-2.232 1.452-3.493 3.657-2.52.63-.781.562-2-.384-3.547-1.52-5.89-4.205-1.452-.315-1.137.246-1.657 1.425-1.658 4.109-1.137 1.548-1.013.616-1.644.055-8.492-4.178-1.411-.383-2.274-.096-1.808.479-1.835 1.658.096 2.931.917.794 2.151-.835 1.411.082.301.438-.26 1.863-1.959 2.055-1.575 2.438-.521 2.027-.164 7.136 1.055 2.493 1.712 1.26.438 1.11-.657 1.219-11.465 3.397-1.452.753-3.561.082-3.287-.493-.726.397-1.233.863-1.767 3.603-1.986 8.382-.219-.904-1.685-2.178-.794-2.041-1.932-1.054-2.26.068-1.452-.616-2.136.561-1.055 2.082-1.931 1.589-4.014.74-3.26 1.726-3.287.876-.794-.383-2 .301-.493-.26-1.315-2.37-1.685-1.452-1.945-.191-1.301.397-1.589 1.89-2.137 6-.616.589-1.945.808-2.11-.576-1.931.617-5.493 4.054-1.547.206-.726-.411-.589-1.055-1.274-.37-2.479.507-5.671-.699-1.739.37-.987-.205-2.451-1.918-.411.069z" mask="url(#o)"/><mask id="p" fill="#fff"><path d="m109.55 697.725 4.232.658 7.068 2.862 1.643 1.082 3.082 4.452 1.63.918 1.658.37 6.643-1.083 10.985-2.794 11.19-.616 13.725 3.164 3.972 1.616 2.397.575 9.177-2.506 4.013-1.849 7.342-2.617 9.109-.821 15.395 3.027 11.259 3.862 4.589.014 12.231-2.616h8.629l2.767.671 3.205-.698.206 56.473-39.544 3.781-4.712 3.301-5.547 6.52-4.602 7.314-2.068 4.986-2.754 11.697-.383 3.082 7.492 78.184-101.947-.712-101.907.74-1.068.205-3.301 12.328-1.918 3.561-.466 3.329-.917 3.164-.014 4.602.767 3.63.301.137-.315.15-1.589-3.123-.698.014L0 907.704l1.41-2.232-.93-2.055 1.643-4.342-.041-4.356 1.082-4.588-.342-1.247 1.205-5.931-.233-2.027 2.616-12.889-.178-2.739.59-2.891-.425-3.218 1.63-2.288-.014-.52-.754-.206.33-3.027 3.04-4 .356-1.191-.192-1.192 1.315-2.602 3.383-9.712 1.726-.794.247-.575-.329-.85.356-.863 2.685-2.095.877-1.452.972-.808 1.493.096.863 1.397 1.48-.137 3.15-1.096 2.725-1.849-.027-1.397.931-.726.932-1.685.397-3.835.671-1.219-.041-1.055.657-1.219 2.15-1.397 1.384-1.699.247-2.616.644-1.342-.055-4.233.37-1.821 2.534-4.37-.11-.808-.74-.205.809-2.932.794.493 3.082-1.232 2.15-2.082 1.356-2.233.274-2.192-.329-1.41-.74-1.137-1.013-.671-.959.178-.547.589.575-1.685.52-1.137 1.329-.877 2.068-2.616.52-1.096-.082-1.342 2.89-4.397-.342-1.013 2.986-2.712 1.48-2.055 1.52-3.383-1.233-2 1.794-1.014.987-1.63.808-.479 1.602-3.548.822-.287.603-.74.74-1.602 1.657-2.028 1.082-2.356 1.794-1.479.616-1.726 1.055-.712-.178-.507-1.48 1.11.535-2.589 1.342-2.096-.534-1.493 1.137-3.219-.822.425-.959.973-.849.205.15 1.342-.739 1.397-.164-.424-.028-.315-.191-.534-.795.547-1.11 2.343-1.273.822-.301.041-.11-.494-.74.535-2.26 3.205-1.52 5.561-1.712 1.479-.123.137-1.124 1.699-.11.753-.862-.246-.343-1 1.11-1.726 1.315-1.206.15-1.438 1.713-1.726-.096-.739 1.096-2.712 3.3-3.959 1.767-1.356.124-.562 2.917-1.999 4.534-2.329 3.575-2.548.835-1.205-.383-.589.562-1.055 2.013-1.397.74-1.465.89-.548 4.465-4.904 4.438-3.465 4.561-6.397 4.027-4.219 2.233-1.274 5.314-2.123.808-.726z"/></mask><path stroke="#fff" stroke-width="2" d="m109.55 697.725 4.232.658 7.068 2.862 1.643 1.082 3.082 4.452 1.63.918 1.658.37 6.643-1.083 10.985-2.794 11.19-.616 13.725 3.164 3.972 1.616 2.397.575 9.177-2.506 4.013-1.849 7.342-2.617 9.109-.821 15.395 3.027 11.259 3.862 4.589.014 12.231-2.616h8.629l2.767.671 3.205-.698.206 56.473-39.544 3.781-4.712 3.301-5.547 6.52-4.602 7.314-2.068 4.986-2.754 11.697-.383 3.082 7.492 78.184-101.947-.712-101.907.74-1.068.205-3.301 12.328-1.918 3.561-.466 3.329-.917 3.164-.014 4.602.767 3.63.301.137-.315.15-1.589-3.123-.698.014L0 907.704l1.41-2.232-.93-2.055 1.643-4.342-.041-4.356 1.082-4.588-.342-1.247 1.205-5.931-.233-2.027 2.616-12.889-.178-2.739.59-2.891-.425-3.218 1.63-2.288-.014-.52-.754-.206.33-3.027 3.04-4 .356-1.191-.192-1.192 1.315-2.602 3.383-9.712 1.726-.794.247-.575-.329-.85.356-.863 2.685-2.095.877-1.452.972-.808 1.493.096.863 1.397 1.48-.137 3.15-1.096 2.725-1.849-.027-1.397.931-.726.932-1.685.397-3.835.671-1.219-.041-1.055.657-1.219 2.15-1.397 1.384-1.699.247-2.616.644-1.342-.055-4.233.37-1.821 2.534-4.37-.11-.808-.74-.205.809-2.932.794.493 3.082-1.232 2.15-2.082 1.356-2.233.274-2.192-.329-1.41-.74-1.137-1.013-.671-.959.178-.547.589.575-1.685.52-1.137 1.329-.877 2.068-2.616.52-1.096-.082-1.342 2.89-4.397-.342-1.013 2.986-2.712 1.48-2.055 1.52-3.383-1.233-2 1.794-1.014.987-1.63.808-.479 1.602-3.548.822-.287.603-.74.74-1.602 1.657-2.028 1.082-2.356 1.794-1.479.616-1.726 1.055-.712-.178-.507-1.48 1.11.535-2.589 1.342-2.096-.534-1.493 1.137-3.219-.822.425-.959.973-.849.205.15 1.342-.739 1.397-.164-.424-.028-.315-.191-.534-.795.547-1.11 2.343-1.273.822-.301.041-.11-.494-.74.535-2.26 3.205-1.52 5.561-1.712 1.479-.123.137-1.124 1.699-.11.753-.862-.246-.343-1 1.11-1.726 1.315-1.206.15-1.438 1.713-1.726-.096-.739 1.096-2.712 3.3-3.959 1.767-1.356.124-.562 2.917-1.999 4.534-2.329 3.575-2.548.835-1.205-.383-.589.562-1.055 2.013-1.397.74-1.465.89-.548 4.465-4.904 4.438-3.465 4.561-6.397 4.027-4.219 2.233-1.274 5.314-2.123.808-.726z" mask="url(#p)"/></g><defs><clipPath id="a"><path fill="#fff" d="M0 0h838.971v896.53H0z"/></clipPath></defs></svg>