<svg xmlns="http://www.w3.org/2000/svg" width="18" height="18" fill="none"><g clip-path="url(#a)"><path fill="#000" d="M11.896 12.482a.264.264 0 1 0 0-.528.264.264 0 0 0 0 .528m-1.758-6.93a.264.264 0 1 0 0-.527.264.264 0 0 0 0 .527m0 2.637a.264.264 0 1 0 0-.528.264.264 0 0 0 0 .528M8.82 6.87a.264.264 0 1 0 0-.528.264.264 0 0 0 0 .528m2.636 0a.264.264 0 1 0 0-.528.264.264 0 0 0 0 .528m3.9-4.235A8.94 8.94 0 0 0 8.992 0a8.97 8.97 0 0 0-6.128 2.409 8.97 8.97 0 0 0-2.845 5.89.264.264 0 1 0 .525.041 8.44 8.44 0 0 1 2.679-5.545A8.44 8.44 0 0 1 8.992.527c2.263 0 4.39.882 5.99 2.482A8.42 8.42 0 0 1 17.465 9c0 2.263-.88 4.39-2.481 5.991a8.42 8.42 0 0 1-5.991 2.482 8.44 8.44 0 0 1-5.808-2.304A8.44 8.44 0 0 1 .537 9.55a.264.264 0 0 0-.527.033 8.96 8.96 0 0 0 2.813 5.971A8.97 8.97 0 0 0 8.992 18a8.94 8.94 0 0 0 6.364-2.636A8.94 8.94 0 0 0 17.992 9a8.94 8.94 0 0 0-2.636-6.364M2.143 10.43c.186.257.362.5.44.737.082.252.086.561.09.89.005.499.01 1.015.305 1.418.298.405.79.566 1.266.722.31.102.603.197.815.35.208.15.388.396.58.655.299.406.608.826 1.094.982.416.134.834.028 1.246-.099a1.18 1.18 0 0 0 2.138 0c.279.086.561.16.84.16q.205.001.406-.06c.486-.157.796-.577 1.095-.983.191-.26.372-.505.58-.654.212-.153.504-.25.814-.35.476-.157.969-.318 1.266-.723.295-.403.3-.92.306-1.419.004-.327.007-.637.09-.89.077-.236.253-.478.438-.735q.081-.111.161-.227a1.18 1.18 0 0 0 .856-1.132 1.18 1.18 0 0 0-.856-1.133l-.16-.227c-.186-.256-.362-.499-.44-.735-.082-.253-.085-.562-.089-.89-.005-.5-.01-1.016-.306-1.418-.297-.406-.79-.567-1.266-.723-.31-.101-.602-.197-.815-.35-.207-.15-.388-.395-.579-.655-.3-.406-.609-.826-1.095-.982-.39-.126-.796-.037-1.195.084a1.18 1.18 0 0 0-1.12-.813 1.18 1.18 0 0 0-1.12.813c-.398-.12-.804-.21-1.195-.084-.486.156-.795.576-1.095.982-.19.26-.371.505-.579.655-.212.153-.505.249-.815.35-.476.156-.968.317-1.266.723-.295.402-.3.919-.306 1.418-.003.328-.007.637-.09.89-.077.237-.253.48-.439.737l-.14.195a1.18 1.18 0 0 0-.988 1.163c0 .585.429 1.071.989 1.162q.07.1.14.196m6.905 5.812a.651.651 0 1 1 .002-1.302.651.651 0 0 1-.002 1.302m6.743-7.82a.651.651 0 1 1-.002 1.301.651.651 0 0 1 .002-1.302M9.048 1.757a.651.651 0 1 1-.001 1.302.651.651 0 0 1 .001-1.302M3.084 7.14c.108-.33.112-.695.115-1.048.005-.436.01-.847.204-1.112.198-.27.59-.398 1.006-.534.334-.11.68-.223.959-.424.274-.198.488-.488.695-.769.261-.354.508-.689.832-.793.276-.09.62.004.988.12a1.18 1.18 0 0 0 1.165 1.005 1.18 1.18 0 0 0 1.165-1.006c.368-.115.712-.208.989-.12.324.105.57.44.832.794.206.28.42.571.695.77.279.2.624.314.959.423.415.136.808.265 1.005.534.195.265.2.676.204 1.112.004.353.008.718.116 1.048.093.284.271.546.453.799a1.18 1.18 0 0 0-.853 1.132c0 .536.361.99.853 1.132-.182.252-.36.514-.453.799-.108.33-.112.694-.116 1.047-.005.436-.01.847-.204 1.113-.197.268-.59.397-1.005.533-.335.11-.68.223-.96.424-.274.198-.488.489-.694.77-.262.353-.508.688-.832.792-.274.088-.614-.002-.977-.115a1.18 1.18 0 0 0-1.177-1.153c-.64 0-1.163.515-1.177 1.153-.363.113-.703.204-.976.115-.324-.104-.57-.439-.832-.793-.207-.28-.42-.57-.695-.769-.279-.201-.625-.314-.96-.424-.415-.136-.807-.265-1.005-.534-.194-.265-.199-.676-.203-1.112-.004-.353-.008-.718-.116-1.048-.097-.295-.286-.567-.475-.829a1.18 1.18 0 0 0 .762-1.101 1.18 1.18 0 0 0-.762-1.102c.189-.262.378-.534.475-.83M1.542 9.07a.651.651 0 1 1 1.303.002.651.651 0 0 1-1.303-.001m8.596-2.2a.264.264 0 1 0 0-.528.264.264 0 0 0 0 .528m.44 4.292a.264.264 0 1 0 0-.527.264.264 0 0 0 0 .527m-4.131.373A2.675 2.675 0 0 0 9.11 9.073a2.657 2.657 0 0 0 2.603-.309q.09-.008.183-.009c1.182 0 2.144.962 2.144 2.145a2.147 2.147 0 0 1-2.144 2.144 2.147 2.147 0 0 1-2.018-2.87.264.264 0 0 0-.497-.18 2.675 2.675 0 0 0 2.515 3.577 2.675 2.675 0 0 0 2.672-2.671 2.675 2.675 0 0 0-2.326-2.649 2.66 2.66 0 0 0 .568-1.644 2.675 2.675 0 0 0-2.672-2.672 2.675 2.675 0 0 0-2.663 2.463 2.675 2.675 0 0 0-3.7 2.466 2.675 2.675 0 0 0 2.672 2.672m3.691-7.074c1.183 0 2.145.962 2.145 2.145a2.147 2.147 0 0 1-2.145 2.144 2.147 2.147 0 0 1-2.144-2.144c0-1.183.962-2.145 2.144-2.145M6.447 6.72c.369 0 .729.094 1.048.273a2.67 2.67 0 0 0 1.094 1.789 2.15 2.15 0 0 1-2.142 2.227 2.147 2.147 0 0 1-2.145-2.144c0-1.183.962-2.145 2.145-2.145m7.03 4.18a.264.264 0 1 0-.526 0 .264.264 0 0 0 .527 0m-1.581-1.055a.264.264 0 1 0 0-.527.264.264 0 0 0 0 .527m0 1.318a.264.264 0 1 0 0-.527.264.264 0 0 0 0 .527M7.765 9.128a.264.264 0 1 0 0-.527.264.264 0 0 0 0 .527m-1.318 0a.264.264 0 1 0 0-.527.264.264 0 0 0 0 .527m0-1.318a.264.264 0 1 0 0-.528.264.264 0 0 0 0 .528M5.128 9.128a.264.264 0 1 0 0-.527.264.264 0 0 0 0 .527m1.319 1.319a.264.264 0 1 0 0-.528.264.264 0 0 0 0 .527"/></g><defs><clipPath id="a"><path fill="#fff" d="M0 0h18v18H0z"/></clipPath></defs></svg>