<svg xmlns="http://www.w3.org/2000/svg" width="21" height="12" fill="none"><path stroke="#2F322A" stroke-linejoin="round" d="M0 6h20"/><path fill="#2F322A" d="M20 6.5a.5.5 0 0 0 0-1zm0-.5v-.5h.002l-.063-.003a4 4 0 0 1-.23-.022 6.4 6.4 0 0 1-.907-.19c-.782-.22-1.897-.666-3.181-1.569l-.575.818c1.382.972 2.6 1.464 3.485 1.713.442.124.8.188 1.051.22a5 5 0 0 0 .405.033H20zm-4.38-2.284c-1.306-.919-2.111-1.676-2.584-2.194a6 6 0 0 1-.483-.587A3 3 0 0 1 12.44.76v.001l.001.001v.001L12 1l-.44.237.001.003.004.006.044.075q.042.071.13.193c.116.164.295.395.559.683.526.576 1.388 1.38 2.748 2.337z"/><path fill="#2F322A" d="M20 6.5a.5.5 0 0 0 0-1zm0-.5v-.5h-.013l-.109.005q-.106.005-.296.028c-.252.033-.609.096-1.05.22-.885.249-2.104.741-3.486 1.713l.575.818c1.284-.903 2.399-1.348 3.181-1.568.392-.11.7-.164.907-.19a4 4 0 0 1 .293-.026H20zm-4.954 1.466c-1.36.956-2.222 1.761-2.748 2.337a7 7 0 0 0-.56.683 4 4 0 0 0-.163.25l-.01.018-.004.006-.001.003v.001L12 11c.441.235.441.236.44.236v.002l.002-.003.017-.029q.026-.044.094-.14c.092-.13.246-.329.483-.588.473-.517 1.278-1.275 2.585-2.194z"/></svg>