<svg xmlns="http://www.w3.org/2000/svg" width="18" height="18" fill="none"><path fill="#000" d="M2.558.142a2.18 2.18 0 0 0-2.18 2.179c0 1.202.978 2.179 2.18 2.179a2.18 2.18 0 0 0 2.179-2.179A2.18 2.18 0 0 0 2.557.142m0 3.79c-.888 0-1.61-.723-1.61-1.611S1.67.711 2.557.711s1.61.722 1.61 1.61-.722 1.61-1.61 1.61M10.516 17.29h-.758a.284.284 0 0 0 0 .568h.758a.284.284 0 0 0 0-.569M12.79 17.29h-.759a.284.284 0 0 0 0 .568h.758a.284.284 0 0 0 0-.569M15.443.995h-.758a.284.284 0 1 0 0 .568h.758a.284.284 0 1 0 0-.568M13.547.995h-2.274a.284.284 0 1 0 0 .568h2.274a.284.284 0 0 0 0-.568M17.716.995h-.758a.284.284 0 0 0 0 .568h.758a.284.284 0 1 0 0-.568"/><path fill="#000" d="M17.307 12.386a1.206 1.206 0 0 0-1.59-.311l-.989.593-2.811-2.811a1.78 1.78 0 0 0-.398-1.913l-2.97-2.97h2.44v.663a1.233 1.233 0 0 0 2.463 0V4.183c0-.922-.75-1.672-1.672-1.672H7.29c-.928 0-1.8.361-2.457 1.017l-2.46 2.46h.002a.28.28 0 0 0-.101.217v3.127H1.232C.552 9.332 0 9.884 0 10.563c0 .68.553 1.232 1.232 1.232h1.832c.923 0 1.673-.75 1.673-1.673V8.786l2.345 2.346-2.424 2.424c-.316.315-.49.736-.49 1.182v1.888c0 .244.072.472.195.663h-.668a.284.284 0 0 0 0 .569h4.547a.284.284 0 0 0 0-.569H6.437c.123-.191.195-.419.195-.663v-1.582l3.43-3.217 3.315 3.013a1.67 1.67 0 0 0 1.937.225l1.613-.896a1.21 1.21 0 0 0 .38-1.783M4.168 10.122c0 .609-.495 1.104-1.104 1.104H1.232a.664.664 0 0 1 0-1.326h1.326a.284.284 0 0 0 .284-.284V6.89l1.326 1.327zm12.798 3.123a.64.64 0 0 1-.315.427l-1.613.896c-.414.23-.928.17-1.279-.149l-3.28-2.982.136-.127a.28.28 0 0 0 .03-.377.28.28 0 0 0-.418-.038l-4.074 3.819a.28.28 0 0 0-.09.207v1.688c0 .37-.303.686-.674.68a.664.664 0 0 1-.652-.663v-1.888c0-.293.116-.573.323-.78l2.625-2.626a.284.284 0 0 0 0-.401L4.654 7.899 2.96 6.205 5.235 3.93A2.9 2.9 0 0 1 7.29 3.08h4.49c.61 0 1.104.494 1.104 1.104V5.62c0 .371-.303.687-.674.68a.664.664 0 0 1-.652-.662v-.948a.284.284 0 0 0-.284-.284H7.87a.3.3 0 0 0-.237.117.285.285 0 0 0 .028.368l3.439 3.44c.234.233.373.55.371.88a1.2 1.2 0 0 1-.383.876l-.044.041a.28.28 0 0 0-.034.373l.004.005c.1.135.295.153.418.038l.045-.042q.073-.069.136-.143l2.87 2.87c.092.092.235.11.347.042l1.179-.708a.64.64 0 0 1 .956.683"/></svg>