<svg width="1330" height="576" viewBox="0 0 1330 576" fill="none" xmlns="http://www.w3.org/2000/svg">
<path d="M398.731 398.746C366.123 398.746 337.812 416.69 322.439 443.051C314.818 456.121 310.121 471.185 310.121 487.356C310.121 536.181 349.863 575.967 398.731 575.967C447.6 575.967 487.342 536.181 487.342 487.356C487.342 471.185 482.689 456.121 475.024 443.051C459.65 416.69 431.384 398.746 398.731 398.746Z" fill="white"/>
<path d="M1019.02 398.746C986.412 398.746 958.102 416.69 942.728 443.051C935.107 456.121 930.41 471.185 930.41 487.356C930.41 536.181 970.152 575.967 1019.02 575.967C1067.89 575.967 1107.63 536.181 1107.63 487.356C1107.63 471.185 1102.98 456.121 1095.31 443.051C1079.94 416.69 1051.67 398.746 1019.02 398.746Z" fill="white"/>
<path d="M1284.85 310.136V265.831L1019.02 189.848L708.882 0H221.526V44.3051H487.356V88.6103H0V132.915H531.662V177.221H88.6103V221.526H310.136V265.831H221.526V310.136H44.3051V354.441H265.831V398.746H221.526V443.051H88.6103V487.356H265.831C265.831 471.761 269.02 456.963 273.983 443.051C292.325 391.569 340.972 354.441 398.746 354.441C456.564 354.441 505.168 391.569 523.51 443.051C528.428 456.963 531.662 471.761 531.662 487.356H886.103C886.103 471.761 889.292 456.963 894.254 443.051C912.597 391.569 961.244 354.441 1019.02 354.441C1076.84 354.441 1125.44 391.569 1143.78 443.051C1148.7 456.963 1151.93 471.761 1151.93 487.356H1284.85V443.051H1329.15V310.136H1284.85Z" fill="white"/>
</svg>
