<svg xmlns="http://www.w3.org/2000/svg" width="1330" height="576" fill="none"><path fill="#fff" d="M398.731 398.746c-32.608 0-60.919 17.944-76.292 44.305-7.621 13.07-12.318 28.134-12.318 44.305 0 48.825 39.742 88.611 88.61 88.611s88.611-39.786 88.611-88.611c0-16.171-4.653-31.235-12.318-44.305-15.374-26.361-43.64-44.305-76.293-44.305M1019.02 398.746c-32.608 0-60.918 17.944-76.292 44.305-7.621 13.07-12.318 28.134-12.318 44.305 0 48.825 39.742 88.611 88.61 88.611 48.87 0 88.61-39.786 88.61-88.611 0-16.171-4.65-31.235-12.32-44.305-15.37-26.361-43.64-44.305-76.29-44.305"/><path fill="#fff" d="M1284.85 310.136v-44.305l-265.83-75.983L708.882 0H221.526v44.305h265.83V88.61H0v44.305h531.662v44.306H88.61v44.305h221.526v44.305h-88.61v44.305H44.306v44.305H265.83v44.305h-44.305v44.305H88.61v44.305h177.221c0-15.595 3.189-30.393 8.152-44.305 18.342-51.482 66.989-88.61 124.763-88.61 57.818 0 106.422 37.128 124.764 88.61 4.918 13.912 8.152 28.71 8.152 44.305h354.441c0-15.595 3.189-30.393 8.151-44.305 18.343-51.482 66.99-88.61 124.766-88.61 57.82 0 106.42 37.128 124.76 88.61 4.92 13.912 8.15 28.71 8.15 44.305h132.92v-44.305h44.3V310.136z"/></svg>