<svg xmlns="http://www.w3.org/2000/svg" width="108" height="21" fill="none"><path fill="#F6BB06" d="M7.972 4.71c1.103-1.979 1.655-2.968 2.48-2.968.824 0 1.376.99 2.479 2.968l.285.512c.314.563.47.844.715 1.03.244.185.549.254 1.157.392l.555.125c2.142.485 3.213.727 3.468 1.547.255.819-.476 1.673-1.936 3.38l-.378.443c-.415.485-.622.728-.716 1.028s-.062.624.001 1.271l.057.59c.221 2.278.331 3.418-.336 3.924s-1.67.045-3.676-.879l-.519-.239c-.57-.262-.854-.393-1.157-.393-.302 0-.587.13-1.157.393l-.519.24c-2.005.923-3.008 1.384-3.675.878-.668-.506-.557-1.646-.336-3.924l.057-.59c.062-.647.094-.971 0-1.271-.093-.3-.3-.543-.715-1.028l-.378-.442c-1.46-1.708-2.19-2.562-1.936-3.381.255-.82 1.326-1.062 3.468-1.547l.554-.125c.61-.138.914-.207 1.158-.392s.401-.467.715-1.03zM29.621 4.71c1.103-1.979 1.655-2.968 2.48-2.968.824 0 1.376.99 2.48 2.968l.284.512c.314.563.47.844.715 1.03.245.185.549.254 1.158.392l.554.125c2.142.485 3.213.727 3.468 1.547.255.819-.475 1.673-1.936 3.38l-.377.443c-.416.485-.623.728-.716 1.028-.094.3-.062.624 0 1.271l.057.59c.221 2.278.332 3.418-.335 3.924-.668.506-1.67.045-3.676-.879l-.52-.239c-.57-.262-.854-.393-1.156-.393s-.587.13-1.157.393l-.52.24c-2.005.923-3.008 1.384-3.675.878s-.557-1.646-.336-3.924l.057-.59c.063-.647.094-.971 0-1.271-.093-.3-.3-.543-.715-1.028l-.378-.442c-1.46-1.708-2.19-2.562-1.936-3.381.255-.82 1.326-1.062 3.468-1.547l.555-.125c.608-.138.913-.207 1.157-.392.245-.186.401-.467.715-1.03zM51.27 4.71c1.104-1.979 1.655-2.968 2.48-2.968s1.376.99 2.48 2.968l.285.512c.313.563.47.844.715 1.03.244.185.548.254 1.157.392l.554.125c2.142.485 3.214.727 3.468 1.547.255.819-.475 1.673-1.935 3.38l-.378.443c-.415.485-.623.728-.716 1.028s-.062.624 0 1.271l.058.59c.22 2.278.331 3.418-.336 3.924s-1.67.045-3.676-.879l-.519-.239c-.57-.262-.855-.393-1.157-.393s-.587.13-1.157.393l-.519.24c-2.006.923-3.009 1.384-3.676.878s-.557-1.646-.336-3.924l.057-.59c.063-.647.094-.971.001-1.271s-.3-.543-.716-1.028l-.378-.442c-1.46-1.708-2.19-2.562-1.936-3.381.255-.82 1.326-1.062 3.469-1.547l.554-.125c.609-.138.913-.207 1.157-.392.245-.186.402-.467.715-1.03zM72.92 4.71c1.103-1.979 1.655-2.968 2.48-2.968.824 0 1.376.99 2.479 2.968l.285.512c.314.563.47.844.715 1.03.244.185.548.254 1.157.392l.555.125c2.142.485 3.213.727 3.468 1.547.255.819-.476 1.673-1.936 3.38l-.378.443c-.415.485-.622.728-.716 1.028s-.062.624.001 1.271l.057.59c.22 2.278.331 3.418-.336 3.924s-1.67.045-3.676-.879l-.519-.239c-.57-.262-.855-.393-1.157-.393s-.587.13-1.157.393l-.519.24c-2.005.923-3.008 1.384-3.675.878-.668-.506-.557-1.646-.337-3.924l.058-.59c.062-.647.094-.971 0-1.271-.093-.3-.3-.543-.716-1.028l-.377-.442c-1.46-1.708-2.191-2.562-1.936-3.381.255-.82 1.326-1.062 3.468-1.547l.554-.125c.609-.138.913-.207 1.158-.392s.401-.467.715-1.03zM94.57 4.71c1.102-1.979 1.654-2.968 2.479-2.968.824 0 1.376.99 2.48 2.968l.285.512c.313.563.47.844.714 1.03.245.185.549.254 1.158.392l.554.125c2.142.485 3.213.727 3.468 1.547.255.819-.475 1.673-1.936 3.38l-.378.443c-.415.485-.622.728-.715 1.028-.094.3-.062.624 0 1.271l.057.59c.221 2.278.332 3.418-.335 3.924-.668.506-1.671.045-3.676-.879l-.52-.239c-.57-.262-.854-.393-1.156-.393-.303 0-.588.13-1.157.393l-.52.24c-2.005.923-3.008 1.384-3.675.878s-.557-1.646-.336-3.924l.057-.59c.063-.647.094-.971 0-1.271-.093-.3-.3-.543-.715-1.028l-.378-.442c-1.46-1.708-2.19-2.562-1.936-3.381.255-.82 1.326-1.062 3.468-1.547l.555-.125c.608-.138.913-.207 1.157-.392.245-.186.401-.467.715-1.03z"/></svg>