<svg xmlns="http://www.w3.org/2000/svg" width="17" height="17" fill="none"><path fill="#000" d="M16.751 16.502h-2.009v-3.407c1.266-.14 2.258-1.338 2.258-2.789 0-1.427-.96-2.608-2.196-2.78.247-.31.416-.681.48-1.085a.25.25 0 0 0-.492-.079 1.85 1.85 0 0 1-1.19 1.438.45.45 0 0 0-.29.338c-.046.24-.215.826-.78 1.097-.486.233-.964.09-1.146.018a1.5 1.5 0 0 1-.64-.486V7.69l1.087-1.088a.25.25 0 0 0-.352-.352l-.736.735V5.338a.249.249 0 1 0-.498 0v1.17l-.736-.735a.25.25 0 0 0-.352.352l1.088 1.088v1.554a1.5 1.5 0 0 1-.64.486c-.183.072-.66.215-1.148-.018a1.3 1.3 0 0 1-.567-.534c.043-1.1-.275-2.71-.748-4.25q.095-.054.2-.094a.52.52 0 0 0 .327-.546 1.094 1.094 0 0 1 .824-1.196c.236-.058.4-.27.4-.517 0-.882.719-1.6 1.601-1.6.883 0 1.6.718 1.6 1.603 0 .244.165.456.4.515.538.132.892.647.825 1.195a.52.52 0 0 0 .328.546c.466.183.842.555 1.031 1.018a.249.249 0 1 0 .461-.188 2.35 2.35 0 0 0-1.31-1.293c-.01-.004-.017-.015-.015-.024a1.594 1.594 0 0 0-1.2-1.738c-.012-.003-.022-.017-.022-.034A2.1 2.1 0 0 0 10.496 0a2.1 2.1 0 0 0-2.098 2.1c0 .015-.01.029-.022.032a1.59 1.59 0 0 0-1.2 1.739c.006.043-.153.079-.187.1a17 17 0 0 0-.192-.54C5.729.595 4.658 0 3.948 0c-1.24 0-2.187 1.746-2.764 3.21a.249.249 0 1 0 .464.183C2.372 1.553 3.21.498 3.948.498c.77 0 1.639 1.133 2.382 3.109.701 1.86 1.068 3.87 1.068 4.895 0 2.048-1.415 3.731-3.201 3.875V9.404l1.04-1.04a.249.249 0 1 0-.353-.352l-.687.687V7.66a.249.249 0 1 0-.498 0v2.096l-.687-.687a.25.25 0 0 0-.352.352l1.039 1.04v1.917C1.912 12.233.498 10.55.498 8.502c0-.963.31-2.584.77-4.036a.249.249 0 0 0-.475-.15C.311 5.834 0 7.477 0 8.502c0 2.324 1.638 4.231 3.699 4.374v3.626H.249a.249.249 0 1 0 0 .498h16.502a.249.249 0 0 0 0-.498m-6.504 0h-6.05v-3.625c1.79-.125 3.26-1.58 3.617-3.484q.191.177.43.29c.664.319 1.302.129 1.546.033.177-.07.328-.16.457-.257zm3.997 0h-3.499V9.459c.129.097.28.186.457.257.143.056.42.144.759.144.019 0 .025.296.025.446 0 1.452.992 2.649 2.258 2.789zm.25-6.368a.25.25 0 0 0-.25.25v2.208c-.99-.141-1.76-1.112-1.76-2.286q.001-.274.056-.538c.763-.256 1.2-1.15 1.256-1.509q.254-.095.474-.243c1.21-.155 2.232.943 2.232 2.29 0 1.174-.77 2.145-1.76 2.286v-.736l.788-.788a.25.25 0 0 0-.353-.352l-.435.435v-.768a.25.25 0 0 0-.249-.249"/></svg>