<svg xmlns="http://www.w3.org/2000/svg" width="130" height="130" fill="none"><circle cx="65" cy="65" r="65" fill="#11AD87"/><path fill="#fff" d="M75.828 37.45c2.68.378 5.304 1.051 7.896 1.848a54 54 0 0 1 12.814 5.842c.28.173.652.283.981.283 4.718.02 9.434.013 14.148.017.38 0 .758.04 1.137.061 0 .093.014.132-.002.153q-.331.507-.664 1.01c-1.601 2.455-2.968 5.023-3.775 7.86-.088.306-.107.56.1.86 4.2 6.03 5.54 12.652 3.785 19.789-1.539 6.26-5.127 11.14-10.579 14.596-3.897 2.47-8.202 3.647-12.801 3.673a22.3 22.3 0 0 1-5.743-.738c-4.599-1.193-8.541-3.485-11.79-6.958-.43-.456-.832-.932-1.29-1.447l-5.14 7.664-5.056-7.556c-.115.06-.148.067-.17.089a1 1 0 0 0-.1.105c-3.93 4.64-8.874 7.486-14.897 8.437-3.35.531-6.669.34-9.923-.557-4.612-1.267-8.531-3.7-11.697-7.29-3.095-3.51-5.02-7.585-5.742-12.218-.827-4.325.18-8.494.432-9.506.728-2.941 1.998-5.642 3.742-8.126.122-.176.165-.488.107-.698-.711-2.608-1.937-4.98-3.371-7.25-.364-.578-.8-1.113-1.204-1.667v-.193c.08.01.16.026.24.026 4.827.002 9.653.003 14.48-.006.21 0 .444-.087.623-.202 3.391-2.176 7.005-3.9 10.801-5.242a59 59 0 0 1 8.384-2.272c2.76-.534 5.535-.91 8.34-1.095 6.835-.526 12.3.198 15.934.707m-6.051 31.878c0 10.6 8.6 19.26 19.162 19.218 10.601-.038 19.163-8.454 19.155-19.17-.008-11.044-8.966-19.346-19.566-19.13-10.465.216-18.656 8.651-18.751 19.082M41.034 50.172c-10.31-.09-19.3 8.516-19.12 19.477.168 10.221 8.593 18.887 19.335 18.794 10.503-.09 18.945-8.666 18.965-19.052a19.115 19.115 0 0 0-19.18-19.219m.95-5c5.825.355 10.941 2.385 15.264 6.316 4.314 3.923 6.841 8.817 7.76 14.573.944-5.688 3.405-10.536 7.638-14.42 4.24-3.888 9.288-5.929 15.017-6.36-6.798-3.022-13.967-4.306-21.346-4.448-8.385-.165-16.542 1.071-24.332 4.339"/><path fill="#fff" d="M88.9 57.235c6.56-.01 11.873 5.274 11.873 11.827 0 6.578-5.223 11.664-11.384 11.898-6.881.264-12.387-5.218-12.385-11.868.006-6.727 5.55-11.968 11.896-11.857m7.737 11.856c-.003-4.275-3.46-7.75-7.706-7.75-4.295 0-7.792 3.456-7.81 7.72-.015 4.244 3.5 7.775 7.755 7.787 4.262.017 7.763-3.489 7.761-7.757M40.78 57.235c6.557-.007 11.877 5.288 11.86 11.84-.018 6.632-5.245 11.606-11.298 11.881-6.909.316-12.483-5.191-12.47-11.877.014-6.774 5.596-11.957 11.909-11.844m7.73 11.83c-.014-4.302-3.492-7.731-7.835-7.723-4.19.007-7.7 3.543-7.69 7.748.01 4.253 3.517 7.75 7.784 7.762 4.24.01 7.75-3.522 7.74-7.787"/><path fill="#fff" d="M88.906 65.156c2.173-.002 3.956 1.781 3.935 3.942-.021 2.166-1.773 3.921-3.911 3.922-2.201 0-3.971-1.74-3.966-3.894.004-2.237 1.723-3.968 3.942-3.97M40.76 65.12a3.97 3.97 0 0 1 3.99 3.962c.009 2.181-1.781 3.973-3.977 3.977-2.25.005-3.984-1.732-3.982-3.993 0-2.22 1.73-3.942 3.97-3.945"/></svg>