<svg width="150" height="33" viewBox="0 0 150 33" fill="none" xmlns="http://www.w3.org/2000/svg">
<g clip-path="url(#clip0_12_903)">
<g clip-path="url(#clip1_12_903)">
<g clip-path="url(#clip2_12_903)">
<path d="M147.974 21.6303C147.515 21.6303 147.141 22.0093 147.141 22.4759C147.141 22.9425 147.515 23.3215 147.974 23.3215C148.433 23.3215 148.807 22.9425 148.807 22.4759C148.807 22.0093 148.433 21.6303 147.974 21.6303ZM147.974 23.1874C147.587 23.1874 147.273 22.8673 147.273 22.4759C147.273 22.0825 147.589 21.7644 147.974 21.7644C148.361 21.7644 148.676 22.0844 148.676 22.4759C148.676 22.8674 148.361 23.1874 147.974 23.1874ZM148.245 22.331C148.245 22.1773 148.138 22.0861 147.979 22.0861H147.713V22.8566H147.844V22.5778H147.986L148.124 22.8566H148.264L148.113 22.5492C148.194 22.5116 148.245 22.4365 148.245 22.331ZM147.974 22.458H147.846V22.2024H147.974C148.062 22.2024 148.115 22.247 148.115 22.3293C148.115 22.4133 148.06 22.458 147.974 22.458ZM47.6558 13.0725V11.0273H44.5684V23.1945H47.6558V15.8989C47.6558 14.5778 48.4901 13.9288 49.7909 13.9288H51.4807V11.0274H50.0373C48.9073 11.0273 47.9251 11.6262 47.6558 13.0725ZM54.3727 6.21484C53.3165 6.21484 52.5069 7.06223 52.5069 8.13486C52.5069 9.18245 53.3165 10.0298 54.3727 10.0298C55.4288 10.0298 56.2385 9.18245 56.2385 8.13486C56.2384 7.06219 55.4288 6.21484 54.3727 6.21484ZM52.8325 23.1945H55.9128V11.0273H52.8325V23.1945ZM70.5856 17.1109C70.5856 20.5844 67.8134 23.4001 64.3934 23.4001C63.0133 23.4001 61.7619 22.9407 60.7584 22.1648V26.7664H57.6782V11.0273H60.7584V12.057C61.7619 11.2812 63.0133 10.8217 64.3934 10.8217C67.8134 10.8217 70.5856 13.6374 70.5856 17.1109ZM67.486 17.1109C67.486 15.2249 65.9792 13.6946 64.1222 13.6946C62.2652 13.6946 60.7586 15.2249 60.7586 17.1109C60.7586 18.997 62.2652 20.5272 64.1222 20.5272C65.9792 20.5272 67.486 18.9988 67.486 17.1109ZM124.123 16.0437L122.326 15.5431C121.144 15.2302 120.684 14.862 120.684 14.2274C120.684 13.6088 121.332 13.1762 122.258 13.1762C123.14 13.1762 123.831 13.7625 123.831 14.5134V14.5831H126.671V14.5134C126.671 12.3055 124.898 10.8217 122.258 10.8217C119.644 10.8217 117.745 12.3037 117.745 14.3471C117.745 15.9364 118.781 17.1341 120.591 17.6311L122.312 18.1084C123.62 18.4767 124.106 18.8843 124.106 19.6155C124.106 20.386 123.404 20.9044 122.358 20.9044C121.268 20.9044 120.534 20.2036 120.534 19.1632V19.0934H117.521V19.1632C117.521 21.6588 119.499 23.4036 122.333 23.4036C125.063 23.4036 127.045 21.7 127.045 19.3545C127.045 18.2032 126.538 16.698 124.123 16.0437ZM81.513 11.0273H84.5932V23.1945H81.513V22.1647C80.5096 22.9406 79.258 23.4001 77.8782 23.4001C74.4582 23.4001 71.6859 20.5844 71.6859 17.1109C71.6859 13.6373 74.4582 10.8217 77.8782 10.8217C79.258 10.8217 80.5097 11.2811 81.513 12.057V11.0273ZM81.513 17.1109C81.513 15.2231 80.0062 13.6946 78.1492 13.6946C76.2922 13.6946 74.7855 15.2249 74.7855 17.1109C74.7855 18.997 76.2922 20.5272 78.1492 20.5272C80.0079 20.5272 81.513 18.9988 81.513 17.1109ZM95.7159 6.69752H98.7962V23.1963H95.7159V22.1665C94.7126 22.9424 93.4611 23.4019 92.0811 23.4019C88.661 23.4019 85.8886 20.5862 85.8886 17.1127C85.8886 13.6391 88.661 10.8235 92.0811 10.8235C93.4611 10.8235 94.7126 11.2829 95.7159 12.0588V6.69752ZM95.7159 17.1109C95.7159 15.2249 94.209 13.6946 92.3521 13.6946C90.4952 13.6946 88.9883 15.2249 88.9883 17.1109C88.9883 18.997 90.4934 20.5272 92.3521 20.5272C94.209 20.5272 95.7159 18.9988 95.7159 17.1109ZM113.098 23.1945H116.178V11.0273H113.098V23.1945ZM114.638 6.21484C113.582 6.21484 112.772 7.06223 112.772 8.13486C112.772 9.18245 113.582 10.0298 114.638 10.0298C115.694 10.0298 116.504 9.18245 116.504 8.13486C116.504 7.06219 115.694 6.21484 114.638 6.21484ZM140.359 17.1109C140.359 20.5844 137.587 23.4001 134.167 23.4001C130.747 23.4001 127.975 20.5845 127.975 17.1109C127.975 13.6374 130.747 10.8217 134.167 10.8217C137.587 10.8217 140.359 13.6374 140.359 17.1109ZM137.531 17.1109C137.531 15.2249 136.024 13.6946 134.167 13.6946C132.31 13.6946 130.803 15.2249 130.803 17.1109C130.803 18.997 132.308 20.5272 134.167 20.5272C136.024 20.5272 137.531 18.9988 137.531 17.1109ZM46.0786 6.69752H34.2625V9.48815H38.6366V23.1945H41.7063V9.48815H46.0804V6.69752H46.0786ZM105.835 19.8622L103.095 11.0274H99.8593L103.969 23.1945H107.676L111.811 11.0274H108.576L105.835 19.8622ZM144.873 13.0725V11.0273H141.785V23.1945H144.873V15.8989C144.873 14.5778 145.707 13.9288 147.008 13.9288H148.697V11.0274H147.254C146.124 11.0273 145.144 11.6262 144.873 13.0725Z" fill="#081C2B"/>
<path d="M16.4458 32.25C25.1463 32.25 32.1995 25.0866 32.1995 16.25C32.1995 7.41344 25.1463 0.25 16.4458 0.25C7.74528 0.25 0.692139 7.41344 0.692139 16.25C0.692139 25.0866 7.74528 32.25 16.4458 32.25Z" fill="#34E0A1"/>
<path d="M26.1752 13.1323L28.0763 11.0317H23.8605C21.7502 9.56757 19.2013 8.71484 16.4449 8.71484C13.6919 8.71484 11.1502 9.56941 9.04333 11.0317H4.81714L6.71814 13.1323C5.55292 14.2121 4.82244 15.7674 4.82244 17.4943C4.82244 20.7533 7.42402 23.3955 10.6328 23.3955C12.1571 23.3955 13.5459 22.7985 14.5826 21.8224L16.4449 23.8818L18.3072 21.8242C19.3439 22.8003 20.731 23.3955 22.2554 23.3955C25.4641 23.3955 28.0693 20.7533 28.0693 17.4943C28.0709 15.7656 27.3404 14.2103 26.1752 13.1323ZM10.6346 21.4881C8.46247 21.4881 6.70233 19.7004 6.70233 17.4943C6.70233 15.2883 8.46251 13.5006 10.6346 13.5006C12.8066 13.5006 14.5667 15.2883 14.5667 17.4943C14.5667 19.7004 12.8066 21.4881 10.6346 21.4881ZM16.4466 17.3781C16.4466 14.7502 14.565 12.4941 12.0814 11.5305C13.4244 10.9602 14.8977 10.6438 16.4449 10.6438C17.9921 10.6438 19.4671 10.9602 20.8102 11.5305C18.3284 12.4959 16.4466 14.7502 16.4466 17.3781ZM22.257 21.4881C20.0849 21.4881 18.3249 19.7004 18.3249 17.4943C18.3249 15.2883 20.0849 13.5006 22.257 13.5006C24.4291 13.5006 26.1894 15.2883 26.1894 17.4943C26.1894 19.7004 24.4291 21.4881 22.257 21.4881ZM22.257 15.3991C21.1182 15.3991 20.1958 16.3359 20.1958 17.4925C20.1958 18.6492 21.1182 19.5859 22.257 19.5859C23.396 19.5859 24.3182 18.6492 24.3182 17.4925C24.3182 16.3377 23.396 15.3991 22.257 15.3991ZM12.6957 17.4943C12.6957 18.651 11.7733 19.5877 10.6346 19.5877C9.49574 19.5877 8.57339 18.651 8.57339 17.4943C8.57339 16.3377 9.49574 15.4009 10.6346 15.4009C11.7733 15.3991 12.6957 16.3377 12.6957 17.4943Z" fill="#081C2B"/>
</g>
</g>
</g>
<defs>
<clipPath id="clip0_12_903">
<rect width="149" height="32" fill="white" transform="translate(0.699951 0.25)"/>
</clipPath>
<clipPath id="clip1_12_903">
<rect width="149" height="32" fill="white" transform="translate(0.699951 0.25)"/>
</clipPath>
<clipPath id="clip2_12_903">
<rect width="149" height="32" fill="white" transform="translate(0.699951 0.25)"/>
</clipPath>
</defs>
</svg>
